<?xml version="1.0" encoding="utf-8"?>
<!-- Generator: Adobe Illustrator 17.1.0, SVG Export Plug-In . SVG Version: 6.00 Build 0)  -->
<!DOCTYPE svg PUBLIC "-//W3C//DTD SVG 1.1//EN" "http://www.w3.org/Graphics/SVG/1.1/DTD/svg11.dtd">
<svg version="1.1" id="Face_Icons" xmlns="http://www.w3.org/2000/svg" xmlns:xlink="http://www.w3.org/1999/xlink" x="0px" y="0px"
	 viewBox="0 0 1800 900" enable-background="new 0 0 1800 900" xml:space="preserve">
<rect x="0" fill="#EBEFF0" width="1800" height="900"/>
<g>
	<g>
		<defs>
			<circle id="SVGID_1_" cx="1627" cy="740" r="125.6"/>
		</defs>
		<clipPath id="SVGID_3_">
			<use xlink:href="#SVGID_1_"  overflow="visible"/>
		</clipPath>
		<rect x="1492" y="605" clip-path="url(#SVGID_3_)" fill="#8DA28D" width="270" height="270"/>
		<g clip-path="url(#SVGID_3_)">
			<g>
				<path fill="#F9DFA9" d="M1642.3,767c-0.6,7.9,0.2,27.2,2.3,57.5h-41.1c1.4-22.5,2.9-47.3,2.3-57.5H1642.3z"/>
				<path fill="#EACE95" d="M1642.3,767c-0.2,10-0.2,17.4,0.6,29c-14.3-2.7-27.6-12.2-37-23.7V767H1642.3z"/>
			</g>
			<g>
				<path fill="#F9DFA9" d="M1697.4,875h-147.2c0,0,3.6-50.9,8.2-57.3c8-11.1,33.8-19.6,46.8-22.6c4.9,10.9,21.4,10,19,10
					c0,0,15.5-1.5,18.7-10c0,0,36.7,10.5,46.6,24.2C1694.1,825.8,1697.4,875,1697.4,875z"/>
				<path fill="#ECF0F1" d="M1674.3,875h-100.2c0-25.9,0.2-52.3-3.5-67.2c10.5-5.4,16.9-8.1,27.9-11c3.4,9.5,15.7,38.4,25.8,38.3
					c8.5-0.1,21.9-29.4,25.1-37.9c10.8,3.1,16.6,6.1,27.3,11.7C1673.2,823.8,1674.3,849.7,1674.3,875z"/>
				<path fill="#E6EAEB" d="M1674.3,875h-50v-39.9c8.5-0.1,21.9-29.4,25.1-37.9c10.7,3.1,16.4,6,27.3,11.7
					C1673.2,823.8,1674.3,849.7,1674.3,875z"/>
				<path fill="#80C5D9" d="M1654.1,798.6c-4.5,24.8-20.8,45.2-29.9,45.2c-9.2,0-25.7-20.7-30-45.8c1.3-0.4,2.8-0.8,4.3-1.2
					c3.4,9.5,15.7,38.4,25.8,38.3c8.5-0.1,21.9-29.4,25.1-37.9C1651.1,797.6,1652.6,798.1,1654.1,798.6z"/>
			</g>
			<g>
				<path fill="#D28554" d="M1584.3,678.2c-13.9-3.2-28.9-0.9-41.3,6.2c1.9-3.9,4.8-7.3,8.4-9.6c-6.5,1.1-12.5,4.5-17.1,9
					c1.5-7.6,8.8-13.5,16.5-14.2c-5.8-1.3-11.9-0.9-17.6,0.8c3.9-2.6,7.7-5.1,11.6-7.8c-2.6-0.7-5-1.4-7.6-2.1
					c4.1-2.8,9.8-3.3,14.4-1.3c-2.6-3.8-6.3-6.9-10.3-9.1c13.6-6.6,29.5,9.8,35.9,14.8c5.4,4.2,11.7,7.8,18.5,7.9
					c-1.3,2.3-3,6-5.5,6.7C1588.3,680.2,1585.6,679.7,1584.3,678.2z"/>
				<path fill="#D28554" d="M1703.2,687.7c0.7-4.1-1-8.5-4.4-10.9c4.3,1.3,8.5,3.1,12.1,5.7c-1.9-5.1-4.8-9.2-9.5-11.8
					c6.9-1.5,14.6,0.7,19.4,6c-3.3-9.8-8.6-11.7-15.3-12.1c1.6-3.1,6.6-5.6,10-5c-4.5-4.2-9.9-3.8-16-3.2c1.3-3.3,5.2-5.6,8.7-5.6
					c-8.9-6.4-22.9,4.3-25.8,7.2c-6.8,6.8-11.3,10.3-18.1,17.2c1.7,2.4,2.8,4.4,4.5,6.8C1671,676.5,1692.6,671.1,1703.2,687.7z"/>
				<g>
					<path fill="#FFE8B9" d="M1670.7,712.4c0,24.2-32.1,70.4-46.8,68.2c-17.2-0.3-46.4-43.3-46.4-68.2c0-33,13.7-55,46.6-55
						C1658.9,657.5,1670.7,682.1,1670.7,712.4z"/>
					<path fill="#FFE8B9" d="M1593.3,721.3c0.3,8.4-4.4,15.4-10.4,15.6c-6,0.2-11-10.1-11.2-18.5c-0.3-8.4,4.2-11.8,10.2-12
						C1587.9,706.2,1593,712.9,1593.3,721.3z"/>
					<path fill="#F9DFA9" d="M1654.8,721.3c-0.3,8.4,4.4,15.4,10.4,15.6c6,0.2,11-10.1,11.2-18.5s-4.2-11.8-10.2-12
						C1660.1,706.2,1655,712.9,1654.8,721.3z"/>
					<path fill="#F9DFA9" d="M1670.7,712.4c0,24.2-32.1,70.4-46.8,68.2V657.5C1656.9,657.5,1670.7,679.3,1670.7,712.4z"/>
				</g>
				<path fill="#D28554" d="M1576.9,706.5c2.2,2.3,3.7,5.3,4.2,8.5c1.2,0,2.4-0.1,3.7-0.1c-2.1-11,16.9-21.2,26.7-28.2
					c9.1-6.5,11.7-15.6,11.7-15.6s6.5,14.1,16.9,18.8c13,5.8,24.4,16.2,23.2,27.6c1.3,0.1,2.1,0.2,3.3,0.3c0.7-3.7,1.6-8.8,6.6-8.8
					c0-7.2,3.6-33.3-8.4-48.5c-4.5-5.7-12.3-10.5-20.2-11.4c-7.2-0.8-15,1.9-21.2,5.8c-13.9-11-29.6-4.9-39.6,8.3
					C1574.5,675.2,1572.6,686.3,1576.9,706.5z"/>
				
					<rect x="1670.7" y="665" transform="matrix(0.9529 -0.3033 0.3033 0.9529 -125.2769 539.0325)" fill="#80C5D9" width="4.5" height="15.8"/>
				
					<rect x="1574.6" y="663.6" transform="matrix(0.9131 0.4076 -0.4076 0.9131 410.7103 -584.478)" fill="#80C5D9" width="4.5" height="15.8"/>
			</g>
		</g>
	</g>
</g>
<g>
	<g>
		<defs>
			<circle id="SVGID_176_" cx="1337" cy="740" r="125.6"/>
		</defs>
		<clipPath id="SVGID_4_">
			<use xlink:href="#SVGID_176_"  overflow="visible"/>
		</clipPath>
		<rect x="1202" y="605" clip-path="url(#SVGID_4_)" fill="#7D6B67" width="270" height="270"/>
		<g clip-path="url(#SVGID_4_)">
			<g>
				<path fill="#B0AD99" d="M1362.3,668.5c-8.4-4.1-23.1-0.2-32.4-0.9c-24.2-1.8-37.6,1.6-45,33.5c-3.5,14.9-5.6,30.3-3.3,45.4
					c2.2,14.1,9.9,51.5,27.4,41.6c16.9-9.5,42.7-13.2,62.5,1.3c2.4,1.8,8.5-5.1,10.2-6.3c1.9-1.5,2.4-4,2.8-6.4
					c2.8-18,4.3-36.3,4.2-54.5c0-4-2.8-19.8-4.8-28.2C1382.9,690.1,1373.7,674,1362.3,668.5z"/>
				<g>
					<path fill="#F9DFA9" d="M1355.5,767c-0.6,7.9,0.2,27.2,2.3,57.5h-41.1c1.4-22.5,2.9-47.3,2.3-57.5H1355.5z"/>
					<path fill="#EACE95" d="M1355.5,767c-0.2,10-0.2,17.4,0.6,29c-14.3-2.7-27.6-12.2-37-23.7V767H1355.5z"/>
				</g>
				<g>
					<path fill="#FFE8B9" d="M1383.8,712.4c0,24.2-32.1,70.4-46.8,68.2c-17.2-0.3-46.4-43.3-46.4-68.2c0-33,13.7-55,46.6-55
						C1372.1,657.5,1383.8,682.1,1383.8,712.4z"/>
					<path fill="#FFE8B9" d="M1306.5,721.3c0.3,8.4-4.4,15.4-10.4,15.6c-6,0.2-11-10.1-11.2-18.5c-0.3-8.4,4.2-11.8,10.2-12
						C1301.1,706.2,1306.2,712.9,1306.5,721.3z"/>
					<path fill="#F9DFA9" d="M1367.9,721.3c-0.3,8.4,4.4,15.4,10.4,15.6c6,0.2,11-10.1,11.2-18.5c0.3-8.4-4.2-11.8-10.2-12
						C1373.3,706.2,1368.2,712.9,1367.9,721.3z"/>
					<path fill="#F9DFA9" d="M1383.8,712.4c0,24.2-32.1,70.4-46.8,68.2V657.5C1370.1,657.5,1383.8,679.3,1383.8,712.4z"/>
				</g>
				<path fill="#C2BFAA" d="M1309,767.9c6.7,2.8,8.1,13.4,4.5,17.7c-3.6,4.3-11.9,6.1-18.1,4.6c-35.5-8.5-35.2-60.2-28.3-91.5
					c2.3-10.3,13.6-40,34.4-45.5c8.2-2.1,9.5,0.2,17.2,3.9c7.9-11.2,32.1-18.2,49.5-8.2c42.9,24.5,46.2,65.5,36.8,107.2
					c-9.5,42.1-39.6,41.2-43.2,20.2c9.8,2.7,18.7-15.1,11.5-32.4c-7.3-17.5-23.3-28.8-39.2-38c-7.8-4.5-18-13.7-17-23.3
					c-4.6,17.3-7.9,25.4-15.2,41.5c-6.4,13.9-9.8,27.1-4.5,41.5C1299.8,773,1310.3,773.1,1309,767.9z"/>
			</g>
			<g>
				<path fill="#97A13D" d="M1410.6,875h-147.2c0,0,3.6-50.9,8.2-57.3c8-11.1,33.8-19.6,46.8-22.6c4.9,10.9,21.4,10,19,10
					c0,0,15.5-1.5,18.7-10c0,0,36.7,10.5,46.6,24.2C1407.3,825.8,1410.6,875,1410.6,875z"/>
				<path fill="#8D9639" d="M1410.6,875h-73.4l0.2-69.9c-1.7,0,11.8,0.6,18.7-10c0,0,36.7,10.5,46.6,24.2
					C1407.3,825.8,1410.6,875,1410.6,875z"/>
				<g>
					<g>
						<path fill="#E3F4E4" d="M1307.7,796.5c0.6-3.7,6.2-2.4,5.6,1C1312.8,800.8,1307.1,800.2,1307.7,796.5z"/>
						<path fill="#E3F4E4" d="M1306.9,802c0.3-3.7,6-2.8,5.7,0.6C1312.3,805.9,1306.6,805.8,1306.9,802z"/>
						<path fill="#E3F4E4" d="M1306.6,807.6c0-3.7,5.8-3.3,5.7,0.1C1312.3,811,1306.6,811.5,1306.6,807.6z"/>
						<path fill="#E3F4E4" d="M1306.8,813.3c-0.3-3.7,5.4-3.9,5.7-0.5C1312.8,816.1,1307.1,817.1,1306.8,813.3z"/>
						<path fill="#E3F4E4" d="M1308.8,820.7c-2-1.2-1.6-4.7,1.1-5c2.3-0.3,4.3,1.9,2.8,4C1311.6,821.3,1309.8,821.4,1308.8,820.7z"
							/>
						<path fill="#E3F4E4" d="M1309,824.5c-1.2-3.8,4.5-4.9,5.4-1.9C1315.5,826,1310.1,827.9,1309,824.5z"/>
						<path fill="#E3F4E4" d="M1311.3,829.9c-1.7-3.4,3.6-5.6,5.1-2.7C1317.9,829.9,1313.3,833.3,1311.3,829.9z"/>
						<path fill="#E3F4E4" d="M1316.4,835.9c-1.5-0.1-2.7-1.7-2.5-3.2c0.7-3.2,6-3.1,5.5,0.6C1319.3,834.6,1318,836,1316.4,835.9z"
							/>
					</g>
					<g>
						<path fill="#E3F4E4" d="M1318.5,839.2c-2.9-2.8,1.6-6.4,3.8-4.3C1324.6,836.8,1321.6,841.7,1318.5,839.2z"/>
						<path fill="#E3F4E4" d="M1323.3,842.6c-3.5-2.1,0.3-6.5,2.9-4.9c0.5,0.3,1,1,1.1,1.6C1328,841.7,1325.5,844,1323.3,842.6z"/>
						<path fill="#E3F4E4" d="M1327.7,844.5c-3-3.1,2.6-7.1,4.3-3.5C1333.4,844.2,1329.9,846.5,1327.7,844.5z"/>
						<path fill="#E3F4E4" d="M1334.5,846.4c-4.1-0.7-2.3-6.2,0.7-5.7C1338.1,840.9,1338.6,846.7,1334.5,846.4z"/>
						<path fill="#E3F4E4" d="M1340.5,846.5c-1.6,0.1-3-1-3-2.7c0-2.1,2.2-4,4.2-2.4C1343.9,843.1,1342.8,846.4,1340.5,846.5z"/>
						<path fill="#E3F4E4" d="M1346.3,845.2c-3.4,1.3-5-4.2-1.7-5.4c0.6-0.2,1.3-0.1,1.9,0.2C1348.6,841.1,1349,844.3,1346.3,845.2z
							"/>
						<path fill="#E3F4E4" d="M1351.8,842.8c-1.1,0.7-3.1,0.5-3.8-1.3c-0.5-1.1-0.5-2.7,1-3.7
							C1351.4,836.3,1355.3,840.6,1351.8,842.8z"/>
						<path fill="#E3F4E4" d="M1357.5,837.3c0.1,2.6-3.4,3.8-4.9,1.7c-1.4-2-0.4-4.6,2-4.5C1356.1,834.5,1357.5,835.6,1357.5,837.3z
							"/>
					</g>
					<g>
						<path fill="#E3F4E4" d="M1360.6,834.9c-2.1,3-6.6-0.5-4.6-3.4C1357.8,829,1362.9,831.6,1360.6,834.9z"/>
						<path fill="#E3F4E4" d="M1363.7,827.6c1,2.5-1.8,4.7-3.9,3.3c-2.2-1.4-2-4.2,0.2-4.9C1361.3,825.6,1363.1,826.2,1363.7,827.6z
							"/>
						<path fill="#E3F4E4" d="M1365.7,824.4c-0.7,3.2-6.2,2.1-5.5-1.6C1361,819.7,1366.7,820.6,1365.7,824.4z"/>
						<path fill="#E3F4E4" d="M1367,818.7c-0.5,3.8-6.1,2.4-5.7-0.9C1361.7,814.7,1367.5,814.8,1367,818.7z"/>
						<path fill="#E3F4E4" d="M1366.7,811c1.7,1.7,0.4,4.9-2.2,4.6c-2.4-0.2-3.7-2.9-1.8-4.6C1363.7,810,1365.6,810,1366.7,811z"/>
						<path fill="#E3F4E4" d="M1366.4,805.5c1.8,1.4,0.9,4.8-1.8,4.8c-2.3,0-4-2.4-2.3-4.4C1363.3,804.8,1365.1,804.5,1366.4,805.5z
							"/>
						<path fill="#E3F4E4" d="M1366.7,801.8c0.5,3.7-5.2,4.2-5.7,0.9C1360.6,799.3,1366.2,798.1,1366.7,801.8z"/>
						<path fill="#E3F4E4" d="M1365.7,796.3c0.8,3.7-4.8,4.6-5.6,1.3C1359.4,794.3,1364.8,792.7,1365.7,796.3z"/>
					</g>
				</g>
			</g>
		</g>
	</g>
</g>
<g>
	<g>
		<defs>
			<circle id="SVGID_179_" cx="1047" cy="740" r="125.6"/>
		</defs>
		<clipPath id="SVGID_5_">
			<use xlink:href="#SVGID_179_"  overflow="visible"/>
		</clipPath>
		<rect x="912" y="605" clip-path="url(#SVGID_5_)" fill="#415A76" width="270" height="270"/>
		<g clip-path="url(#SVGID_5_)">
			<path fill="#25282B" d="M1029,793.8c11.8-4.2,23.6-4.5,35.3-0.2c13.4,4.8,28.8,2.8,28.6-15.9s4.1-66.7,4-66.7
				c-0.1,0-67.7-15.3-96.3-0.8C1000.6,710.1,981.1,810.8,1029,793.8z"/>
			<path fill="#F9DFA9" d="M1065.5,767c-0.6,7.9,0.2,27.2,2.3,57.5h-41.1c1.4-22.5,2.9-47.3,2.3-57.5H1065.5z"/>
			<path fill="#EACE95" d="M1065.5,767c-0.2,10-0.2,17.4,0.6,29c-14.3-2.7-27.6-12.2-37-23.7V767H1065.5z"/>
			<g>
				<path fill="#91786D" d="M1066,788.5V871h-37.6v-82.5C1028.5,801.7,1065.9,801.2,1066,788.5z"/>
				<path fill="#E9AC64" d="M1120.6,875H973.4c0,0,3.6-50.9,8.2-57.3c8-11.1,33.8-19.6,46.8-22.6c0.2,11.2,9.5,38.1,18.8,38.1
					c9.3,0,18.7-26.8,18.9-38.1c0,0,36.7,10.5,46.6,24.2C1117.3,825.8,1120.6,875,1120.6,875z"/>
				<path fill="#DEA360" d="M1120.6,875h-73.4l0-41.8c9.4,0,18.7-26.9,18.9-38.1c0,0,36.7,10.5,46.6,24.2
					C1117.3,825.8,1120.6,875,1120.6,875z"/>
				<path fill="#F9F9F9" d="M1028.4,788.5c4.4,6.6,7.5,9.4,18.8,9.7c-4.3,3.2-6.1,6.8-6.8,15.9c-1.1-0.3-14.4-8-14.4-15.1
					C1026.1,793,1028.4,788.5,1028.4,788.5z"/>
				<path fill="#F9F9F9" d="M1066,788.5c-4.4,6.6-7.5,9.4-18.8,9.7c4.3,3.2,6.1,6.8,6.8,15.9c1.1-0.3,14.4-8,14.4-15.1
					C1068.3,793,1066,788.5,1066,788.5z"/>
			</g>
			<g>
				<path fill="#FFE8B9" d="M1093.8,712.4c0,22.4-29.4,68.3-46.6,68.3c-17.2,0-46.6-43.2-46.6-68.3c0-30.4,20.9-55,46.6-55
					C1073,657.5,1093.8,682.1,1093.8,712.4z"/>
				<path fill="#FFE8B9" d="M1016.5,721.3c0.3,8.4-4.4,15.4-10.4,15.6c-6,0.2-11-10.1-11.2-18.5c-0.3-8.4,4.2-11.8,10.2-12
					C1011.1,706.2,1016.2,712.9,1016.5,721.3z"/>
				<path fill="#FFE8B9" d="M1077.9,721.3c-0.3,8.4,4.4,15.4,10.4,15.6c6,0.2,11-10.1,11.2-18.5c0.3-8.4-4.2-11.8-10.2-12
					C1083.3,706.2,1078.2,712.9,1077.9,721.3z"/>
				<path fill="#F9DFA9" d="M1093.8,712.4c0,22.4-29.4,68.3-46.6,68.3V657.5C1073,657.5,1093.8,682.1,1093.8,712.4z"/>
				<path fill="#373B40" d="M1028.5,684.2c0,0,7.4,16.4,29.7,25.2c7.9,3.1,13.7,4.2,20.1,5.5c9.7,14.6-17.4,74-5,88.6
					c17.7,20.9,44.1,3.5,40.9-17.9c-13.2,7.2-12.5-11.1-8.2-33.1c3.1-16.1,4.4-40.4,1.7-53c-6.9-31.5-33.3-44.7-57.7-46.2
					c-25.2-1.5-50,13.2-58.5,33.2c-10.2,24-4.5,49.3-2.1,65.5c2.8,18-2.8,39-12.7,30.4c-1.2,35,37.8,35.3,44.3,17.3
					c6.2-17-4.8-28.9-8.3-62C1009.7,710.5,1028.5,684.2,1028.5,684.2z"/>
			</g>
		</g>
	</g>
</g>
<g>
	<g>
		<defs>
			<circle id="SVGID_166_" cx="755.1" cy="740" r="125.6"/>
		</defs>
		<clipPath id="SVGID_6_">
			<use xlink:href="#SVGID_166_"  overflow="visible"/>
		</clipPath>
		<rect x="620.1" y="605" clip-path="url(#SVGID_6_)" fill="#8DA28D" width="270" height="270"/>
		<g clip-path="url(#SVGID_6_)">
			<g>
				<rect x="734.6" y="771.9" fill="#F9DFA9" width="41.1" height="52.5"/>
				<path fill="#EACE95" d="M775.7,771.9v24c-16.2-2.7-30.5-10.8-41.1-22.4v-1.6H775.7z"/>
			</g>
			<g>
				<path fill="#FFE8B9" d="M801.8,712.4c0,30.4-20.9,68.3-46.6,68.3s-46.6-37.9-46.6-68.3s13-55,46.6-55
					C788.8,657.4,801.8,682,801.8,712.4z"/>
				<path fill="#FFE8B9" d="M722.7,721.6c0,9.3-4.9,16.8-10.9,16.8s-10.6-11.5-10.6-20.8c0-9.3,4.6-12.8,10.6-12.8
					S722.7,712.3,722.7,721.6z"/>
				<path fill="#F9DFA9" d="M787.6,721.6c0,9.3,4.9,16.8,10.9,16.8s10.6-11.5,10.6-20.8c0-9.3-4.6-12.8-10.6-12.8
					S787.6,712.3,787.6,721.6z"/>
				<path fill="#F9DFA9" d="M801.8,712.4c0,30.4-20.9,68.3-46.6,68.3V657.4C788.8,657.4,801.8,682,801.8,712.4z"/>
				<path fill="#CBD0D3" d="M745.3,684.5c-17.4,4.2-24.3,0-25.4,2.5c-1.1,2.5-0.8,8.1-1.9,10.9c-1.2,2.8-2.2,14-2.2,14h-2.9
					l-0.1-7.1c-4-0.8-5.6,0.8-5.6,0.8s-2.1-9.3-1.7-21.1c0.3-11.8,6.3-27.3,20.5-35.1c12.4-6.9,20.7-6.9,29.2-6.9
					c8.6,0,17,0.1,29.4,7c14.2,7.9,20,23.2,20.3,35c0.3,11.8-1.7,21.1-1.7,21.1s-1.6-1.5-5.6-0.8l-0.1,7.1h-2.9c0,0-1-11.2-2.2-14
					c-1.2-2.8-5.2-6-6.4-8.5c-1.1-2.5-2.6-14.7-2.6-17.5C783.4,669.1,763.5,680.1,745.3,684.5z"/>
				<path fill="#CBD0D3" d="M781.9,776.3c9.5-9.8,15.5-30.8,15.2-38s0.3-26.3,0.3-26.3h-2.9c-5.7,43.8-6,29.5-18.2,45.2
					c-1.3,14.1-18.4,19-18.8,11.8c0.5-1.5,1.5-2.7,2.9-3.4c0.8-1.1,0.9-2.6,0.4-3.9c-11.9,0,1.8,0-11.2,0c-0.5,1.3-0.4,2.7,0.4,3.9
					c1.4,0.7,2.4,1.9,2.9,3.4c-0.4,7.2-14.5,2.8-18.8-11.8c-12.2-15.7-12.4-1.4-18.2-45.2h-2.9c0,0,0.5,19.1,0.3,26.3
					s5.8,28.2,15.2,38C742.7,791.1,767.5,791.2,781.9,776.3z"/>
				<path fill="#BAC1C4" d="M755.1,744.8c-6.5,0.1-11.6,2.7-15.1,7.2c-0.1,1.1,0.3,2.2,1.2,2.8c0,0,2.9-2.6,7-3.6
					c4.1-1,4.6-0.8,6.9-0.7C755.9,747.5,755.1,744.8,755.1,744.8z"/>
				<path fill="#BAC1C4" d="M755.1,744.8c6.5,0.1,11.6,2.7,15.1,7.2c0.1,1.1-0.3,2.2-1.2,2.8c0,0-2.9-2.6-7-3.6s-4.6-0.8-6.9-0.7
					C754.4,747.5,755.1,744.8,755.1,744.8z"/>
			</g>
			<g>
				<path fill="#ECF0F1" d="M775.7,830h-41.1v-41.6c0,13.2,41,12.7,41.1,0V830z"/>
				<path fill="#ECF0F1" d="M840.3,875H670c6-55.3,9.9-57.8,15.9-61.9c15.5-11.1,48.8-18,48.8-18c0.3,22.5,40.8,22.5,41.1,0
					c0,0,42.7,8.9,53.9,22.6C834.8,824.1,840.3,875,840.3,875z"/>
				<polygon fill="#415A76" points="752.6,815.9 745.3,874.9 765.5,875 758.1,815.9 				"/>
				<path fill="#3E5670" d="M770.6,799.4l-12.5,16.5h-5.5l-13-16.5C743.3,799.4,767.3,799.4,770.6,799.4z"/>
				<path fill="#7A716A" d="M841.1,874.8h-172c6-55.3,10.7-58.7,16.7-62.8c15.5-11,48.8-18,48.8-18c0.2,11.2,10.6,59.2,20.8,59.2
					c10.2,0,20.2-48,20.3-59.2c0,0,42.7,8.9,53.9,22.6C834.8,823.1,841.1,874.8,841.1,874.8z"/>
				<path fill="#706862" d="M841.1,874.8h-85.7v-21.5c10.2,0,20.2-48,20.3-59.2c0,0,42.7,8.9,53.9,22.6
					C834.8,823.1,841.1,874.8,841.1,874.8z"/>
				<path fill="#F9F9F9" d="M775.7,787.4c-5.4,7.1-9.3,10.2-20.6,10.5c8.6,5.9,13.2,8.9,18.2,17.8
					C778.4,798.4,775.7,787.4,775.7,787.4z"/>
				<path fill="#F9F9F9" d="M734.6,787.4c5.4,7.1,9.3,10.2,20.6,10.5c-8.6,5.9-13.2,8.9-18.2,17.8
					C731.8,798.4,734.6,787.4,734.6,787.4z"/>
			</g>
		</g>
	</g>
</g>
<g>
	<g>
		<defs>
			<circle id="SVGID_167_" cx="465.1" cy="740" r="125.6"/>
		</defs>
		<clipPath id="SVGID_7_">
			<use xlink:href="#SVGID_167_"  overflow="visible"/>
		</clipPath>
		<rect x="330.1" y="605" clip-path="url(#SVGID_7_)" fill="#7D6B67" width="270" height="270"/>
		<g clip-path="url(#SVGID_7_)">
			<g>
				<rect x="444.6" y="772" fill="#F9DFA9" width="41.1" height="52.5"/>
				<path fill="#EACE95" d="M485.7,772v24c-16.2-2.7-30.5-10.8-41.1-22.4V772H485.7z"/>
			</g>
			<g>
				<path fill="#F9DFA9" d="M550.3,875H380c6-55.3,9.9-57.8,15.9-61.9c11.8-8.4,35.8-15.3,48.8-18c0.3,22.5,40.8,22.5,41.1,0
					c13.9,2.9,44.8,11.4,53.9,22.6C544.8,824.1,550.3,875,550.3,875z"/>
				<path fill="#F0F4F5" d="M523,806.8c-4,22.5-4.5,45.5-4.5,68.2H412.8c0-22.8-1.5-45.8-5.5-68.2c11.2-5,27.2-9.6,37.3-11.7
					c0.3,22.5,40.8,22.5,41.1,0C495.2,797.1,511.3,801.5,523,806.8z"/>
				<path fill="#EBEFF0" d="M523,806.8c-4,22.5-4.5,45.5-4.5,68.2h-53.4v-63c10.2,0,20.4-5.6,20.6-16.9
					C495.2,797.1,511.3,801.5,523,806.8z"/>
				<path fill="#F7FBFC" d="M489.9,796c-0.5,12.1-11.4,21.8-24.8,21.8c-13.3,0-24.2-9.7-24.8-21.8c2.6-0.6,4.2-1,4.2-1
					c0.3,22.5,40.8,22.5,41.1,0C485.7,795.1,487.3,795.4,489.9,796z"/>
			</g>
			<g>
				<path fill="#FFE8B9" d="M511.8,712.4c0,30.4-20.9,68.3-46.6,68.3s-46.6-37.9-46.6-68.3s13-55,46.6-55
					C498.8,657.5,511.8,682.1,511.8,712.4z"/>
				<path fill="#FFE8B9" d="M432.7,721.6c0,9.3-4.9,16.8-10.9,16.8s-10.6-11.5-10.6-20.8s4.6-12.8,10.6-12.8
					S432.7,712.3,432.7,721.6z"/>
				<path fill="#F9DFA9" d="M497.6,721.6c0,9.3,4.9,16.8,10.9,16.8c6,0,10.6-11.5,10.6-20.8s-4.6-12.8-10.6-12.8
					C502.5,704.8,497.6,712.3,497.6,721.6z"/>
				<path fill="#F9DFA9" d="M511.8,712.4c0,30.4-20.9,68.3-46.6,68.3V657.5C498.8,657.5,511.8,682.1,511.8,712.4z"/>
				<path fill="#778289" d="M513.4,649.7v56.1c-7,1.8-3.7,7-6.3,21.3h-4.2c0.3-30-3.3-27-6.9-35.2c-1.1-2.5-1.9-7.7-4.8-10.2
					c-8.7-7.6-25-3.8-26.1-3.8c-8-3.6-22.1-0.3-26,3.8c-2.6,2.7-3.7,7.7-4.8,10.2c-3.6,8.1-7.2,5.2-6.9,35.2h-4.2
					c-2.6-14.2,0.7-19.5-6.3-21.3v-56.1H513.4z"/>
				<path fill="#49535D" d="M465.1,784c27.7,0,23.8-27.5,18.6-36.6c-6.1-10.7-48.7-16.8-39.3,24.9C445.6,777.7,452.3,784,465.1,784
					L465.1,784z"/>
				<path fill="#F9DFA9" d="M471.5,764.2c-0.6,1.6-1.2,3.4,2.2,4.6c8.2,3,12.9-7,8.9-13.8c-5-8.3-30.5-7.2-34.8,0
					c-4,6.7,0.6,16.8,8.9,13.8c3.4-1.2,2.7-3,2.2-4.6C459.1,764.2,471.7,764.2,471.5,764.2z"/>
				<path fill="#6F7A82" d="M513.4,649.7v56.1c-7,1.8-3.7,7-6.3,21.3h-4.2c0.3-30-3.3-27-6.9-35.2c-1.1-2.5-1.9-7.7-4.8-10.2
					c-8.7-7.6-25-3.8-26.1-3.8v-28.2H513.4z"/>
			</g>
		</g>
	</g>
</g>
<g>
	<g>
		<defs>
			<circle id="SVGID_168_" cx="175.1" cy="740" r="125.6"/>
		</defs>
		<clipPath id="SVGID_8_">
			<use xlink:href="#SVGID_168_"  overflow="visible"/>
		</clipPath>
		<rect x="40.1" y="605" clip-path="url(#SVGID_8_)" fill="#415A76" width="270" height="270"/>
		<g clip-path="url(#SVGID_8_)">
			<g>
				<rect x="154.6" y="772" fill="#F9DFA9" width="41.1" height="52.5"/>
				<path fill="#EACE95" d="M195.7,772v24c-16.2-2.7-30.5-10.8-41.1-22.4V772H195.7z"/>
			</g>
			<g>
				<path fill="#F9DFA9" d="M260.3,875H90c6-55.3,9.9-57.8,15.9-61.9c15.5-11.1,48.8-18,48.8-18c0.2,11.2,10.4,24.7,20.6,24.7
					c10.2,0,20.4-13.4,20.6-24.7c0,0,42.7,8.9,53.9,22.6C254.8,824.1,260.3,875,260.3,875z"/>
				<path fill="#65ACC7" d="M237.5,808.6c-4.6,9.2-0.4,37.8-0.8,66.4H113.7c-0.4-28.6,2.4-56.2-2.2-65.4c0.1-0.1-5.9,3.6-5.7,3.5
					c10.3-7.4,30.2-14.1,42.7-17.1c-4.9,4.1,15.5,39,26.7,39.1c9.8,0.1,30.8-32.6,26.9-39.1C211.3,798.2,226.2,802.2,237.5,808.6z"
					/>
				<path fill="#65ACC7" d="M111.4,809.6c-0.9,0.5-5.2,3.2-5.5,3.4C107.6,811.8,109.8,810.5,111.4,809.6z"/>
				<path fill="#65ACC7" d="M236.6,875H113.7c-0.4-28.6,2.4-56.2-2.2-65.5c10.8-5.9,25.7-10.9,37-13.6c-4.9,4,15.5,39,26.7,39.1
					c9.8,0.1,30.8-32.5,26.8-39.1c11.6,2.8,25.2,6.8,35.4,12.6C232.9,817.9,237,846.5,236.6,875z"/>
				<path fill="#6CB9D6" d="M206.4,797.1c-1.2,24.4-24.5,43.9-31.2,43.9c-6.7,0-30-19.5-31.2-43.9c1.7-0.5,3.2-0.8,4.5-1.2
					c-4.9,4,15.5,39,26.7,39.1c9.8,0.1,30.8-32.5,26.8-39.1C203.4,796.3,204.8,796.7,206.4,797.1z"/>
			</g>
			<g>
				<path fill="#FFE8B9" d="M221.8,712.4c0,30.4-20.9,68.3-46.6,68.3s-46.6-37.9-46.6-68.3s13-55,46.6-55
					C208.8,657.5,221.8,682.1,221.8,712.4z"/>
				<path fill="#FFE8B9" d="M142.7,721.6c0,9.3-4.9,16.8-10.9,16.8c-6,0-10.6-11.5-10.6-20.8s4.6-12.8,10.6-12.8
					C137.8,704.8,142.7,712.3,142.7,721.6z"/>
				<path fill="#F9DFA9" d="M207.6,721.6c0,9.3,4.9,16.8,10.9,16.8c6,0,10.6-11.5,10.6-20.8s-4.6-12.8-10.6-12.8
					C212.5,704.8,207.6,712.3,207.6,721.6z"/>
				<path fill="#F9DFA9" d="M221.8,712.4c0,30.4-20.9,68.3-46.6,68.3V657.5C208.8,657.5,221.8,682.1,221.8,712.4z"/>
				<path fill="#7A716A" d="M206,681.2c0,2.8-1.1,5.8,0,8.3c1.1,2.5,5.2,5.7,6.4,8.5c1.2,2.8,2.2,14,2.2,14h2.9l0.1-7.1
					c4-0.8,5.6,0.8,5.6,0.8s2.1-9.3,1.7-21.1c-0.3-11.8-6.3-27.3-20.5-35.1c-12.4-6.9-20.7-6.9-29.2-6.9s-17,0.1-29.4,7
					c-14.2,7.9-20,23.2-20.3,35s1.7,21.1,1.7,21.1s1.6-1.5,5.6-0.8l0.1,7.1h2.9c2.1-23.4,3-7.2,12.7-43.1
					c7.1-4.9,12.6,10.4,30.6,11.6C197.1,681.7,206,678.3,206,681.2z"/>
				<path fill="#6E6660" d="M188,745.3c2.9,3,4.8,6.9,5.5,11c-8.6-0.2-8.3-1.1-10.6-2.1c-1.7-0.8-10.4-2.4-17.2,0.7
					c-1.4,0.6-4.2,1.3-9.5,1.4c1.6-9.2,9.3-17.6,18.6-15.1C176,741.2,182.1,739,188,745.3z"/>
				<path fill="#49535D" d="M202.2,706h-18.7c-3.7,0-6.3,3.7-5,7.2l4.2,11.4c0.8,2.2,3.1,3.7,5.5,3.4l14.2-1.5
					c2.7-0.3,4.7-2.5,4.8-5.2l0.2-9.9C207.6,708.5,205.2,706,202.2,706z M205.5,721.4c0,1.7-1.4,3.2-3.1,3.4l-14.2,1.5
					c-1.6,0.2-3-0.8-3.6-2.2l-4.2-11.4c-0.8-2.3,0.8-4.7,3.2-4.7h18.7c1.9,0,3.5,1.6,3.4,3.5L205.5,721.4z"/>
				<path fill="#49535D" d="M142.9,721.4c0.1,2.7,2.1,4.9,4.8,5.2c0.5,0,14.3,1.5,14.8,1.5c2.2,0,4.2-1.4,5-3.5
					c4.3-11.7,5.7-13.4,3.6-16.3c-1-1.4-2.6-2.3-4.4-2.3c-20.1,0-20.4-0.5-22.5,1.6C142.2,709.7,142.7,711,142.9,721.4z
					 M144.6,711.4c0-1.9,1.5-3.5,3.4-3.5h18.7c2.4,0,4.1,2.4,3.2,4.7l-4.2,11.4c-0.5,1.5-2,2.4-3.6,2.2l-14.2-1.5
					c-1.7-0.2-3.1-1.6-3.1-3.4L144.6,711.4z"/>
			</g>
		</g>
	</g>
</g>
<g>
	<g>
		<defs>
			<circle id="SVGID_2_" cx="1627" cy="450" r="125.6"/>
		</defs>
		<clipPath id="SVGID_9_">
			<use xlink:href="#SVGID_2_"  overflow="visible"/>
		</clipPath>
		<rect x="1492" y="315" clip-path="url(#SVGID_9_)" fill="#7E817A" width="270" height="270"/>
		<g clip-path="url(#SVGID_9_)">
			<g>
				<path fill="#F9DFA9" d="M1644.7,477c-0.6,7.9,0.2,27.2,2.3,57.5h-41.1c1.4-22.5,2.9-47.3,2.3-57.5H1644.7z"/>
				<path fill="#EACE95" d="M1644.7,477c-0.2,10-0.2,17.4,0.6,29c-14.3-2.7-27.6-12.2-37-23.7V477H1644.7z"/>
			</g>
			<g>
				<path fill="#635C57" d="M1571.4,437.9c-0.3,9.3-4.8,16.5-11.8,13.7c-0.4,8.8,16.6,11.9,20.2,5.8c2.7,6.1-2.6,11.6-8.6,12.4
					c4.7,4.9,13.4,3.5,19.6,1.1c-0.7,3.8-1.3,8.4-6.4,9.1c5,4.3,17.3,3.4,24.3-1.1c2.7-1.7,5.2-6.2,8.4-6.1
					c7.3,0.1,14.7,1.3,21.6,3.6c5.9,9.4,19.6,10,24.5,4.9c-4.2-1.3-7.3-5.6-7.1-10c10,5.1,21,1.3,22.1-5.7c-8,1.9-12.7-2.3-14.7-7.9
					c9.9,4.7,19.6,1.7,25.2-8c-9.8,0.2-13.3-9.8-10.7-21.5c-26-7.8-64.1-2.3-90.6,3.6C1582.9,432.8,1571.5,433.2,1571.4,437.9z"/>
				<g>
					<path fill="#FFE8B9" d="M1673.1,422.4c0,24.2-32.1,70.4-46.8,68.2c-17.2-0.3-46.4-43.3-46.4-68.2c0-33,13.7-55,46.6-55
						C1661.4,367.5,1673.1,392.1,1673.1,422.4z"/>
					<path fill="#FFE8B9" d="M1595.7,431.3c0.3,8.4-4.4,15.4-10.4,15.6c-6,0.2-11-10.1-11.2-18.5c-0.3-8.4,4.2-11.8,10.2-12
						S1595.4,422.9,1595.7,431.3z"/>
					<path fill="#F9DFA9" d="M1657.2,431.3c-0.3,8.4,4.4,15.4,10.4,15.6c6,0.2,11-10.1,11.2-18.5c0.3-8.4-4.2-11.8-10.2-12
						C1662.6,416.2,1657.4,422.9,1657.2,431.3z"/>
					<path fill="#F9DFA9" d="M1673.1,422.4c0,24.2-32.1,70.4-46.8,68.2V367.5C1659.3,367.5,1673.1,389.3,1673.1,422.4z"/>
				</g>
				<path fill="#69615C" d="M1626.6,362.5c-5.8-14.9-36.5-14.4-52.9,5.2c-8,9.5-11.6,22.4-9.8,34.6c0.9,6.1,4.4,16-1.3,22.2
					c-2.6,2.8-7.4,3.9-10.4,1.5c-0.3-1-0.6-2-0.9-3c-3.1,3.8-0.4,19.8,16.7,19.7c6,0,18.8-1.4,24.6-10.2c5.4-8.2-0.3-19-0.1-28.8
					c0.4-17.4,19.2-28.4,34.5-20.1c3.2-7.4,22.1-10.1,26.2,10.8c2.1,11-1.1,25.4,7.3,34.5c4.4,4.8,11.7,6.6,17.8,4.6
					s10.9-7.9,11.6-14.3c-3,1.6-7.2-0.2-9.2-3c-6.2-8.7,1.7-27.5-1.9-42c-2.6-10.5-11.3-19.2-21.8-21.7
					C1646.8,350.1,1633.7,354.3,1626.6,362.5z"/>
			</g>
			<g>
				<path fill="#E5EBEC" d="M1645.2,498.5V581h-37.6v-82.5c0,5.5,5.4,10,9.3,10c1.6,0.3,7.9,23.1,9.5,23c1.4,0,8.1-22.7,9.5-23
					C1640.3,507.1,1645.2,503.8,1645.2,498.5z"/>
				<path fill="#56626B" d="M1699.8,585h-147.2c0,0,3.6-50.9,8.2-57.3c8-11.1,33.8-19.6,46.8-22.6c0.2,11.1,9.3,74.2,18.6,74.2
					c9.3,0,18.9-62.9,19.1-74.2c0,0,36.7,10.5,46.6,24.2C1696.5,535.8,1699.8,585,1699.8,585z"/>
				<path fill="#4C575E" d="M1699.8,585h-73.4l-0.2-5.8c9.4,0,18.9-63.1,19.1-74.2c0,0,36.7,10.5,46.6,24.2
					C1696.5,535.8,1699.8,585,1699.8,585z"/>
				<path fill="#778289" d="M1607.9,496.8c-11.7,9.9-15.3,13.9-12,32.2h10.5l-9.9,8.1c4.9,18.7,15.2,31.6,29.9,45.6l0-4.2
					C1615.2,556.7,1611.8,523.1,1607.9,496.8z"/>
				<path fill="#778289" d="M1644.9,496.8c12.5,11.4,16.1,13.3,12,32.2h-10.5l9.9,8.1c-5.9,18.7-15.6,34.2-30,45.6l0-4.2
					C1637.5,556.7,1641,523.1,1644.9,496.8z"/>
				<path fill="#F9F9F9" d="M1607.6,494.6c2.4,8.6,3.6,10.5,9.3,13.9c-6.9,2.8-7.2,8.4-14.8,13.9
					C1601.1,509.5,1603,503.1,1607.6,494.6z"/>
				<path fill="#F9F9F9" d="M1645.2,494.6c-2.4,8.6-3.6,10.5-9.3,13.9c6.9,2.8,7.2,8.4,14.8,13.9
					C1651.7,509.5,1649.8,503.1,1645.2,494.6z"/>
			</g>
		</g>
	</g>
</g>
<g>
	<g>
		<defs>
			<circle id="SVGID_177_" cx="1337" cy="450" r="125.6"/>
		</defs>
		<clipPath id="SVGID_10_">
			<use xlink:href="#SVGID_177_"  overflow="visible"/>
		</clipPath>
		<rect x="1202" y="315" clip-path="url(#SVGID_10_)" fill="#56626B" width="270" height="270"/>
		<g clip-path="url(#SVGID_10_)">
			<ellipse fill="#8C7369" cx="1338" cy="468.4" rx="56.9" ry="28.2"/>
			<g>
				<path fill="#F9DFA9" d="M1355.5,477c-0.6,7.9,0.2,27.2,2.3,57.5h-41.1c1.4-22.5,2.9-47.3,2.3-57.5H1355.5z"/>
				<path fill="#EACE95" d="M1355.5,477c-0.2,10-0.2,17.4,0.6,29c-14.3-2.7-27.6-12.2-37-23.7V477H1355.5z"/>
			</g>
			<g>
				<g>
					<path fill="#FFE8B9" d="M1383.8,422.4c0,24.2-32.1,70.4-46.8,68.2c-17.2-0.3-46.4-43.3-46.4-68.2c0-33,13.7-55,46.6-55
						C1372.1,367.5,1383.8,392.1,1383.8,422.4z"/>
					<path fill="#FFE8B9" d="M1306.5,431.3c0.3,8.4-4.4,15.4-10.4,15.6c-6,0.2-11-10.1-11.2-18.5s4.2-11.8,10.2-12
						C1301.1,416.2,1306.2,422.9,1306.5,431.3z"/>
					<path fill="#F9DFA9" d="M1367.9,431.3c-0.3,8.4,4.4,15.4,10.4,15.6c6,0.2,11-10.1,11.2-18.5s-4.2-11.8-10.2-12
						C1373.3,416.2,1368.2,422.9,1367.9,431.3z"/>
					<path fill="#F9DFA9" d="M1383.8,422.4c0,24.2-32.1,70.4-46.8,68.2V367.5C1370.1,367.5,1383.8,389.3,1383.8,422.4z"/>
				</g>
				<path fill="#AD8E83" d="M1318.9,389.5c10.1,24.2,40.3,22.3,51.1,27.3c6.8,20.4,1.8,55.4-7.5,76.7c10-0.8,23.3-2.9,34.3-13.8
					c17.7-32.8,8.8-76.7,0-93c-15.8-29.1-65.2-49.9-81.4-21.6c-13.2-8.6-28.5,7.2-35.8,18.4c-9.3,14.1-23,68.8,2.5,98.1
					c5,4.2,20.2,10.9,30.4,11.9C1298.9,473.4,1288.8,423.6,1318.9,389.5z"/>
				<g>
					
						<rect x="1373.1" y="395.7" transform="matrix(0.9187 0.395 -0.395 0.9187 272.4932 -509.6389)" fill="#49535D" width="1.8" height="22.7"/>
					<g>
						<path fill="#DEE0E3" d="M1380.7,404.7c-1.1,1.1-5.6,3.9-6.7,2.8c-1.1-1.1,1.8-5.6,2.8-6.7
							C1379.4,398.3,1383.3,402.1,1380.7,404.7z"/>
						<path fill="#DEE0E3" d="M1376.9,414.2c-1.1-1.1-3.9-5.6-2.8-6.7c1.1-1.1,5.6,1.8,6.7,2.8
							C1383.3,412.9,1379.4,416.7,1376.9,414.2z"/>
						<path fill="#DEE0E3" d="M1367.4,410.3c1.1-1.1,5.6-3.9,6.7-2.8c1.1,1.1-1.8,5.6-2.8,6.7
							C1368.7,416.7,1364.9,412.9,1367.4,410.3z"/>
						<path fill="#DEE0E3" d="M1371.2,400.8c1.1,1.1,3.9,5.6,2.8,6.7c-1.1,1.1-5.6-1.8-6.7-2.8
							C1364.9,402.1,1368.7,398.3,1371.2,400.8z"/>
						<path fill="#ECEEF1" d="M1376.8,400.8c0,1.5-1.2,6.7-2.7,6.7c-1.5,0-2.7-5.2-2.7-6.7C1371.4,397.2,1376.8,397.2,1376.8,400.8z
							"/>
						<path fill="#ECEEF1" d="M1380.8,410.2c-1.5,0-6.7-1.2-6.7-2.7s5.2-2.7,6.7-2.7C1384.4,404.8,1384.4,410.2,1380.8,410.2z"/>
						<path fill="#ECEEF1" d="M1371.4,414.2c0-1.5,1.2-6.7,2.7-6.7c1.5,0,2.7,5.2,2.7,6.7C1376.8,417.8,1371.4,417.8,1371.4,414.2z"
							/>
						<path fill="#ECEEF1" d="M1367.3,404.8c1.5,0,6.7,1.2,6.7,2.7s-5.2,2.7-6.7,2.7C1363.7,410.2,1363.7,404.8,1367.3,404.8z"/>
						<path fill="#FAD470" d="M1374.1,410.2c-3.6,0-3.6-5.4,0-5.4C1377.6,404.8,1377.6,410.2,1374.1,410.2z"/>
					</g>
				</g>
			</g>
			<g>
				<path fill="#F9DFA9" d="M1410.6,585h-147.2c0,0,3.6-50.9,8.2-57.3c8-11.1,33.8-19.6,46.8-22.6c4.9,10.9,21.4,10,19,10
					c0,0,15.5-1.5,18.7-10c0,0,36.7,10.5,46.6,24.2C1407.3,535.8,1410.6,585,1410.6,585z"/>
				<path fill="#DB766C" d="M1394.9,522.2c-3.5,15-5.7,37.6-5.7,62.8h-104.4c0-25.9-2.3-49.1-6-64c10.4-7.2,28-13.3,39.6-15.9
					c5,11.1,22.1,10,19,10c0,0,15.5-1.5,18.7-10C1366.8,508.2,1384.5,514.9,1394.9,522.2z"/>
				<path fill="#D6736A" d="M1394.9,522.2c-3.5,15-5.7,37.6-5.7,62.8h-52.4v-69.9c0.7,0,1,0,0.5,0c0,0,15.5-1.5,18.7-10
					C1356.1,505.1,1380.6,512.1,1394.9,522.2z"/>
				<path fill="#EB7E72" d="M1358.8,505.9c-1.2,7.7-10.5,13.7-21.8,13.7c-11.4,0-20.7-6-21.8-13.8c1.1-0.3,2.2-0.5,3.2-0.8
					c5,11.1,22.1,10,19,10c0,0,15.5-1.5,18.7-10C1356.1,505.1,1357.1,505.4,1358.8,505.9z"/>
			</g>
		</g>
	</g>
</g>
<g>
	<g>
		<defs>
			<circle id="SVGID_180_" cx="1047" cy="450" r="125.6"/>
		</defs>
		<clipPath id="SVGID_11_">
			<use xlink:href="#SVGID_180_"  overflow="visible"/>
		</clipPath>
		<rect x="912" y="315" clip-path="url(#SVGID_11_)" fill="#7E817A" width="270" height="270"/>
		<g clip-path="url(#SVGID_11_)">
			<g>
				<path fill="#F9DFA9" d="M1065.5,478.8c-0.6,7.9,0.2,27.2,2.3,57.5h-41.1c1.4-22.5,2.9-47.3,2.3-57.5H1065.5z"/>
				<path fill="#EACE95" d="M1065.5,478.8c-0.2,10-0.2,17.4,0.6,29c-14.3-2.7-27.6-12.2-37-23.7v-5.3H1065.5z"/>
			</g>
			<g>
				<g>
					<path fill="#FFE8B9" d="M1093.8,424.3c0,24.2-32.1,70.4-46.8,68.2c-17.2-0.3-46.4-43.3-46.4-68.2c0-33,13.7-55,46.6-55
						C1082.1,369.3,1093.8,393.9,1093.8,424.3z"/>
					<path fill="#FFE8B9" d="M1016.5,433.2c0.3,8.4-4.4,15.4-10.4,15.6c-6,0.2-11-10.1-11.2-18.5c-0.3-8.4,4.2-11.8,10.2-12
						C1011.1,418.1,1016.2,424.7,1016.5,433.2z"/>
					<path fill="#F9DFA9" d="M1077.9,433.2c-0.3,8.4,4.4,15.4,10.4,15.6s11-10.1,11.2-18.5c0.3-8.4-4.2-11.8-10.2-12
						C1083.3,418.1,1078.2,424.7,1077.9,433.2z"/>
					<path fill="#F9DFA9" d="M1093.8,424.3c0,24.2-32.1,70.4-46.8,68.2V369.3C1080.1,369.3,1093.8,391.2,1093.8,424.3z"/>
				</g>
				<path fill="#7D655D" d="M1093.6,419.5c-2.2,4.6-3.4,9.7-3.6,14.8c-2,0.2-0.9,0-2.9,0.2c0-4.1,0.2-8.2,0.2-12.3
					c-2.2,0.6-7.5,0.1-11.1-1.1c1.7-2.2,3.3-4,3.5-6.8c-2,2.7-8.5,4.4-11.9,3.9c3.9-1.9,5.1-5.8,6.2-8.6
					c-5.8,4.4-12.4,7.8-19.3,10.1c2.7-4.3,5.6-8.6,8.3-12.9c-9.8,9.4-22.3,16.2-35.4,20.1c6.1-3.5,11.3-8.1,15.8-13.6
					c-3.8,1.9-7.6,3.8-11.4,5.7c3.4-3.9,6.8-7.9,10.3-11.8c-6.3,4.1-12.6,8.2-19,12.4c2.5-4.5,5.1-9,7.6-13.6
					c-3.7,6.9-9.6,12.7-16.7,16c1.2-2.6,2.5-5,3.7-7.5c-5.4,4.3-9.5,10.4-11.8,17c-1.1,0.1-1,0.1-2.1,0.3c0.1-4-0.9-7.9-0.8-11.9
					c-0.9-0.4-3.2-1-5.3,0.8c-5.7-13.3-4.3-31.2,3.9-43.1c23-33.6,83.1-33.5,99.2,6.6c4.7,11.8,3,26.9-3.6,37.7
					C1095.7,419.5,1094.5,419.5,1093.6,419.5z"/>
			</g>
			<g>
				<path fill="#FFB8AD" d="M1120.6,585H973.4c0,0,3.6-50.9,8.2-57.3c8-11.1,33.8-19.6,46.8-22.6c0-0.4,0.1-6.6,0.1-6.6
					c0,5.5,5.4,10,9.3,10c1.6,0.3,7.9,23,9.5,23c1.4,0,8.1-22.8,9.4-23c4.4-1.4,9.3-4.7,9.3-10l0.1,6.6c0,0,36.7,10.5,46.6,24.2
					C1117.3,535.8,1120.6,585,1120.6,585z"/>
				<path fill="#F7B2A8" d="M1120.6,585h-73.4v-53.5c1.4,0,8.1-22.8,9.4-23c4.4-1.4,9.3-4.7,9.3-10l0.1,6.6c0,0,36.7,10.5,46.6,24.2
					C1117.3,535.8,1120.6,585,1120.6,585z"/>
				<path fill="#A99E98" d="M1120.6,585H973.4c0,0,3.6-50.9,8.2-57.3c8-11.1,33.8-19.6,46.8-22.6c0.2,11.1,9.3,74.2,18.6,74.2
					c9.3,0,18.9-62.9,19.1-74.2c0,0,36.7,10.5,46.6,24.2C1117.3,535.8,1120.6,585,1120.6,585z"/>
				<path fill="#998F89" d="M1120.6,585h-73.4l-0.2-5.8c9.4,0,18.9-63.1,19.1-74.2c0,0,36.7,10.5,46.6,24.2
					C1117.3,535.8,1120.6,585,1120.6,585z"/>
				<path fill="#FFC5BD" d="M1065.5,494.6c-2.4,8.6-3.6,10.5-9.3,13.9c-1,10.2,13,25.2,14.8,13.9
					C1073,509.4,1070.1,503.1,1065.5,494.6z"/>
				<path fill="#FFC5BD" d="M1028.9,494.6c2.4,8.6,3.6,10.5,9.3,13.9c1,10.2-13,25.2-14.8,13.9
					C1021.4,509.4,1024.3,503.1,1028.9,494.6z"/>
			</g>
		</g>
	</g>
</g>
<g>
	<g>
		<defs>
			<circle id="SVGID_169_" cx="753.7" cy="450" r="125.6"/>
		</defs>
		<clipPath id="SVGID_12_">
			<use xlink:href="#SVGID_169_"  overflow="visible"/>
		</clipPath>
		<rect x="618.7" y="315" clip-path="url(#SVGID_12_)" fill="#7E817A" width="270" height="270"/>
		<g clip-path="url(#SVGID_12_)">
			<g>
				<rect x="733.1" y="482" fill="#F9DFA9" width="41.1" height="52.5"/>
				<path fill="#EACE95" d="M774.2,482v24c-16.2-2.7-30.5-10.8-41.1-22.4V482H774.2z"/>
			</g>
			<g>
				<path fill="#ECF0F1" d="M774.2,540.1h-41.1v-41.6c0,13.2,41,12.7,41.1,0V540.1z"/>
				<path fill="#ECF0F1" d="M838.8,585H668.5c6-55.3,9.9-57.8,15.9-61.9c15.5-11.1,48.8-18,48.8-18c0.3,22.5,40.8,22.5,41.1,0
					c0,0,42.7,8.9,53.9,22.6C833.3,534.1,838.8,585,838.8,585z"/>
				<path fill="#D16A62" d="M823.5,523.4c-4.6,9.2-7.9,33-8.3,61.6H692.2c-0.4-28.6-3.8-52.4-8.4-61.6c11.3-8.3,35.4-15.4,49.2-18.3
					c0.2,11.2,10.4,47.6,20.6,47.6c10.2,0,20.4-36.3,20.6-47.6C786.2,507.6,811.3,514.5,823.5,523.4z"/>
				<path fill="#E6EAEB" d="M838.8,585h-85.2v-76.3c10.2,0,10.2,0,20.6-3.6c0,0,42.7,8.9,53.9,22.6C833.3,534.1,838.8,585,838.8,585
					z"/>
				<path fill="#BF534C" d="M697.7,585h-5.5c-0.4-28.6-3.8-52.4-8.4-61.6c1.4-1.1,3.2-2.2,4.8-3.1C696,533.5,698.2,570.3,697.7,585z
					"/>
				<path fill="#C85F57" d="M823.5,523.4c-4.6,9.2-7.9,33-8.3,61.6h-61.5v-32.3c10.2,0,20.4-36.3,20.6-47.6
					C786.2,507.6,811.3,514.5,823.5,523.4z"/>
				<path fill="#B85049" d="M809.6,585h5.5c0.4-28.6,3.8-52.4,8.4-61.6c-1.4-1.1-3.2-2.2-4.8-3.1C811.3,533.5,809.1,570.3,809.6,585
					z"/>
				<path fill="#BF534C" d="M778,506c-1,28.7-11.5,51.3-24.4,51.3c-12.8,0-23.4-22.6-24.4-51.3c2.4-0.6,3.8-0.9,3.8-0.9
					c0.2,11.2,10.4,47.6,20.6,47.6c10.2,0,20.4-36.3,20.6-47.6C774.2,505.1,775.7,505.4,778,506z"/>
				<path fill="#F9F9F9" d="M774.2,497.5c-5.4,7.1-9.3,10.2-20.6,10.5c8.6,5.9,13.2,8.9,18.2,17.8
					C777,508.4,774.2,497.5,774.2,497.5z"/>
				<path fill="#F9F9F9" d="M733.1,497.5c5.4,7.1,9.3,10.2,20.6,10.5c-8.6,5.9-13.2,8.9-18.2,17.8
					C730.4,508.4,733.1,497.5,733.1,497.5z"/>
			</g>
			<g>
				<path fill="#FFE8B9" d="M800.3,422.4c0,30.4-20.9,68.3-46.6,68.3S707,452.8,707,422.4s13-55,46.6-55
					C787.3,367.5,800.3,392.1,800.3,422.4z"/>
				<path fill="#FFE8B9" d="M721.2,431.6c0,9.3-4.9,16.8-10.9,16.8s-10.6-11.5-10.6-20.8c0-9.3,4.6-12.8,10.6-12.8
					S721.2,422.3,721.2,431.6z"/>
				<path fill="#F9DFA9" d="M786.1,431.6c0,9.3,4.9,16.8,10.9,16.8s10.6-11.5,10.6-20.8c0-9.3-4.6-12.8-10.6-12.8
					S786.1,422.3,786.1,431.6z"/>
				<path fill="#F9DFA9" d="M800.3,422.4c0,30.4-20.9,68.3-46.6,68.3V367.5C787.3,367.5,800.3,392.1,800.3,422.4z"/>
				<path fill="#6E5748" d="M793,433.8h3c-0.5,9-0.3,9.8,0,14.6c-0.5,11.9-3,26.6-6.8,33.6c-8.8,16.3-21.9,21.5-35.5,21.5
					c-13.7,0-26.7-5.2-35.5-21.5c-3.8-6.9-6.3-21.7-6.8-33.6c0.3-4.9,0.5-5.6,0-14.6h3c5.8,27.6,14.2,42.6,39.2,42.8
					C779.7,476.5,787.5,459.6,793,433.8z"/>
				<path fill="#6E5748" d="M784.5,391.2c0,2.8-1.1,5.8,0,8.3c1.1,2.5,5.2,5.7,6.4,8.5s2.2,14,2.2,14h2.9l0.1-7.1
					c4-0.8,5.6,0.8,5.6,0.8s2.1-9.3,1.7-21.1s-6.3-27.3-20.5-35.1c-12.4-6.9-20.7-6.9-29.2-6.9c-8.6,0-17,0.1-29.4,7
					c-14.2,7.9-20,23.2-20.3,35c-0.3,11.8,1.7,21.1,1.7,21.1s1.6-1.5,5.6-0.8l0.1,7.1h2.9c0,0,1-11.2,2.2-14c1.2-2.8,5.2-6,6.4-8.5
					c1.1-2.5,0-5.5,0-8.3c0-2.8,18.3-5,30.8-5C766.2,386.2,784.5,388.3,784.5,391.2z"/>
			</g>
		</g>
	</g>
</g>
<g>
	<g>
		<defs>
			<circle id="SVGID_170_" cx="465.1" cy="450" r="125.6"/>
		</defs>
		<clipPath id="SVGID_13_">
			<use xlink:href="#SVGID_170_"  overflow="visible"/>
		</clipPath>
		<rect x="330.1" y="315" clip-path="url(#SVGID_13_)" fill="#56626B" width="270" height="270"/>
		<g clip-path="url(#SVGID_13_)">
			<g>
				<rect x="444.6" y="482" fill="#F9DFA9" width="41.1" height="52.5"/>
				<path fill="#EACE95" d="M485.7,482v24c-16.2-2.7-30.5-10.8-41.1-22.4V482H485.7z"/>
			</g>
			<g>
				<path fill="#FFE8B9" d="M512.6,422.4c0,30.4-20.9,68.3-46.6,68.3s-46.6-37.9-46.6-68.3s13-55,46.6-55
					C499.6,367.5,512.6,392.1,512.6,422.4z"/>
				<path fill="#FFE8B9" d="M432.7,431.6c0,9.3-4.9,16.8-10.9,16.8s-10.6-11.5-10.6-20.8c0-9.3,4.6-12.8,10.6-12.8
					S432.7,422.3,432.7,431.6z"/>
				<path fill="#F9DFA9" d="M497.6,431.6c0,9.3,4.9,16.8,10.9,16.8c6,0,10.6-11.5,10.6-20.8c0-9.3-4.6-12.8-10.6-12.8
					C502.5,414.8,497.6,422.3,497.6,431.6z"/>
				<path fill="#F9DFA9" d="M512.8,422.4c0,30.4-20.9,68.3-46.6,68.3V367.5C499.8,367.5,512.8,392.1,512.8,422.4z"/>
				<path fill="#A38A85" d="M479.5,377c-14.8-18.3-48-2.7-48.1,14c0,3.9-2.2,14.1-3.4,17c-1.2,2.8-2.2,14-2.2,14h-2.9l-0.1-7.1
					c-4-0.8-5.6,0.8-5.6,0.8c-11.1-23.2-6.7-53.4,9.4-65.8c20.9-16,53.9-12.2,59.1,6.2c26.1-15.7,41.5,19.1,35.4,40.5
					c-3.2,11.4-8,19.1-8,19.1s-1.6-1.5-5.6-0.8l-0.1,7.1h-2.9c0,0-1-11.2-2.2-14s-1.4-11.1-1.2-16.6
					C501.5,382.3,492.1,372.7,479.5,377z"/>
				<path fill="#8A7571" d="M464.8,455c0.8-1.1,0.3-7-0.6-7.4c-6.8-3.4-10,5.9-18.5,3.7c-6.3-1.6-2.6-6.7-0.8-4.5
					c-0.4-3.8-7.5-2.4-7.9,3.5C436.4,461.7,460.7,460.6,464.8,455z"/>
				<path fill="#8A7571" d="M467.5,455c-0.8-1.1-0.3-7,0.6-7.4c6.8-3.4,10,5.9,18.5,3.7c6.3-1.6,2.6-6.7,0.8-4.5
					c0.4-3.8,7.5-2.4,7.9,3.5C495.9,461.7,471.6,460.6,467.5,455z"/>
				<polygon fill="#8A7571" points="467.3,482 465,482 460.5,467.8 471.8,467.8 				"/>
				<path fill="#49535D" d="M493.2,412.8h-19.7c-2.5,0-4.4,2.3-3.9,4.8l2.4,11.6c0.4,1.9,2,3.2,3.9,3.2h16.5c2.1,0,3.9-1.6,4-3.7
					l0.8-11.6C497.4,414.8,495.5,412.8,493.2,412.8z M494.4,428.5c-0.1,1-0.9,1.9-2,1.9H476c-0.9,0-1.8-0.7-2-1.6
					c-2.6-12.4-2.9-12.3-2-13.3c0.4-0.5,0.9-0.7,1.6-0.7c20.6,0,20.2-0.4,21.2,0.6C495.6,416.4,495.2,417,494.4,428.5z"/>
				<path fill="#49535D" d="M435.1,417.1l0.8,11.6c0.1,2.1,1.9,3.7,4,3.7h16.5c1.9,0,3.5-1.3,3.9-3.2l2.4-11.6
					c0.5-2.5-1.4-4.8-3.9-4.8h-19.7C436.7,412.8,434.9,414.8,435.1,417.1z M437.6,415.4c0.9-1,0.6-0.6,21.2-0.6c1.3,0,2.2,1.2,2,2.4
					l-2.4,11.6c-0.2,0.9-1,1.6-2,1.6h-16.5c-1,0-1.9-0.8-2-1.9C437.1,417,436.7,416.4,437.6,415.4z"/>
			</g>
			<g>
				<path fill="#ECF0F1" d="M485.7,540.1h-41.1v-41.6c0,13.2,41,12.7,41.1,0V540.1z"/>
				<path fill="#ECF0F1" d="M550.3,585H380c6-55.3,9.9-57.8,15.9-61.9c15.5-11.1,48.8-18,48.8-18c0.3,22.5,40.8,22.5,41.1,0
					c0,0,42.7,8.9,53.9,22.6C544.8,534.1,550.3,585,550.3,585z"/>
				<path fill="#808833" d="M551.1,584.8h-172c6-55.3,10.7-58.7,16.7-62.8c15.5-11,48.8-18,48.8-18c0.2,11.2,10.6,59.2,20.8,59.2
					c10.2,0,20.2-48,20.3-59.2c0,0,42.7,8.9,53.9,22.6C544.8,533.1,551.1,584.8,551.1,584.8z"/>
				<path fill="#7A8231" d="M551.1,584.8h-85.7v-21.5c10.2,0,20.2-48,20.3-59.2c0,0,42.7,8.9,53.9,22.6
					C544.8,533.1,551.1,584.8,551.1,584.8z"/>
				<path fill="#F9F9F9" d="M485.7,494c-3.5,10.1-9.3,13.7-20.6,14c8.6,5.9,15.6,17.6,20.6,26.5C490.9,517.1,485.7,494,485.7,494z"
					/>
				<path fill="#F9F9F9" d="M444.6,492.8c1.3,9.2,9.3,14.8,20.5,15.1c-8.6,5.9-15.6,17.6-20.6,26.5
					C439.4,517.1,444.6,492.8,444.6,492.8z"/>
				<path fill="#CBD0D3" d="M465.1,518.4c-3.2,0-3.2-4.8,0-4.8C468.3,513.5,468.3,518.4,465.1,518.4z"/>
				<path fill="#CBD0D3" d="M465.1,536.9c-3.2,0-3.2-4.8,0-4.8C468.3,532,468.3,536.9,465.1,536.9z"/>
				<path fill="#CBD0D3" d="M467.6,553c0,3.2-4.8,3.2-4.8,0C462.7,549.8,467.6,549.8,467.6,553z"/>
			</g>
		</g>
	</g>
</g>
<g>
	<g>
		<defs>
			<circle id="SVGID_171_" cx="175.1" cy="450" r="125.6"/>
		</defs>
		<clipPath id="SVGID_14_">
			<use xlink:href="#SVGID_171_"  overflow="visible"/>
		</clipPath>
		<rect x="40.1" y="315" clip-path="url(#SVGID_14_)" fill="#7E817A" width="270" height="270"/>
		<g clip-path="url(#SVGID_14_)">
			<g>
				<rect x="154.6" y="481.9" fill="#F9DFA9" width="41.1" height="52.5"/>
				<path fill="#EACE95" d="M195.7,481.9v24c-16.2-2.7-30.5-10.8-41.1-22.4v-1.6H195.7z"/>
			</g>
			<g>
				<path fill="#ECF0F1" d="M195.7,540h-41.1v-41.6c0,13.2,41,12.7,41.1,0V540z"/>
				<path fill="#F2F6F7" d="M260.3,585H89.9c6-55.3,9.9-57.8,15.9-61.9c15.5-11.1,48.8-18,48.8-18c0.3,22.5,40.8,22.5,41.1,0
					c0,0,42.7,8.9,53.9,22.6C254.8,534.1,260.3,585,260.3,585z"/>
				<path fill="#E1E5E6" d="M260.3,585h-84.9v-76.4c10.1-0.1,9.1,0.2,20.3-3.5c0,0,42.7,8.9,53.9,22.6
					C254.8,534.1,260.3,585,260.3,585z"/>
				<path fill="#D1544B" d="M172.6,522.5c-6.5,7-6.4,38-7.3,62.5l20.1,0.1c-0.8-25.2-0.8-56.3-7.4-62.5H172.6z"/>
				<path fill="#56626B" d="M261.1,585h-172c6-55.3,10.7-58.7,16.7-62.8c15.5-11,48.8-18,48.8-18c0.2,11.2,10.6,59.2,20.8,59.2
					c10.2,0,20.2-48,20.3-59.2c0,0,42.7,8.9,53.9,22.6C254.8,533.2,261.1,585,261.1,585z"/>
				<path fill="#D1544B" d="M187.7,509.1c-3.3,6-6.1,11.6-9.7,13.4h-5.5c-3.9-2.9-6.8-7.9-10.1-13.4
					C170.1,507.5,180.2,507.5,187.7,509.1z"/>
				<path fill="#778289" d="M154.5,501l-6.6,3.5l-6.7,23h11.7l-11,8.1l33.2,34l0-7C162.7,540.7,158.9,527.3,154.5,501z"/>
				<path fill="#778289" d="M195.7,501l6.6,3.5l6.7,23h-11.7l11,8.1l-33.2,34l0-7C187.5,540.7,191.4,527.3,195.7,501z"/>
				<path fill="#FAFEFF" d="M195.7,497.4c-5.4,7.1-9.3,10.2-20.6,10.5c8.6,5.9,13.2,8.9,18.2,17.8
					C198.4,508.4,195.7,497.4,195.7,497.4z"/>
				<path fill="#FAFEFF" d="M154.5,497.4c5.4,7.1,9.3,10.2,20.6,10.5c-8.6,5.9-13.2,8.9-18.2,17.8
					C151.8,508.4,154.5,497.4,154.5,497.4z"/>
			</g>
			<g>
				<path fill="#FFE8B9" d="M221.8,422.4c0,30.4-20.9,68.3-46.6,68.3s-46.6-37.9-46.6-68.3s13-55,46.6-55
					C208.8,367.4,221.8,392,221.8,422.4z"/>
				<path fill="#FFE8B9" d="M142.6,431.6c0,9.3-4.9,16.8-10.9,16.8c-6,0-10.6-11.5-10.6-20.8c0-9.3,4.6-12.8,10.6-12.8
					C137.7,414.7,142.6,422.3,142.6,431.6z"/>
				<path fill="#F9DFA9" d="M207.6,431.6c0,9.3,4.9,16.8,10.9,16.8c6,0,10.6-11.5,10.6-20.8c0-9.3-4.6-12.8-10.6-12.8
					C212.5,414.7,207.6,422.3,207.6,431.6z"/>
				<path fill="#F9DFA9" d="M221.8,422.4c0,30.4-20.9,68.3-46.6,68.3V367.4C208.8,367.4,221.8,392,221.8,422.4z"/>
				<path fill="#574A48" d="M179.7,380.7c22.1,5.2,29.4,7.1,30.6,9.6s-2.6,10.5,2.1,17.7c1.2,2.8,2.2,14,2.2,14h2.9l0.1-7.1
					c4-0.8,5.6,0.8,5.6,0.8s3.2-9.2,4.6-21c2.2-17.5-9.4-33.1-23.1-41.8c-18-11.3-49.6-14.5-58.9,6.6c-17.3-3.3-28.7,22.5-18.6,56.1
					c0,0,1.6-1.5,5.6-0.8l0.1,7.1h2.9c0,0,1-11.2,2.2-14s0-11.8,1.1-14.3c0.2-5.3,8.8-15.8,13.5-17.3
					C156.6,370.5,161.5,376.5,179.7,380.7z"/>
				<path fill="#574A48" d="M198.8,456.5c-1.8,0.8-4.2,1.1-5.5-0.4c-4.1-5-8.8-8.9-18.2-7.6c-9.5-1.3-14.2,2.6-18.2,7.6
					c-1.3,1.6-3.7,1.3-5.5,0.4c0,0-0.1,4.9,4.7,4.8c5.1-0.1,10-4.8,19.9-4.8c6.8-0.1,13.6,4.7,18.2,4.8
					C199,461.4,198.8,456.5,198.8,456.5z"/>
			</g>
		</g>
	</g>
</g>
<g>
	<g>
		<defs>
			<circle id="SVGID_175_" cx="1627" cy="160" r="125.6"/>
		</defs>
		<clipPath id="SVGID_15_">
			<use xlink:href="#SVGID_175_"  overflow="visible"/>
		</clipPath>
		<rect x="1492" y="25" clip-path="url(#SVGID_15_)" fill="#415A76" width="270" height="270"/>
		<g clip-path="url(#SVGID_15_)">
			<path fill="#A6764A" d="M1648.8,200.7c0,2.1-1.5,11.2-21.6,11.2c-20.1,0-21.6-9-21.6-11.2
				C1605.6,195.6,1648.8,195.6,1648.8,200.7z"/>
			<g>
				<path fill="#F9DFA9" d="M1645.5,187c-0.6,7.9,0.2,27.2,2.3,57.5h-41.1c1.4-22.5,2.9-47.3,2.3-57.5H1645.5z"/>
				<path fill="#EACE95" d="M1645.5,187c-0.2,10-0.2,17.4,0.6,29c-14.3-2.7-27.6-12.2-37-23.7V187H1645.5z"/>
			</g>
			<g>
				<g>
					<path fill="#FFE8B9" d="M1673.8,132.4c0,24.2-32.1,70.4-46.8,68.2c-17.2-0.3-46.4-43.3-46.4-68.2c0-33,13.7-55,46.6-55
						C1662.1,77.5,1673.8,102.1,1673.8,132.4z"/>
					<path fill="#FFE8B9" d="M1596.5,141.3c0.3,8.4-4.4,15.4-10.4,15.6c-6,0.2-11-10.1-11.2-18.5c-0.3-8.4,4.2-11.8,10.2-12
						C1591.1,126.2,1596.2,132.9,1596.5,141.3z"/>
					<path fill="#F9DFA9" d="M1657.9,141.3c-0.3,8.4,4.4,15.4,10.4,15.6c6,0.2,11-10.1,11.2-18.5c0.3-8.4-4.2-11.8-10.2-12
						C1663.3,126.2,1658.2,132.9,1657.9,141.3z"/>
					<path fill="#F9DFA9" d="M1673.8,132.4c0,24.2-32.1,70.4-46.8,68.2V77.5C1660.1,77.5,1673.8,99.3,1673.8,132.4z"/>
				</g>
				<path fill="#2F343B" d="M1620,129.6h-23.5c-1.3,0-2.3,1-2.3,2.3v10c0,2.9,2.3,5.2,5.2,5.2h15.3c4.2,0,7.7-3.4,7.7-7.7v-7.6
					C1622.3,130.6,1621.3,129.6,1620,129.6z M1619.9,139.5c0,2.9-2.4,5.3-5.3,5.3h-15.3c-1.6,0-2.8-1.3-2.8-2.8v-10l23.5,0.1
					L1619.9,139.5z"/>
				<path fill="#2F343B" d="M1631.7,131.9v7.6c0,4.2,3.4,7.7,7.7,7.7h15.3c2.9,0,5.2-2.3,5.2-5.2v-10c0-1.3-1-2.3-2.3-2.3H1634
					C1632.7,129.6,1631.7,130.6,1631.7,131.9z M1634,132l23.5-0.1v10c0,1.6-1.3,2.8-2.8,2.8h-15.3c-2.9,0-5.3-2.4-5.3-5.3L1634,132z
					"/>
				<path fill="#25282E" d="M1578.8,128.5c1.5-0.5,4.5-1.6,6.5,0c3.8,3-0.9,8.6,4,18.1c0.3-2.7,0.2-5.6,0.5-8.3
					c1.5-13.2-0.1-15.2,2.7-23.5c-3.8,0.1-10.7,0.3-14.5,0.4C1578.1,119.5,1578.7,124.2,1578.8,128.5z"/>
				<path fill="#25282E" d="M1675.2,127.9c-1.5-0.5-4.5-1.6-6.5,0c-3.8,3,0.9,8.7-4,18.1c-0.3-2.7-0.2-5.6-0.5-8.3
					c-1.5-13.2,0.1-15.2-2.7-23.5c3.8,0.1,10.7,0.3,14.5,0.4C1675.9,118.9,1675.3,123.6,1675.2,127.9z"/>
				<path fill="#2F343B" d="M1578,128.9c-9.6-26.4,0.9-57.9,27.1-54.6c2.5-5.5,9.1-7.7,15.1-8.5c15.8-2.1,31.5,0.8,43,11.8
					s17.2,32.9,12,50.4c-12.9-1.9-28.9-5.4-41.4-9.2c-10.7-3.3-29.2-13.5-34.2-25.5C1593,108.3,1599.2,115.5,1578,128.9z"/>
			</g>
			<g>
				<path fill="#E9AC64" d="M1700.6,295h-147.2c0,0,3.6-50.9,8.2-57.3c8-11.1,33.8-19.6,46.8-22.6c4.9,10.9,21.4,10,19,10
					c0,0,15.5-1.5,18.7-10c0,0,36.7,10.5,46.6,24.2C1697.3,245.7,1700.6,295,1700.6,295z"/>
				<path fill="#DEA360" d="M1700.6,295h-73.4l0.2-69.9c-1.7,0,11.8,0.6,18.7-10c0,0,36.7,10.5,46.6,24.2
					C1697.3,245.7,1700.6,295,1700.6,295z"/>
				<path fill="#CF965A" d="M1648.8,216c0,16-43.2,16-43.2,0v-16.1c0,14.2,43.2,14.2,43.2,0V216z"/>
				<g>
					<g>
						<rect x="1659.9" y="244.1" fill="#5C7995" width="3.9" height="12.4"/>
						<path fill="#7597B7" d="M1661.9,251.8c-4.6,0-4.6-3.7,0-3.7C1666.5,248.1,1666.5,251.8,1661.9,251.8z"/>
					</g>
					<rect x="1647.8" y="254.3" fill="#ECF0F1" width="28.3" height="17.2"/>
					<g>
						<rect x="1649.9" y="256.5" fill="#D5D8DC" width="9.4" height="12.8"/>
						<path fill="#506A84" d="M1654.5,264c-2.9,0-2.9-5.4,0-5.4S1657.4,264,1654.5,264z"/>
						<path fill="#506A84" d="M1658.3,269.3h-7.3v-1.6c0-1.3,1.1-2.3,2.3-2.3h2.6c1.3,0,2.3,1.1,2.3,2.3V269.3z"/>
					</g>
					<g>
						<rect x="1661.5" y="256.6" fill="#BAC1C4" width="11.9" height="0.9"/>
						<rect x="1661.5" y="259" fill="#BAC1C4" width="11.9" height="0.9"/>
						<rect x="1661.5" y="261.5" fill="#BAC1C4" width="11.9" height="0.9"/>
						<rect x="1661.5" y="263.9" fill="#BAC1C4" width="11.9" height="0.9"/>
						<rect x="1661.5" y="266.4" fill="#BAC1C4" width="11.9" height="0.9"/>
						<rect x="1661.5" y="268.8" fill="#BAC1C4" width="11.9" height="0.9"/>
					</g>
				</g>
			</g>
		</g>
	</g>
</g>
<g>
	<g>
		<defs>
			<circle id="SVGID_178_" cx="1337" cy="160" r="125.6"/>
		</defs>
		<clipPath id="SVGID_16_">
			<use xlink:href="#SVGID_178_"  overflow="visible"/>
		</clipPath>
		<rect x="1202" y="25" clip-path="url(#SVGID_16_)" fill="#7D6B67" width="270" height="270"/>
		<g clip-path="url(#SVGID_16_)">
			<path fill="#272A2E" d="M1301.9,245.1c10-2.4,16.1-8.3,22.7-11.2c28.9-12.6,36.4,15.5,61.5,11.1c0,0-17.7-19.6-16.5-38.2
				c1.6-26.9,7.3-81.2,7.2-81.2c-0.1,0-51.7-15.3-73.6-0.8c0,0-13,10.4-7.4,31C1305,188.8,1301.9,245.1,1301.9,245.1z"/>
			<g>
				<path fill="#F9DFA9" d="M1355.5,187c-0.6,7.9,0.2,27.2,2.3,57.5h-41.1c1.4-22.5,2.9-47.3,2.3-57.5H1355.5z"/>
				<path fill="#EACE95" d="M1355.5,187c-0.2,10-0.2,17.4,0.6,29c-14.3-2.7-27.6-12.2-37-23.7V187H1355.5z"/>
			</g>
			<g>
				<path fill="#9DDAA7" d="M1410.6,295h-147.2c0,0,3.6-50.9,8.2-57.3c8-11.1,33.8-19.6,46.8-22.6c4.9,10.9,21.4,10,19,10
					c0,0,15.5-1.5,18.7-10c0,0,36.7,10.5,46.6,24.2C1407.3,245.7,1410.6,295,1410.6,295z"/>
				<path fill="#98D4A2" d="M1410.6,295h-73.4l0.2-69.9c-1.7,0,11.8,0.6,18.7-10c0,0,36.7,10.5,46.6,24.2
					C1407.3,245.7,1410.6,295,1410.6,295z"/>
			</g>
			<g>
				<g>
					<path fill="#FFE8B9" d="M1383.8,132.4c0,24.2-32.1,70.4-46.8,68.2c-17.2-0.3-46.4-43.3-46.4-68.2c0-33,13.7-55,46.6-55
						C1372.1,77.5,1383.8,102.1,1383.8,132.4z"/>
					<path fill="#FFE8B9" d="M1306.5,141.3c0.3,8.4-4.4,15.4-10.4,15.6s-11-10.1-11.2-18.5c-0.3-8.4,4.2-11.8,10.2-12
						C1301.1,126.2,1306.2,132.9,1306.5,141.3z"/>
					<path fill="#F9DFA9" d="M1367.9,141.3c-0.3,8.4,4.4,15.4,10.4,15.6c6,0.2,11-10.1,11.2-18.5c0.3-8.4-4.2-11.8-10.2-12
						S1368.2,132.9,1367.9,141.3z"/>
					<path fill="#F9DFA9" d="M1383.8,132.4c0,24.2-32.1,70.4-46.8,68.2V77.5C1370.1,77.5,1383.8,99.3,1383.8,132.4z"/>
				</g>
				<path fill="#373B40" d="M1359.1,111.5c-7,9.7-32.8,24.6-55.9,24.6c-4.7,7.1-6.7,26.8,3.3,52.2c25.6,64.9,0.7,72.8,2.7,89.8
					c-10.6-4.4-20.7-13.5-19.3-42.1c0.8-17.3,12.4-25.4,10.8-46.8c-0.4-5.2-4-9.8-7.2-12.8c-21.8-20.7-21.2-48.5-18.5-61
					c6.9-31.5,33.5-48.7,57.9-50.2c11.8-0.7,33,2.9,34.1,16.6c10.8-0.3,22.6,9.8,27.1,20.5c10.2,24,6.6,51.7-11.9,70.4
					c-5.4,5.5-9.2,10.9-9.4,16.2c-0.5,20.3-0.5,20.3,7.6,40.7c8.4,21,4.2,28.7-8,43.8c-1.5-15.2-32.2-16.7-6.2-84.8
					c4.2-10.9,5.2-23.8,6-35.8C1374,125.5,1359.1,111.5,1359.1,111.5z"/>
				<path fill="#81A5C9" d="M1305.4,182.5c3.4,0.3,4.6,4.4,3,6c-2.1,2.1-4.4,3.3-7.1,3.6c-2.8,0.3-5.5-3.4-3.7-5.6
					C1299.6,184,1302,182.2,1305.4,182.5z"/>
				<path fill="#81A5C9" d="M1374.2,184.4c2.4,2.5,0.7,6.3-1.5,6.5c-2.9,0.3-5.5-0.3-7.7-1.8c-2.3-1.6-2-6.1,0.8-6.7
					C1368.7,181.9,1371.7,182,1374.2,184.4z"/>
				
					<rect x="1299.4" y="111.8" transform="matrix(0.9559 -0.2936 0.2936 0.9559 20.7186 387.2903)" fill="#A9B1B5" width="2.4" height="25.7"/>
			</g>
		</g>
	</g>
</g>
<g>
	<g>
		<defs>
			<circle id="SVGID_181_" cx="1047" cy="160" r="125.6"/>
		</defs>
		<clipPath id="SVGID_17_">
			<use xlink:href="#SVGID_181_"  overflow="visible"/>
		</clipPath>
		<rect x="912" y="25" clip-path="url(#SVGID_17_)" fill="#8DA28D" width="270" height="270"/>
		<g clip-path="url(#SVGID_17_)">
			<g>
				<path fill="#F9DFA9" d="M1065.5,188.8c-0.6,7.9,0.2,27.2,2.3,57.5h-41.1c1.4-22.5,2.9-47.3,2.3-57.5H1065.5z"/>
				<path fill="#EACE95" d="M1065.5,188.8c-0.2,10-0.2,17.4,0.6,29c-14.3-2.7-27.6-12.2-37-23.7v-5.3H1065.5z"/>
			</g>
			<g>
				<g>
					<path fill="#FFE8B9" d="M1093.8,134.3c0,24.2-32.1,70.4-46.8,68.2c-17.2-0.3-46.4-43.3-46.4-68.2c0-33,13.7-55,46.6-55
						C1082.1,79.3,1093.8,103.9,1093.8,134.3z"/>
					<path fill="#FFE8B9" d="M1016.5,143.2c0.3,8.4-4.4,15.4-10.4,15.6s-11-10.1-11.2-18.5c-0.3-8.4,4.2-11.8,10.2-12
						C1011.1,128.1,1016.2,134.7,1016.5,143.2z"/>
					<path fill="#F9DFA9" d="M1077.9,143.2c-0.3,8.4,4.4,15.4,10.4,15.6c6,0.2,11-10.1,11.2-18.5c0.3-8.4-4.2-11.8-10.2-12
						C1083.3,128.1,1078.2,134.7,1077.9,143.2z"/>
					<path fill="#F9DFA9" d="M1093.8,134.3c0,24.2-32.1,70.4-46.8,68.2V79.3C1080.1,79.3,1093.8,101.2,1093.8,134.3z"/>
				</g>
				<g>
					<path fill="#6A615A" d="M1051.4,138.4l1,7.5c0.3,2.4,2.3,4.1,4.7,4.1h14.6c2.6,0,4.8-2.1,4.8-4.8v-7.5c0-2.6-2.1-4.8-4.8-4.8
						h-15.6C1053.3,133,1051.1,135.6,1051.4,138.4z M1054.1,136c0.5-0.6,1.3-1,2.1-1h15.6c1.5,0,2.8,1.2,2.8,2.8v7.5
						c0,1.5-1.2,2.8-2.8,2.8h-14.6c-1.4,0-2.6-1-2.7-2.4l-1-7.5C1053.3,137.3,1053.6,136.6,1054.1,136z"/>
					<path fill="#6A615A" d="M1037.8,133h-15.6c-2.6,0-4.8,2.1-4.8,4.8v7.5c0,2.6,2.1,4.8,4.8,4.8h14.6c2.4,0,4.4-1.8,4.7-4.1l1-7.5
						C1042.9,135.6,1040.7,133,1037.8,133z M1040.6,138.1l-1,7.5c-0.2,1.4-1.4,2.4-2.7,2.4h-14.6c-1.5,0-2.8-1.2-2.8-2.8v-7.5
						c0-1.5,1.2-2.8,2.8-2.8h15.6c0.8,0,1.6,0.3,2.1,1S1040.7,137.3,1040.6,138.1z"/>
				</g>
				<path fill="#D28554" d="M1003.2,141.3c0.3,4.7,0.7,9.8,3.6,13.6c-3.5-9.1,1.3-19.3-0.3-28.9c-1.7-10.8,9-20.1,18.7-25.2
					c56.7,14.1,51.3,73.2,51.3,73.2c-2.4,3.3,6.9,3.2,10.2,3.1c4.3-0.1,13.3-16.6,15.1-43.8c2.3-36.3-25.1-67.2-60-63.7
					c-4.5,0.5-17.4,4.1-21.5,11.8c-14.8-1.1-24.4,10.9-25.4,26.3C993.4,134.2,1001.7,121,1003.2,141.3z"/>
			</g>
			<g>
				<path fill="#9CE1E0" d="M1120.6,295H973.4c0,0,3.6-50.9,8.2-57.3c8-11.1,33.8-19.6,46.8-22.6c0-0.4,0.1-6.6,0.1-6.6
					c0,5.5,5.4,10,9.3,10c1.6,0.3,7.9,23,9.5,23c1.4,0,8.1-22.8,9.4-23c4.4-1.4,9.3-4.7,9.3-10l0.1,6.6c0,0,36.7,10.5,46.6,24.2
					C1117.3,245.7,1120.6,295,1120.6,295z"/>
				<path fill="#97D9D8" d="M1120.6,295h-73.4v-53.5c1.4,0,8.1-22.8,9.4-23c4.4-1.4,9.3-4.7,9.3-10l0.1,6.6c0,0,36.7,10.5,46.6,24.2
					C1117.3,245.7,1120.6,295,1120.6,295z"/>
				<g>
					<g>
						<path fill="#D16A62" d="M1023.6,217.2c-0.1-3.4,4.7-3.4,4.8-0.2C1028.5,220.2,1023.7,220.6,1023.6,217.2z"/>
						<path fill="#D16A62" d="M1026.5,224.6c-3.2,0.5-3.6-4.7-0.4-5C1029.2,219.4,1029.6,224.1,1026.5,224.6z"/>
						<path fill="#D16A62" d="M1024.4,227.5c-0.4-3.4,4.3-4,4.7-0.9C1029.6,229.7,1024.9,230.9,1024.4,227.5z"/>
						<path fill="#D16A62" d="M1025.2,232.5c-0.6-3.3,4.1-4.3,4.7-1.2C1030.4,234.5,1025.8,235.9,1025.2,232.5z"/>
						<path fill="#D16A62" d="M1029.1,239.2c-3.1,1.1-4.2-3.9-1.1-4.8C1031,233.5,1032.1,238.1,1029.1,239.2z"/>
						<path fill="#D16A62" d="M1027.5,242.5c-0.9-3.2,3.7-4.8,4.5-1.8C1032.9,243.6,1028.4,245.7,1027.5,242.5z"/>
						<path fill="#D16A62" d="M1029,247.3c-1.1-3.2,3.4-5.1,4.4-2.2C1034.5,248.1,1030.1,250.5,1029,247.3z"/>
						<path fill="#D16A62" d="M1030.9,252.1c-1.4-3,3-5.4,4.2-2.7C1036.3,252.2,1032.2,255.2,1030.9,252.1z"/>
					</g>
					<g>
						<path fill="#D16A62" d="M1033.2,256.6c-1.7-2.9,2.5-5.8,4-3.2C1038.6,256.1,1034.8,259.6,1033.2,256.6z"/>
						<path fill="#D16A62" d="M1036,260.9c-2.1-2.7,1.8-6.1,3.5-3.9C1041.2,259.2,1038,263.6,1036,260.9z"/>
						<path fill="#D16A62" d="M1038.6,262.7c-0.3-2.8,3.8-4.8,4.3-1.4C1043.5,265.7,1038.9,266.2,1038.6,262.7z"/>
						<path fill="#D16A62" d="M1046,266.6c-1.1,1.1-2.9,0.5-3.3-1c-0.9-2.5,2.2-5.9,3.6-3.1C1046.9,263.7,1047,265.6,1046,266.6z"/>
						<path fill="#D16A62" d="M1047.4,266.6c-1.6-1.6,0-6.5,2.3-4.6C1052.9,264.9,1049.6,268.9,1047.4,266.6z"/>
						<path fill="#D16A62" d="M1054.9,263.1c-0.1,1.6-1.6,2.7-2.8,2.1c-2.2-0.9-2.1-6,0.7-5.3C1054,260.2,1055,261.5,1054.9,263.1z"
							/>
						<path fill="#D16A62" d="M1057.6,261.2c-2.1,2.7-5.2-1.7-3.5-3.9C1055.8,255.2,1059.7,258.5,1057.6,261.2z"/>
						<path fill="#D16A62" d="M1059.5,253.2c1.2,0.8,1.6,2.4,0.9,3.7c-1.2,2-3.7,1-4.2-1.3C1055.7,253.3,1057.7,252,1059.5,253.2z"
							/>
					</g>
					<g>
						<path fill="#D16A62" d="M1062.6,252.3c-1.3,3.1-5.5,0.2-4.3-2.6C1059.6,246.9,1064,249.3,1062.6,252.3z"/>
						<path fill="#D16A62" d="M1064.5,247.6c-1.1,3.2-5.5,0.7-4.4-2.2C1061,242.5,1065.6,244.4,1064.5,247.6z"/>
						<path fill="#D16A62" d="M1066,242.7c-0.9,3.2-5.4,1.3-4.5-1.8C1062.4,237.8,1066.9,239.5,1066,242.7z"/>
						<path fill="#D16A62" d="M1067.3,237.8c-0.8,3.3-5.3,1.6-4.6-1.5C1063.4,233.2,1068,234.5,1067.3,237.8z"/>
						<path fill="#D16A62" d="M1068.3,232.8c-0.6,3.3-5.3,1.9-4.7-1.2C1064.2,228.5,1068.9,229.5,1068.3,232.8z"/>
						<path fill="#D16A62" d="M1069.1,227.8c-0.4,3.3-5.2,2.3-4.7-0.9C1064.9,223.6,1069.6,224.4,1069.1,227.8z"/>
						<path fill="#D16A62" d="M1067.5,219.9c3.2,0.3,2.7,5.5-0.5,5C1064,224.3,1064.4,219.6,1067.5,219.9z"/>
						<path fill="#D16A62" d="M1067.7,214.9c3.2,0,3.1,5.3-0.2,5C1064.4,219.6,1064.5,214.9,1067.7,214.9z"/>
					</g>
				</g>
				<path fill="#D5F5F4" d="M1028.4,204.6c2.4,8.6,3.6,10.5,9.3,13.9c-6.9,2.8-7.2,8.4-14.8,13.9
					C1021.9,219.5,1023.8,213.1,1028.4,204.6z"/>
				<path fill="#D5F5F4" d="M1066,204.6c-2.4,8.6-3.6,10.5-9.3,13.9c6.9,2.8,7.2,8.4,14.8,13.9
					C1072.5,219.5,1070.6,213.1,1066,204.6z"/>
			</g>
		</g>
	</g>
</g>
<g>
	<defs>
		<circle id="SVGID_172_" cx="755.1" cy="160" r="125.6"/>
	</defs>
	<clipPath id="SVGID_18_">
		<use xlink:href="#SVGID_172_"  overflow="visible"/>
	</clipPath>
	<rect x="620.1" y="25" clip-path="url(#SVGID_18_)" fill="#415A76" width="270" height="270"/>
	<g clip-path="url(#SVGID_18_)">
		<g>
			<rect x="734.6" y="192" fill="#F9DFA9" width="41.1" height="52.5"/>
			<path fill="#EACE95" d="M775.7,192v24c-16.2-2.7-30.5-10.8-41.1-22.4V192H775.7z"/>
		</g>
		<g>
			<path fill="#FFE8B9" d="M801.8,132.4c0,30.4-20.9,68.3-46.6,68.3s-46.6-37.9-46.6-68.3s13-55,46.6-55
				C788.8,77.5,801.8,102.1,801.8,132.4z"/>
			<path fill="#FFE8B9" d="M722.7,141.6c0,9.3-4.9,16.8-10.9,16.8s-10.6-11.5-10.6-20.8c0-9.3,4.6-12.8,10.6-12.8
				S722.7,132.3,722.7,141.6z"/>
			<path fill="#F9DFA9" d="M787.6,141.6c0,9.3,4.9,16.8,10.9,16.8s10.6-11.5,10.6-20.8c0-9.3-4.6-12.8-10.6-12.8
				S787.6,132.3,787.6,141.6z"/>
			<path fill="#F9DFA9" d="M801.8,132.4c0,30.4-20.9,68.3-46.6,68.3V77.5C788.8,77.5,801.8,102.1,801.8,132.4z"/>
			<path fill="#DF9248" d="M755.2,106.8c13.7,1.9,29.7,0.2,30.8,2.7c1.1,2.5,5.2,5.7,6.4,8.5c1.2,2.8,2.2,14,2.2,14h2.9l0.1-7.1
				c4-0.8,5.6,0.8,5.6,0.8s2.1-9.3,1.7-21.1s-6.3-27.3-20.5-35.1c-12.4-6.9-20.7-6.9-29.2-6.9c-8.6,0-17,0.1-29.4,7
				c-14.2,7.9-20,23.2-20.3,35c-0.3,11.8,1.7,21.1,1.7,21.1s1.6-1.5,5.6-0.8l0.1,7.1h2.9c0,0,1-11.2,2.2-14c1.2-2.8,5.2-6,6.4-8.5
				c1.1-2.5,2.6-14.7,2.6-17.5C726.9,89.1,736.7,104.3,755.2,106.8z"/>
			<path fill="#49535D" d="M781.9,129l-18.8,0.5c-2.3,0.1-4.1,2.1-3.7,4.4l1.4,9.4c0.3,2,2.1,3.4,4.1,3.3l17.1-1.1
				c2-0.1,3.5-1.7,3.6-3.7l0.3-8.7C786,130.8,784.1,128.9,781.9,129z M783.5,141.7c0,1-0.8,1.7-1.8,1.8c-0.2,0-17.1,1.1-17.3,1.1
				c-0.9,0-1.7-0.7-1.8-1.6l-1.4-9.4c-0.2-1.1,0.7-2.1,1.8-2.1c0.2,0,18.7-0.5,18.9-0.5c1,0,1.8,0.9,1.8,1.9L783.5,141.7z"/>
			<path fill="#49535D" d="M724.4,133l0.3,8.7c0.1,2,1.6,3.6,3.6,3.7l17.1,1.1c2,0.1,3.8-1.3,4.1-3.3l1.4-9.4
				c0.3-2.3-1.4-4.4-3.7-4.4l-18.8-0.5C726.2,128.9,724.3,130.8,724.4,133z M726.4,132.9c0-1,0.8-1.9,1.8-1.9
				c0.2,0,18.7,0.5,18.9,0.5c0.5,0,1,0.3,1.4,0.7c0.8,1,0.4,1.5-0.9,10.8c-0.1,1-1,1.7-2,1.6l-17.1-1.1c-1-0.1-1.7-0.8-1.8-1.8
				L726.4,132.9z"/>
		</g>
		<g>
			<path fill="#8DD2E2" d="M775.7,250.1h-41.1v-41.6c0,13.2,41,12.7,41.1,0V250.1z"/>
			<path fill="#8DD2E2" d="M840.3,295H670c6-55.3,9.9-57.8,15.9-61.9c15.5-11.1,48.8-18,48.8-18c0.3,22.5,40.8,22.5,41.1,0
				c0,0,42.7,8.9,53.9,22.6C834.8,244.1,840.3,295,840.3,295z"/>
			<path fill="#80C5D9" d="M840.3,295h-84.9v-76.4c10.1-0.1,9.1,0.2,20.3-3.5c0,0,42.7,8.9,53.9,22.6
				C834.8,244.1,840.3,295,840.3,295z"/>
			<path fill="#323D48" d="M752.6,236c-5.7,13.2-7.6,35.6-8.1,59h23.1c-0.8-22.6-4.3-44.1-9.5-59H752.6z"/>
			<path fill="#323D48" d="M770.6,219.4L758.1,236h-5.5l-13-16.5C743.4,219.4,767.3,219.4,770.6,219.4z"/>
			<path fill="#A0E8F5" d="M775.7,207.5c-5.4,7.1-9.3,10.2-20.6,10.5c8.6,5.9,13.2,8.9,18.2,17.8
				C778.4,218.4,775.7,207.5,775.7,207.5z"/>
			<path fill="#A0E8F5" d="M734.6,207.5c5.4,7.1,9.3,10.2,20.6,10.5c-8.6,5.9-13.2,8.9-18.2,17.8
				C731.8,218.4,734.6,207.5,734.6,207.5z"/>
		</g>
	</g>
</g>
<g>
	<g>
		<defs>
			<circle id="SVGID_173_" cx="465.1" cy="160" r="125.6"/>
		</defs>
		<clipPath id="SVGID_19_">
			<use xlink:href="#SVGID_173_"  overflow="visible"/>
		</clipPath>
		<rect x="330.1" y="25" clip-path="url(#SVGID_19_)" fill="#7D6B67" width="270" height="270"/>
		<g clip-path="url(#SVGID_19_)">
			<g>
				<rect x="444.6" y="192" fill="#F9DFA9" width="41.1" height="52.5"/>
				<path fill="#EACE95" d="M485.7,192v24c-16.2-2.7-30.5-10.8-41.1-22.4V192H485.7z"/>
			</g>
			<g>
				<path fill="#ABCCAD" d="M485.7,240.1h-41.1v-41.6c0,13.2,41,12.7,41.1,0V240.1z"/>
				<path fill="#B5DAB8" d="M550.3,295H380c6-55.3,9.9-57.8,15.9-61.9c15.5-11,48.8-18,48.8-18c0.3,22.5,40.8,22.5,41.1,0
					c0,0,42.7,8.9,53.9,22.6C544.8,244.1,550.3,295,550.3,295z"/>
				<path fill="#B0D4B3" d="M550.3,295h-85.2v-63c10.2,0,20.4-5.6,20.6-16.8c0,0,42.7,8.9,53.9,22.6
					C544.8,244.1,550.3,295,550.3,295z"/>
			</g>
			<g>
				<path fill="#FFE8B9" d="M512.6,132.4c0,30.4-20.9,68.3-46.6,68.3s-46.6-37.9-46.6-68.3s13-55,46.6-55
					C499.7,77.5,512.6,102.1,512.6,132.4z"/>
				<path fill="#FFE8B9" d="M432.7,141.6c0,9.3-4.9,16.8-10.9,16.8s-10.6-11.5-10.6-20.8c0-9.3,4.6-12.8,10.6-12.8
					S432.7,132.3,432.7,141.6z"/>
				<path fill="#F9DFA9" d="M497.6,141.6c0,9.3,4.9,16.8,10.9,16.8s10.6-11.5,10.6-20.8c0-9.3-4.6-12.8-10.6-12.8
					S497.6,132.3,497.6,141.6z"/>
				<path fill="#F9DFA9" d="M512.8,132.4c0,30.4-20.9,68.3-46.6,68.3V77.5C499.8,77.5,512.8,102.1,512.8,132.4z"/>
				<path fill="#373B40" d="M474.3,121c24.8,6.5,30.2,26,30.2,26l2.2-17.8l3.2-3.1c4-0.8,3.1-0.6,3.1-0.6s2.1-9.3,1.7-21.1
					c-0.3-11.8-6.3-27.3-20.5-35.1c-12.4-6.9-20.7-6.9-29.2-6.9s-17,0.1-29.4,7c-14.2,7.9-20,23.2-20.3,35
					c-0.3,11.8,1.7,21.1,1.7,21.1s1.6-0.8,5.6-0.8l0.1,7.1h2.9c0,0,1-11.2,2.2-14c2.6-6.3,8.9-20.7,8.9-26
					C436.8,89.1,447.7,114.1,474.3,121z"/>
				<polygon fill="#373B40" points="466.3,186.3 466,186.3 462.1,178 470.2,178 				"/>
			</g>
		</g>
	</g>
</g>
<g>
	<g>
		<defs>
			<circle id="SVGID_174_" cx="175.1" cy="160" r="125.6"/>
		</defs>
		<clipPath id="SVGID_20_">
			<use xlink:href="#SVGID_174_"  overflow="visible"/>
		</clipPath>
		<rect x="40.1" y="25" clip-path="url(#SVGID_20_)" fill="#8DA28D" width="270" height="270"/>
		<g clip-path="url(#SVGID_20_)">
			<g>
				<rect x="154.6" y="192" fill="#F9DFA9" width="41.1" height="52.5"/>
				<path fill="#EACE95" d="M195.7,192v24c-16.2-2.7-30.5-10.8-41.1-22.4V192H195.7z"/>
			</g>
			<g>
				<path fill="#FFE8B9" d="M221.8,132.4c0,30.4-20.9,68.3-46.6,68.3s-46.6-37.9-46.6-68.3s13-55,46.6-55
					C208.8,77.5,221.8,102.1,221.8,132.4z"/>
				<path fill="#FFE8B9" d="M142.7,141.6c0,9.3-4.9,16.8-10.9,16.8c-6,0-10.6-11.5-10.6-20.8c0-9.3,4.6-12.8,10.6-12.8
					C137.8,124.8,142.7,132.3,142.7,141.6z"/>
				<path fill="#F9DFA9" d="M207.6,141.6c0,9.3,4.9,16.8,10.9,16.8c6,0,10.6-11.5,10.6-20.8c0-9.3-4.6-12.8-10.6-12.8
					C212.5,124.8,207.6,132.3,207.6,141.6z"/>
				<path fill="#F9DFA9" d="M221.8,132.4c0,30.4-20.9,68.3-46.6,68.3V77.5C208.8,77.5,221.8,102.1,221.8,132.4z"/>
				<path fill="#67727A" d="M189.5,87c-17.1,23-48-2.7-48.1,14c0,3.9-2.2,14.1-3.4,17s-2.2,14-2.2,14h-2.9l-0.1-7.1
					c-4-0.8-5.6,0.8-5.6,0.8s-2.5-9.9-3.2-21.7c-3-51.2,59.3-60.8,71.7-37.8c29.8-7.3,34.7,24.2,32.6,38.7
					c-1.7,11.7-5.2,20.9-5.2,20.9s-1.6-1.5-5.6-0.8l-0.1,7.1h-2.9c0,0-1-11.2-2.2-14c-1.2-2.8-1.4-11.1-1.2-16.6
					C211.5,92.3,202.1,82.7,189.5,87z"/>
			</g>
			<g>
				<path fill="#D9CCC7" d="M195.7,250.1h-41.1v-41.6c0,13.2,41,12.7,41.1,0V250.1z"/>
				<path fill="#D9CCC7" d="M260.3,295H90c6-55.3,9.9-57.8,15.9-61.9c15.5-11.1,48.8-18,48.8-18c0.3,22.5,40.8,22.5,41.1,0
					c0,0,42.7,8.9,53.9,22.6C254.8,244.1,260.3,295,260.3,295z"/>
				<path fill="#7D625D" d="M261.1,294.8h-172c6-55.3,10.7-58.7,16.7-62.8c15.5-11,48.8-18,48.8-18c0.2,11.2,10.6,59.2,20.8,59.2
					c10.2,0,20.2-48,20.3-59.2c0,0,42.7,8.9,53.9,22.6C254.8,243.1,261.1,294.8,261.1,294.8z"/>
				<path fill="#755C57" d="M261.1,294.8h-85.7v-21.5c10.2,0,20.2-48,20.3-59.2c0,0,42.7,8.9,53.9,22.6
					C254.8,243.1,261.1,294.8,261.1,294.8z"/>
				<path fill="#F2E3DD" d="M195.7,207.5c-5.4,7.1-9.3,10.2-20.6,10.5c8.6,5.9,13.2,8.9,18.2,17.8
					C198.4,218.4,195.7,207.5,195.7,207.5z"/>
				<path fill="#F2E3DD" d="M154.6,207.5c5.4,7.1,9.3,10.2,20.6,10.5c-8.6,5.9-13.2,8.9-18.2,17.8
					C151.8,218.4,154.6,207.5,154.6,207.5z"/>
				<path fill="#3B516B" d="M191.2,225.5l-16-4.7v-5.3l16-4.7c1.4-0.4,2.7,0.6,2.7,2.1v10.5C193.9,224.9,192.5,225.9,191.2,225.5z"
					/>
				<path fill="#445F7D" d="M159.1,225.5l16-4.7v-5.3l-16-4.7c-1.4-0.4-2.7,0.6-2.7,2.1v10.5C156.4,224.9,157.7,225.9,159.1,225.5z"
					/>
				<path fill="#415A76" d="M178.6,222.8h-6.9c-0.8,0-1.4-0.6-1.4-1.4v-6.9c0-0.8,0.6-1.4,1.4-1.4h6.9c0.8,0,1.4,0.6,1.4,1.4v6.9
					C180,222.2,179.4,222.8,178.6,222.8z"/>
				<path fill="#C9BDB7" d="M175.1,241.2c-3.2,0-3.2-4.8,0-4.8C178.3,236.4,178.3,241.2,175.1,241.2z"/>
				<path fill="#C9BDB7" d="M175.1,259.7c-3.2,0-3.2-4.8,0-4.8C178.3,254.9,178.3,259.7,175.1,259.7z"/>
			</g>
		</g>
	</g>
</g>
</svg>
