<?xml version="1.0" standalone="no"?>
<!DOCTYPE svg PUBLIC "-//W3C//DTD SVG 20010904//EN"
 "http://www.w3.org/TR/2001/REC-SVG-20010904/DTD/svg10.dtd">
<svg version="1.0" xmlns="http://www.w3.org/2000/svg"
 width="1502.000000pt" height="2332.000000pt" viewBox="0 0 1502.000000 2332.000000"
 preserveAspectRatio="xMidYMid meet">
<metadata>
Created by potrace 1.15, written by Peter Selinger 2001-2017
</metadata>
<g transform="translate(0.000000,2332.000000) scale(0.100000,-0.100000)"
fill="#000000" stroke="none">
<path d="M6209 23200 l-1327 -117 -1473 -829 -1473 -829 -968 -2225 -968
-2224 0 -2360 0 -2361 315 -2410 316 -2410 429 -2089 c237 -1150 433 -2093
437 -2097 5 -4 798 -582 1763 -1285 1585 -1154 1762 -1280 1825 -1301 39 -13
525 -168 1081 -344 l1011 -321 1099 282 1099 282 1815 1175 c998 646 1821
1181 1828 1187 7 7 248 953 537 2102 l523 2089 406 2445 405 2445 65 2448 66
2449 -881 2261 c-485 1244 -885 2269 -890 2278 -4 9 -680 385 -1501 836
l-1493 820 -1345 112 c-740 61 -1352 111 -1360 110 -8 -1 -612 -54 -1341 -119z
m1224 -53 c-32 -46 -508 -734 -1058 -1529 -550 -796 -1001 -1445 -1003 -1443
-6 5 -422 2809 -419 2819 2 6 503 55 1258 122 690 61 1260 112 1267 113 7 0
-13 -36 -45 -82z m1532 -28 c671 -55 1220 -101 1221 -102 4 -5 -581 -2837
-586 -2837 -4 1 -1280 2005 -1923 3021 l-19 29 44 -5 c23 -3 592 -51 1263
-106z m-381 -1508 c526 -827 955 -1505 954 -1506 -7 -6 -4108 -11 -4106 -5 2
3 484 702 1073 1552 l1070 1546 26 -41 c14 -23 457 -719 983 -1546z m3173 562
c739 -406 1343 -740 1343 -743 -1 -6 -3411 -1303 -3414 -1298 -2 1 129 644
290 1428 161 784 293 1426 294 1428 0 1 33 -15 73 -37 39 -23 676 -373 1414
-778z m-6887 783 c0 -7 95 -647 210 -1421 116 -774 209 -1409 208 -1410 -5 -4
-3208 1269 -3208 1275 0 6 2770 1569 2783 1569 4 1 7 -5 7 -13z m8101 -3242
c-105 -902 -194 -1655 -198 -1676 l-8 -36 -1522 1021 c-1255 842 -1520 1024
-1504 1031 42 19 3416 1302 3419 1300 2 -1 -83 -739 -187 -1640z m-7732 335
c8 -3 -662 -452 -1489 -997 -826 -546 -1505 -990 -1507 -988 -5 4 -222 3167
-223 3232 l0 31 1603 -637 c881 -350 1608 -639 1616 -641z m8826 -934 c454
-1165 824 -2122 823 -2126 -3 -5 -1988 933 -2024 957 -12 8 16 266 176 1638
104 895 190 1635 190 1644 0 8 2 13 4 11 3 -3 376 -958 831 -2124z m-12015
483 c59 -876 107 -1594 107 -1594 -14 -10 -2019 -945 -2021 -943 -5 6 1796
4140 1801 4135 2 -2 53 -721 113 -1598z m7484 410 c-10 -17 -2095 -3011 -2104
-3021 -6 -6 -1984 2978 -1998 3015 -2 4 821 9 1830 11 1008 1 1933 3 2056 5
176 1 222 -1 216 -10z m1960 -1258 l1199 -805 -39 -7 c-21 -4 -1177 -224
-2569 -488 -1391 -264 -2538 -482 -2548 -484 -16 -4 -17 -2 -5 15 7 11 483
694 1058 1518 l1045 1499 330 -222 c182 -122 870 -584 1529 -1026z m-5259
-126 c495 -752 943 -1433 997 -1514 l96 -147 -131 27 c-73 15 -1196 247 -2497
515 -1301 268 -2368 490 -2372 494 -5 5 2986 1989 3002 1990 3 0 410 -614 905
-1365z m-1462 -1221 l2507 -517 -2275 -974 c-1252 -536 -2278 -973 -2279 -971
-2 2 -108 668 -235 1479 -128 811 -234 1481 -236 1488 -2 6 -1 12 3 12 4 0
1135 -232 2515 -517z m-2658 410 c-13 -49 -240 -925 -505 -1948 -265 -1023
-485 -1863 -489 -1867 -5 -6 -1001 2860 -1017 2927 -4 18 109 73 1013 497 560
262 1019 477 1020 478 1 0 -9 -39 -22 -87z m10633 40 c-3 -10 -132 -691 -289
-1515 -156 -823 -286 -1495 -289 -1493 -3 1 -1029 456 -2280 1010 -1251 554
-2285 1012 -2297 1019 -18 9 418 95 2555 502 1417 271 2583 492 2591 493 8 1
12 -6 9 -16z m1152 -498 c553 -262 1009 -480 1013 -485 5 -4 -240 -699 -544
-1543 -304 -845 -554 -1535 -555 -1534 -3 3 -944 4033 -944 4042 0 10 -77 46
1030 -480z m-11480 -1030 c121 -770 220 -1408 220 -1416 0 -10 -279 -202 -721
-499 -642 -430 -721 -480 -715 -454 27 112 978 3772 983 3784 5 13 6 13 9 0 2
-8 103 -645 224 -1415z m10856 -611 c253 -1086 460 -1974 459 -1974 -9 0
-1480 1063 -1479 1068 69 382 550 2889 554 2886 3 -3 212 -894 466 -1980z
m-6738 -393 c-706 -1336 -785 -1482 -805 -1478 -52 9 -2912 1032 -2905 1038 9
10 4486 1927 4490 1924 2 -2 -349 -670 -780 -1484z m3262 479 c1246 -551 2268
-1006 2273 -1009 4 -4 -658 -234 -1470 -511 -813 -276 -1482 -507 -1488 -511
-5 -5 -16 -9 -25 -9 -10 0 -258 475 -790 1517 -426 834 -777 1521 -779 1526
-2 5 0 7 5 5 5 -3 1028 -457 2274 -1008z m-2400 -763 c7 -720 9 -1311 6 -1315
-8 -7 -1543 92 -1552 101 -4 3 337 656 757 1451 l764 1444 7 -186 c3 -103 12
-776 18 -1495z m-6825 253 c246 -712 460 -1331 475 -1375 l27 -80 -498 -724
-499 -723 1 2163 0 2164 23 -65 c13 -36 225 -648 471 -1360z m7671 -100 c403
-789 731 -1437 728 -1439 -6 -6 -1467 -40 -1474 -34 -5 5 -28 2117 -29 2648
l0 340 21 -40 c12 -22 351 -686 754 -1475z m6624 -745 c-33 -1193 -60 -2201
-62 -2240 l-3 -69 -476 752 -476 752 536 1489 c295 819 537 1489 538 1488 1
-1 -25 -978 -57 -2172z m-10847 -90 c696 -247 1265 -450 1264 -452 -1 -1 -573
90 -1271 203 -698 112 -1273 204 -1278 204 -4 0 -8 113 -8 251 0 209 2 250 14
247 8 -2 583 -205 1279 -453z m-1377 -43 c-3 -2 -252 -75 -553 -162 -723 -208
-698 -201 -686 -189 5 5 286 194 624 420 l614 409 3 -236 c1 -131 0 -239 -2
-242z m9528 151 c3 -141 3 -260 -1 -263 -6 -5 -2440 -356 -2613 -377 -19 -2
557 199 1280 446 723 248 1318 450 1321 451 3 0 9 -116 13 -257z m708 -219
c343 -246 630 -453 637 -460 8 -8 -271 81 -620 198 -348 116 -635 211 -635
212 -4 3 -13 496 -9 496 2 0 284 -201 627 -446z m-9811 -506 c221 -271 406
-498 411 -505 6 -7 -25 -3 -79 12 -48 14 -541 149 -1095 302 -554 152 -1005
279 -1002 282 3 3 310 94 682 202 372 108 678 197 679 198 1 0 183 -221 404
-491z m1158 247 c734 -118 1335 -216 1337 -218 2 -1 -367 -112 -819 -245 -452
-133 -888 -262 -969 -286 l-147 -44 -104 127 c-57 69 -245 300 -419 512 l-315
385 51 -8 c28 -5 651 -105 1385 -223z m8710 -109 c438 -145 697 -236 685 -239
-10 -4 -525 -123 -1144 -267 -619 -143 -1131 -263 -1138 -265 -8 -3 4 15 25
39 25 30 868 967 868 966 0 0 317 -105 704 -234z m-839 219 c0 -15 -913 -1016
-923 -1012 -7 2 -440 139 -963 303 -524 164 -950 301 -947 304 3 4 2764 404
2821 409 6 1 12 -1 12 -4z m-10693 -1093 c151 -381 273 -695 271 -698 -3 -2
-352 -3 -777 -2 l-772 3 493 716 c411 596 494 712 501 695 5 -12 132 -333 284
-714z m5310 674 c359 -23 656 -45 659 -49 11 -11 -319 -697 -333 -692 -7 2
-252 174 -545 382 -293 209 -544 386 -557 395 -23 16 -20 16 50 11 41 -3 368
-24 726 -47z m-4495 -564 c306 -185 554 -340 550 -343 -23 -21 -994 -451
-1001 -443 -8 9 -551 1375 -551 1387 0 3 100 -55 223 -129 122 -74 473 -287
779 -472z m316 282 c518 -142 942 -261 942 -265 0 -6 -572 -301 -595 -307 -9
-2 -1433 853 -1452 872 -3 3 32 -5 78 -18 46 -12 508 -139 1027 -282z m3910
-148 c293 -208 530 -381 527 -385 -11 -10 -1110 -610 -1113 -607 -3 4 -42
1249 -42 1359 l0 79 48 -34 c26 -19 287 -204 580 -412z m-883 405 c-17 -16
-228 -207 -470 -426 -242 -219 -450 -407 -462 -417 l-22 -20 -430 173 c-237
95 -429 175 -427 176 4 4 1818 541 1831 542 5 1 -4 -12 -20 -28z m189 -691
c12 -391 19 -710 16 -710 -18 0 -1060 496 -1057 503 4 14 1011 926 1016 921 3
-2 14 -324 25 -714z m3081 670 c-27 -16 -300 -175 -605 -353 l-555 -324 -82
335 c-46 184 -82 337 -80 338 3 4 1038 30 1252 32 l120 2 -50 -30z m135 -740
c-21 -404 -38 -736 -39 -737 0 0 -271 164 -600 365 -544 334 -597 368 -578
379 12 6 299 174 637 371 338 198 616 359 616 359 1 -1 -15 -333 -36 -737z
m699 200 l503 -455 -29 -12 c-15 -6 -274 -117 -575 -246 -540 -232 -548 -235
-548 -208 0 14 16 341 35 726 19 385 35 704 35 708 0 12 8 5 579 -513z m499
220 c496 -156 899 -287 895 -291 -12 -11 -783 -339 -797 -339 -7 0 -238 203
-512 451 -552 499 -525 474 -504 467 8 -2 421 -132 918 -288z m4126 -530 c449
-709 465 -735 438 -738 -39 -3 -1502 74 -1508 80 -3 3 126 318 287 699 160
382 294 700 297 708 4 11 6 11 13 0 4 -8 217 -345 473 -749z m-6769 425 l79
-324 -114 -728 c-62 -400 -116 -731 -119 -735 -4 -4 -63 317 -133 713 l-126
721 162 339 c88 186 163 339 166 339 4 0 41 -146 85 -325z m5899 -366 c-158
-376 -290 -688 -294 -692 -9 -10 -1061 424 -1057 436 2 8 1630 946 1635 942 2
-2 -126 -311 -284 -686z m85 677 c-11 -11 -1541 -886 -1549 -886 -12 0 -624
368 -628 378 -2 6 2125 508 2167 511 8 1 12 -1 10 -3z m-9614 -533 c146 -59
264 -107 262 -108 -1 0 -182 5 -402 11 -220 7 -427 13 -460 14 l-60 1 185 94
c102 52 191 94 198 94 7 1 132 -47 277 -106z m7478 -105 l171 -103 -207 -3
c-114 -1 -299 -1 -412 0 l-206 3 238 102 c131 56 239 102 241 103 2 0 81 -46
175 -102z m-8235 -765 l-3 -249 -200 37 c-198 36 -203 37 -625 194 -234 86
-429 159 -433 162 -5 3 227 112 515 242 288 131 573 263 633 293 l110 56 3
-243 c1 -134 1 -356 0 -492z m667 686 c214 -6 392 -12 394 -15 5 -5 -38 -907
-44 -912 -1 -2 -212 -6 -469 -9 l-466 -6 0 482 0 481 98 -5 c53 -3 272 -10
487 -16z m642 -38 c106 -42 1233 -561 1250 -575 1 -1 -199 -63 -445 -138
l-447 -137 -280 -20 c-154 -10 -281 -18 -281 -17 -1 0 9 206 22 456 13 250 23
463 24 473 0 9 2 17 5 17 3 0 71 -27 152 -59z m3879 -341 c307 -188 564 -347
571 -353 9 -9 -66 -140 -330 -569 -188 -307 -344 -558 -347 -558 -4 0 -201
726 -498 1835 -5 19 -4 19 19 3 14 -9 277 -170 585 -358z m-1336 323 c-5 -16
-120 -413 -255 -883 -135 -470 -248 -864 -252 -874 -3 -13 -99 167 -304 575
-164 326 -296 596 -291 600 6 7 1104 609 1109 609 1 0 -2 -12 -7 -27z m4668
-530 l-3 -478 -300 -6 c-208 -4 -305 -3 -317 5 -13 8 -23 8 -38 -2 -14 -8 -77
-12 -215 -12 l-195 0 0 485 0 485 535 0 535 0 -2 -477z m-1148 -8 l0 -475 -25
0 c-13 0 -120 12 -237 26 l-213 25 -462 147 c-255 81 -463 150 -463 153 0 6
1378 599 1393 599 4 0 7 -214 7 -475z m-3315 -318 c70 -401 125 -730 123 -732
-9 -9 -751 -235 -756 -230 -3 3 107 394 244 870 175 609 251 859 256 843 3
-13 64 -351 133 -751z m707 -110 c130 -485 236 -883 234 -884 -2 -3 -707 254
-712 260 -6 5 230 1507 236 1507 3 0 112 -397 242 -883z m3945 815 c68 -41
259 -126 626 -278 290 -120 527 -221 527 -224 0 -11 -945 -249 -966 -244 -12
3 -28 -1 -36 -10 -9 -8 -62 -27 -119 -41 -57 -14 -112 -28 -121 -31 -17 -5
-18 21 -18 440 0 245 2 446 5 446 2 0 48 -26 102 -58z m-10056 -604 c583
-1811 798 -2482 795 -2485 -3 -4 -2382 2636 -2425 2690 -13 16 27 17 772 17
l786 0 72 -222z m476 31 l423 -154 -1 -245 c0 -355 -25 -2029 -30 -2034 -2 -2
-190 575 -418 1283 -228 707 -416 1292 -419 1300 -3 9 0 12 9 9 8 -2 204 -74
436 -159z m-897 -1304 c667 -742 1226 -1364 1241 -1380 l29 -31 -955 -882
c-526 -486 -961 -885 -968 -888 -9 -3 -87 564 -310 2273 -164 1253 -301 2287
-304 2298 -4 16 1 14 25 -10 16 -16 575 -637 1242 -1380z m4410 1388 c1 -10
34 -738 74 -1618 41 -880 73 -1601 72 -1602 -3 -4 -1041 2933 -1041 2947 0 11
118 51 440 151 242 75 443 137 448 138 4 1 7 -7 7 -16z m8195 -109 c413 -21
753 -40 757 -43 4 -4 -529 -562 -1184 -1241 -1503 -1559 -1439 -1493 -1427
-1462 46 120 1044 2743 1051 2763 6 19 15 25 31 23 12 -2 360 -20 772 -40z
m-4198 -221 c101 -32 182 -61 180 -64 -45 -116 -1243 -2827 -1245 -2817 -2 12
279 2968 294 3079 l5 46 292 -93 c161 -51 374 -119 474 -151z m2786 -1121
c-285 -748 -519 -1359 -521 -1358 -4 5 18 2160 24 2322 l6 141 501 129 c276
72 503 129 505 129 1 -1 -230 -614 -515 -1363z m-6123 193 c1 -16 -424 -1915
-428 -1911 -1 2 -32 640 -67 1417 -35 778 -66 1461 -70 1519 l-5 105 285 -560
c156 -308 285 -564 285 -570z m2328 -454 c-79 -815 -146 -1474 -150 -1464 -4
10 -89 438 -188 951 l-182 933 328 534 c180 294 329 533 331 531 2 -2 -61
-670 -139 -1485z m5627 -851 c-212 -1273 -386 -2318 -388 -2323 -2 -8 -1942
1810 -1942 1821 0 8 2708 2820 2712 2817 1 0 -171 -1043 -382 -2315z m-11385
2259 c173 -31 177 -31 402 -25 l227 7 -2 -38 c-3 -47 -880 -2204 -886 -2177
-5 24 17 1822 25 2082 l6 193 27 -5 c14 -3 105 -20 201 -37z m2177 -1094 c671
-1893 653 -1842 628 -1810 -13 17 -449 615 -970 1330 -520 715 -951 1300 -958
1300 -7 0 -12 7 -13 15 0 8 -3 22 -7 30 -3 8 -11 27 -16 43 -6 15 -16 27 -22
27 -7 0 -9 9 -6 21 3 11 -1 39 -9 61 -8 22 -14 44 -14 48 0 4 116 10 258 14
141 4 331 13 422 20 91 8 198 13 239 12 l74 -1 394 -1110z m6788 323 c-4 -387
-11 -940 -14 -1230 l-6 -528 -429 1173 c-236 644 -431 1177 -433 1183 -3 8 87
13 306 16 194 4 316 9 324 16 12 10 218 70 246 71 11 1 12 -109 6 -701z
m-1720 641 c106 -15 245 -24 411 -28 l252 -6 -1042 -1356 c-572 -746 -1042
-1356 -1043 -1355 -1 1 270 624 604 1384 580 1321 608 1382 632 1382 14 0 98
-10 186 -21z m-6502 -92 c33 -47 138 -349 706 -2021 367 -1081 663 -1962 657
-1959 -46 26 -2356 1718 -2356 1725 0 7 731 1807 902 2220 22 54 43 96 47 94
4 -3 24 -29 44 -59z m7725 -1256 c250 -681 454 -1245 455 -1254 2 -12 -365
-250 -1223 -796 -674 -428 -1227 -777 -1229 -776 -4 5 1533 4065 1539 4065 3
0 209 -557 458 -1239z m-619 1072 c-6 -16 -339 -896 -741 -1958 -401 -1061
-733 -1936 -737 -1942 -4 -8 -144 210 -349 542 l-342 556 1087 1414 c597 778
1087 1415 1089 1415 2 0 -1 -12 -7 -27z m-5900 -1472 l970 -1333 -28 -42
c-321 -469 -656 -954 -665 -963 -9 -10 -155 411 -635 1825 -343 1010 -626
1844 -629 1852 -3 10 -2 12 6 5 5 -5 447 -610 981 -1344z m2257 837 c-51 -167
-249 -821 -442 -1455 -252 -834 -350 -1142 -352 -1115 -1 20 22 612 52 1315
30 702 52 1285 50 1295 -4 14 52 35 388 139 216 67 394 122 394 122 1 1 -40
-135 -90 -301z m584 163 c185 -67 341 -126 349 -130 10 -7 13 -265 17 -1322 2
-723 2 -1309 -1 -1304 -7 16 -725 2860 -725 2875 0 6 6 10 13 7 6 -2 163 -59
347 -126z m-10 -1624 c203 -807 370 -1470 370 -1473 0 -2 -187 -4 -417 -4
l-416 0 6 183 c3 100 21 771 39 1490 18 720 36 1300 40 1290 4 -10 174 -679
378 -1486z m-508 -52 l-37 -1420 -410 3 c-225 2 -411 5 -413 6 -1 2 199 668
445 1480 419 1380 448 1472 450 1413 1 -34 -14 -701 -35 -1482z m1148 190
l167 -860 342 -554 c188 -305 340 -555 338 -557 -1 -2 -230 74 -508 169 l-506
171 -6 711 c-8 789 -7 1831 0 1800 3 -11 81 -407 173 -880z m-2054 -290 c-25
-594 -47 -1102 -48 -1130 -3 -49 -3 -49 -151 265 l-149 315 194 865 c151 678
194 854 196 815 2 -28 -17 -536 -42 -1130z m-2398 -829 c640 -467 1162 -852
1160 -858 -2 -5 -503 -547 -1113 -1205 l-1110 -1196 -7 69 c-7 60 -159 3962
-158 4053 l0 33 33 -24 c17 -14 555 -406 1195 -872z m-1233 -1208 c42 -1098
75 -2005 73 -2016 -2 -14 -285 300 -1041 1156 l-1038 1176 43 42 c24 24 455
423 958 888 l915 845 7 -47 c4 -26 42 -946 83 -2044z m9200 1815 c-2 -16 -68
-937 -146 -2048 -77 -1111 -144 -2028 -148 -2038 -5 -14 -243 256 -1096 1249
-600 697 -1091 1272 -1092 1278 -2 9 2459 1583 2479 1585 4 1 5 -11 3 -26z
m1100 -933 c506 -475 920 -867 920 -871 0 -14 -2220 -2296 -2223 -2285 -2 10
268 3852 284 4035 l6 73 46 -45 c26 -24 461 -433 967 -907z m-6906 166 c102
-215 156 -339 148 -341 -63 -22 -950 -265 -954 -261 -3 2 140 216 318 475 178
259 324 469 326 467 1 -1 74 -154 162 -340z m979 -422 l122 -6 -1 -157 c-1
-86 -4 -186 -8 -223 l-6 -67 -355 231 c-195 126 -356 231 -357 232 -4 3 495
-5 605 -10z m-378 -241 c202 -131 362 -240 357 -242 -12 -4 -1110 20 -1115 24
-4 4 380 455 387 455 2 0 169 -107 371 -237z m1307 231 c-3 -4 -167 -105 -364
-224 l-358 -218 -3 161 c-2 89 0 190 3 225 l7 62 360 0 c199 0 358 -3 355 -6z
m-1834 -36 c-11 -13 -89 -104 -172 -203 -84 -99 -158 -184 -165 -189 -8 -6
-103 23 -266 80 -224 78 -251 89 -225 97 436 123 832 235 839 236 5 0 0 -9
-11 -21z m2200 -213 l195 -230 -294 -3 c-162 -1 -427 -1 -589 0 l-294 3 382
232 c210 128 387 232 394 230 6 -1 99 -105 206 -232z m391 55 c286 -97 421
-147 409 -152 -32 -13 -494 -131 -497 -127 -2 2 -77 92 -167 199 -197 234
-197 234 -183 229 6 -2 203 -69 438 -149z m-3194 -246 l245 -86 235 -451 c129
-249 277 -533 329 -632 51 -99 87 -173 78 -165 -8 8 -261 321 -562 695 -301
374 -557 690 -568 703 -11 12 -16 22 -11 22 5 0 119 -38 254 -86z m-115 -867
c138 -446 244 -802 239 -806 -5 -5 -305 -157 -666 -340 l-658 -332 395 1178
c217 648 398 1185 401 1193 4 9 13 -5 24 -40 9 -30 128 -414 265 -853z m3517
601 c-136 -156 -409 -467 -606 -693 -197 -225 -367 -419 -378 -430 -21 -22 10
34 419 759 l288 509 255 68 c140 37 259 68 263 68 4 1 -104 -126 -241 -281z
m-3992 10 c-48 -145 -228 -681 -400 -1193 -171 -511 -313 -932 -316 -934 -4
-4 -1326 78 -1331 83 -3 2 2128 2305 2134 2306 1 0 -38 -118 -87 -262z m-3225
-933 c544 -616 995 -1127 1002 -1137 13 -15 -50 -96 -614 -796 -345 -429 -629
-779 -630 -778 -2 1 -181 868 -398 1927 -218 1058 -398 1933 -401 1944 -5 16
0 14 24 -10 16 -16 474 -534 1017 -1150z m4209 326 c361 -448 654 -816 652
-819 -4 -3 -829 38 -832 42 -12 21 -497 1613 -489 1604 7 -7 308 -379 669
-827z m3760 -431 c200 -657 363 -1196 362 -1198 -3 -3 -1297 716 -1309 728 -5
4 96 318 223 696 128 379 258 763 288 854 46 138 57 161 64 140 4 -14 172
-563 372 -1220z m-3154 1184 c327 -9 597 -17 599 -19 2 -2 -100 -337 -225
-744 -126 -407 -232 -737 -236 -733 -7 7 -788 1502 -788 1508 0 6 -5 6 650
-12z m3952 -1230 c558 -649 1018 -1186 1022 -1192 5 -9 -149 -12 -671 -12
l-678 0 -339 1113 c-187 611 -354 1161 -372 1221 l-33 110 28 -30 c16 -16 485
-560 1043 -1210z m-1566 412 l-273 -809 -349 2 c-353 1 -517 8 -512 21 5 12
1401 1601 1404 1597 2 -1 -120 -366 -270 -811z m-383 770 c-10 -18 -202 -360
-428 -760 -309 -548 -411 -723 -417 -709 -4 10 -103 344 -218 743 -116 399
-213 733 -216 743 -5 16 30 17 646 17 l650 0 -17 -34z m4851 -2112 c-268
-1066 -489 -1942 -493 -1945 -7 -8 -1216 1610 -1216 1627 0 13 2185 2268 2191
2261 2 -2 -215 -876 -482 -1943z m-6239 558 c-5 -5 -395 15 -401 20 -1 2 88
297 199 656 l202 653 3 -662 c1 -364 0 -664 -3 -667z m285 659 c104 -360 190
-658 190 -663 0 -4 -88 -8 -195 -8 l-195 0 1 673 c0 369 2 668 5 662 2 -5 89
-304 194 -664z m-975 -711 c308 -17 567 -30 575 -30 8 0 -223 -133 -513 -295
-290 -162 -531 -295 -535 -295 -6 0 -62 177 -198 617 l-13 42 62 -5 c34 -3
314 -18 622 -34z m-660 -328 c53 -172 95 -315 93 -317 -3 -3 -1190 12 -1378
18 l-75 2 625 316 c398 201 627 312 632 305 3 -6 50 -152 103 -324z m2533 272
c205 -5 282 -9 279 -18 -41 -114 -211 -582 -212 -584 -3 -3 -1023 603 -1034
613 -5 6 366 1 967 -11z m-1178 -311 l0 -298 -332 3 c-183 2 -414 6 -514 10
l-181 7 511 287 c281 157 512 287 514 287 1 1 2 -133 2 -296z m677 -58 c231
-137 419 -252 417 -254 -1 -1 -230 0 -508 4 l-506 8 0 298 0 298 88 -52 c49
-28 278 -164 509 -302z m1494 -2 c334 -186 606 -339 604 -341 -3 -4 -1439 79
-1443 83 -7 7 212 595 221 595 6 0 283 -152 618 -337z m-5709 -242 c329 -21
600 -40 604 -43 6 -7 655 -3779 651 -3791 -2 -6 -1519 2931 -1908 3694 l-95
188 75 -5 c42 -4 345 -23 673 -43z m88 -1768 c503 -977 966 -1875 1027 -1996
62 -120 107 -215 100 -211 -76 47 -3307 2410 -3305 2418 3 13 1250 1565 1258
1565 3 1 417 -799 920 -1776z m1703 1711 c262 -4 477 -9 477 -13 0 -21 -215
-471 -224 -467 -166 69 -1147 481 -1161 487 -12 5 68 7 205 4 124 -3 440 -8
703 -11z m-410 -296 c510 -213 648 -275 644 -287 -2 -9 -151 -738 -332 -1621
-180 -883 -331 -1608 -334 -1612 -3 -4 -152 844 -330 1885 -178 1041 -327
1898 -329 1906 -7 18 -86 49 681 -271z m2153 269 c3 -3 -24 -483 -29 -518 -1
-12 -121 50 -467 243 -256 142 -476 266 -490 274 -22 14 27 15 479 10 277 -3
506 -7 507 -9z m-627 -302 c318 -177 425 -241 407 -243 -29 -4 -1159 67 -1165
73 -2 3 45 110 104 239 l108 234 56 -31 c32 -18 252 -140 490 -272z m1693 286
c3 -3 -223 -122 -504 -264 l-510 -258 6 48 c3 26 11 148 17 270 l12 222 486
-6 c267 -3 489 -8 493 -12z m1036 -48 c371 -21 668 -39 660 -42 -7 -2 -290
-107 -628 -233 -338 -125 -618 -227 -623 -225 -8 2 -177 519 -177 540 0 5 21
6 48 3 26 -3 350 -22 720 -43z m-768 -251 c45 -145 80 -265 78 -268 -3 -2
-254 0 -559 6 -305 5 -579 10 -609 10 l-55 1 525 264 c289 145 528 260 531
257 4 -4 44 -125 89 -270z m3008 130 c-153 -278 -2103 -3700 -2105 -3694 -2 4
172 851 386 1882 l388 1875 129 5 c71 3 380 7 687 8 l558 2 -43 -78z m-1453
-104 c-17 -84 -193 -935 -391 -1890 -197 -956 -361 -1738 -364 -1738 -5 0
-599 3198 -604 3245 -1 12 167 79 694 275 382 142 695 259 696 259 0 1 -13
-68 -31 -151z m2803 -1510 c-3 -9 -3421 -2227 -3426 -2223 -2 2 2142 3779
2195 3868 6 11 1235 -1632 1231 -1645z m-6345 1193 c335 -22 611 -42 614 -45
3 -3 8 -190 11 -417 4 -352 3 -411 -9 -404 -26 16 -1234 878 -1249 891 -18 18
-81 20 633 -25z m-82 -476 c373 -267 679 -488 679 -491 0 -7 -2042 -2316
-2045 -2312 -6 7 671 3288 678 3288 5 0 314 -218 688 -485z m1789 416 l275 -6
-555 -355 c-305 -195 -592 -378 -637 -407 l-83 -53 0 419 0 420 363 -6 c199
-3 486 -8 637 -12z m698 -1682 c167 -903 302 -1643 300 -1644 -5 -5 -1963
2405 -1963 2415 0 9 1333 867 1350 869 6 1 145 -732 313 -1640z m-1809 -749
c-15 -778 -29 -1449 -31 -1492 l-3 -76 -1000 317 c-550 175 -1000 322 -1000
327 0 7 2058 2344 2061 2340 1 -1 -12 -638 -27 -1416z m1115 182 c542 -667
986 -1216 986 -1220 0 -8 -2040 -536 -2046 -530 -1 2 11 658 27 1458 15 800
29 1471 29 1490 0 20 4 30 9 25 5 -6 452 -556 995 -1223z"/>
</g>
</svg>
