<?xml version="1.0" encoding="utf-8"?>
<!-- Generator: Adobe Illustrator 16.0.0, SVG Export Plug-In . SVG Version: 6.00 Build 0)  -->
<!DOCTYPE svg PUBLIC "-//W3C//DTD SVG 1.1//EN" "http://www.w3.org/Graphics/SVG/1.1/DTD/svg11.dtd">
<svg version="1.1" id="Layer_1" xmlns="http://www.w3.org/2000/svg" xmlns:xlink="http://www.w3.org/1999/xlink" x="0px" y="0px"
	 width="841.891px" height="595.279px" viewBox="0 0 841.891 595.279" enable-background="new 0 0 841.891 595.279"
	 xml:space="preserve">
<g>
	<polygon fill="#6F4D42" points="610.842,96.537 546.12,92.765 610.842,153.807 	"/>
	<polygon fill="#3B2322" points="610.842,205.156 529.716,190.498 554.256,280.446 	"/>
	<polygon fill="#211F33" points="448.284,306.282 537.666,316.019 434.888,397.702 	"/>
	<polygon fill="#38313D" points="306.446,299.895 270.217,334.221 319.618,349.24 	"/>
	<polygon fill="#28202E" points="407.443,330.206 339.024,355.572 376.57,410.289 	"/>
	<polygon fill="#18151F" points="279.016,360.609 335.715,401.439 268.772,409.552 	"/>
	<path fill="#423F41" d="M610.842,277.473l-73.176,38.545c73.176,51.781,73.176,51.781,73.176,51.781V277.473z"/>
	<path fill="none" stroke="#000000" stroke-miterlimit="10" d="M610.842,367.801"/>
	<line fill="none" stroke="#000000" stroke-miterlimit="10" x1="440.534" y1="268.226" x2="469.304" y2="218.951"/>
	<polygon fill="#131118" points="407.443,330.206 440.534,268.226 448.284,306.282 	"/>
	<polygon fill="#6A6B7D" points="466.747,39.17 438.769,111.745 528.531,127.952 	"/>
	<polygon fill="#251F29" points="339.095,115.288 284.776,184.609 380.169,165.329 	"/>
	<polygon fill="#414250" points="414.097,43.019 341.168,74.119 404.324,129.512 	"/>
	<polygon fill="#454048" points="268.76,226.152 309.87,255.223 261.304,306.638 	"/>
	<polygon fill="#0A0809" points="582.113,388.633 467.241,395.802 499.745,445.701 	"/>
	<path fill="none" stroke="#000000" stroke-miterlimit="10" d="M610.842,453.828"/>
	<polygon fill="#0B090B" points="610.842,453.828 522.77,454.578 610.842,529.962 	"/>
	<polygon fill="#382A3D" points="457.507,136.216 529.716,190.498 469.304,218.951 	"/>
	<polygon fill="#675F6F" points="341.168,74.119 339.388,59.348 414.097,43.019 	"/>
	<polygon fill="#837B7D" points="393.419,22.591 361.189,31.63 414.097,43.019 	"/>
	<polygon fill="#5D596C" points="441.532,25.042 414.097,43.019 438.769,111.745 	"/>
	<polygon fill="#7A6974" points="361.189,31.63 339.388,59.348 414.097,43.019 	"/>
	<polygon fill="#8A8284" points="341.168,74.119 329.901,83.958 339.095,115.288 	"/>
	<polygon fill="#967E7C" points="298.216,120.418 314.971,100.814 339.095,115.288 	"/>
	<polygon fill="#1C1B21" points="284.776,184.609 251.375,198.177 268.76,226.152 	"/>
	<path fill="none" stroke="#000000" stroke-miterlimit="10" d="M317.663,213.384"/>
	<polygon fill="#161314" points="317.663,213.384 331.004,210.095 331.454,234.032 	"/>
	<polygon fill="#231F21" points="358.139,222.473 331.004,210.095 341.798,238.02 	"/>
	<polygon fill="#1E1D1F" points="372.162,249.725 358.139,222.473 349.971,243.66 	"/>
	<polygon fill="#22222E" points="364.751,272.93 348.01,256.703 353.622,285.887 	"/>
	<polygon fill="#3A3C48" points="372.162,249.725 348.01,256.703 364.751,272.93 	"/>
	<polygon fill="#342E3D" points="333.051,260.709 324.943,294.665 353.622,285.887 	"/>
	<polygon fill="#403541" points="318.368,255.049 324.943,294.665 333.051,260.709 	"/>
	<polygon fill="#282829" points="317.663,213.384 302.589,225.394 331.454,234.032 	"/>
	<polygon fill="#301C1B" points="309.87,255.223 302.589,225.394 331.454,234.032 	"/>
	<polygon fill="#211C22" points="261.304,306.638 306.446,299.895 309.87,255.223 	"/>
	<polygon fill="#2D2B37" points="270.217,334.221 261.304,306.638 227.49,337.68 	"/>
	<polygon fill="#42282C" points="251.375,198.177 233.848,259.548 268.76,226.152 	"/>
	<polygon fill="#382129" points="226.075,300.34 233.848,259.548 261.304,306.638 	"/>
	<polygon fill="#191A21" points="227.49,337.68 226.075,300.34 261.304,306.638 	"/>
	<polygon fill="#211B26" points="226.651,360.736 227.49,337.68 270.217,334.221 	"/>
	<polygon fill="#5C5559" points="222.913,380.373 226.651,360.736 279.016,360.609 	"/>
	<polygon fill="#464142" points="268.772,409.552 222.913,380.373 246.433,412.82 	"/>
	<polygon fill="#191F1F" points="335.715,401.439 304.103,441.184 268.772,409.552 	"/>
	<polygon fill="#231F1F" points="246.433,412.82 268.772,409.552 304.103,441.184 	"/>
	<polygon fill="#1A181E" points="270.217,334.221 279.016,360.609 226.651,360.736 	"/>
	<polygon fill="#312B39" points="324.943,294.665 306.446,299.895 319.618,349.24 	"/>
	<polygon fill="#2B2733" points="279.016,360.609 319.618,349.24 335.715,401.439 	"/>
	<polygon fill="#585260" points="353.622,285.887 339.024,355.572 324.943,294.665 	"/>
	<polygon fill="#19161D" points="364.751,272.93 407.443,330.206 353.622,285.887 	"/>
	<polygon fill="#413942" points="380.169,165.329 376.374,183.126 284.776,184.609 	"/>
	<polygon fill="#46373B" points="386.682,200.132 376.374,183.126 358.139,222.473 	"/>
	<polygon fill="#0E0E0F" points="405.059,209.132 386.682,200.132 403.055,226.757 	"/>
	<polygon fill="#0A0C0C" points="422.483,209.669 405.059,209.132 431.944,223.353 	"/>
	<polygon fill="#0C0F0D" points="434.738,195.277 422.483,209.669 431.944,223.353 	"/>
	<polygon fill="#1D1F21" points="441.873,178.482 434.738,195.277 469.304,218.951 	"/>
	<polygon fill="#1E1922" points="440.733,162.328 441.873,178.482 457.507,136.216 	"/>
	<polygon fill="#342E3F" points="434.356,141.089 440.733,162.328 457.507,136.216 	"/>
	<polygon fill="#1E1C2B" points="428.342,116.924 434.356,141.089 457.507,136.216 	"/>
	<polygon fill="#1F1D2E" points="438.769,111.745 428.342,116.924 421.373,96.225 	"/>
	<polygon fill="#44404E" points="415.054,100.687 421.373,96.225 414.097,43.019 	"/>
	<polygon fill="#090706" points="407.158,133.096 415.054,100.687 404.324,129.512 	"/>
	<polygon fill="#30222B" points="400.402,155.595 407.158,133.096 380.169,165.329 	"/>
	<polygon fill="#413340" points="341.168,74.119 380.169,165.329 404.324,129.512 	"/>
	<polygon fill="#756569" points="298.216,120.418 276.519,148.86 284.776,184.609 	"/>
	<polygon fill="#4F4955" points="251.375,198.177 276.519,148.86 284.776,184.609 	"/>
	<polygon fill="#384248" points="457.507,136.216 438.769,111.745 528.531,127.952 	"/>
	<polygon fill="#5B4643" points="610.842,153.807 528.531,127.952 529.716,190.498 	"/>
	<polygon fill="#816E72" points="610.842,205.156 610.842,153.807 529.716,190.498 	"/>
	<polygon fill="#544F55" points="466.747,39.17 546.12,92.765 528.531,127.952 	"/>
	<polygon fill="#706E7D" points="393.419,22.591 441.532,25.042 414.097,43.019 	"/>
	<polygon fill="#6E7D8E" points="466.747,39.17 441.532,25.042 438.769,111.745 	"/>
	<polygon fill="#787A89" points="529.934,57.205 466.747,39.17 546.12,92.765 	"/>
	<polygon fill="#58545B" points="570.401,53.642 529.934,57.205 546.12,92.765 	"/>
	<polygon fill="#997351" points="610.842,37.476 570.401,53.642 610.842,96.537 	"/>
	<polygon fill="#48454C" points="469.304,218.951 529.716,190.498 554.256,280.446 	"/>
	<polygon fill="#0A0C10" points="440.534,268.226 469.304,218.951 537.666,316.019 	"/>
	<polygon fill="#22191D" points="372.162,249.725 403.055,226.757 386.682,200.132 	"/>
	<polygon fill="#100E13" points="440.534,268.226 372.162,249.725 407.443,330.206 	"/>
	<polygon fill="#1E1E29" points="448.284,306.282 407.443,330.206 434.888,397.702 	"/>
	<polygon fill="#25202B" points="376.57,410.289 434.888,397.702 407.443,330.206 	"/>
	<polygon fill="#382E3B" points="319.618,349.24 339.024,355.572 324.943,294.665 	"/>
	<polygon fill="#1E1E25" points="335.715,401.439 376.57,410.289 339.024,355.572 	"/>
	<polygon fill="#241F2E" points="304.103,441.184 297.76,475.533 340.16,446.078 	"/>
	<polygon fill="#45424A" points="304.326,517.159 297.76,475.533 340.16,446.078 	"/>
	<polygon fill="#212030" points="311.881,542.302 304.326,517.159 340.16,446.078 	"/>
	<polygon fill="#15151E" points="350.703,508.209 311.881,542.302 340.16,446.078 	"/>
	<polygon fill="#2E2C32" points="376.57,410.289 340.16,446.078 350.703,508.209 	"/>
	<polygon fill="#241F29" points="384.528,486.084 350.703,508.209 376.57,410.289 	"/>
	<polygon fill="#38313F" points="428.361,456.892 384.528,486.084 376.57,410.289 	"/>
	<polygon fill="#211E28" points="434.888,397.702 428.361,456.892 476.694,455.787 	"/>
	<polygon fill="#0E0E10" points="467.241,395.802 476.694,455.787 499.745,445.701 	"/>
	<polygon fill="#231615" points="518.232,479.275 476.694,455.787 499.745,445.701 	"/>
	<polygon fill="#292523" points="553.273,519.612 518.232,479.275 610.842,529.962 	"/>
	<polygon fill="#0A0809" points="499.745,445.701 522.77,454.578 518.232,479.275 	"/>
	<polygon fill="#191A25" points="434.888,397.702 467.241,395.802 476.694,455.787 	"/>
	<polygon fill="#272330" points="537.666,316.019 467.241,395.802 582.113,388.633 	"/>
	<polygon fill="#12110F" points="610.842,367.801 582.113,388.633 610.842,453.828 	"/>
	<polygon fill="#1B1518" points="522.77,454.578 582.113,388.633 610.842,453.828 	"/>
	<polygon fill="#26292E" points="554.256,280.446 537.666,316.019 610.842,277.473 	"/>
	<polygon fill="#4E4244" points="610.842,205.156 610.842,277.473 554.256,280.446 	"/>
	<polygon fill="#0E0E0F" points="431.944,223.353 403.055,226.757 440.534,268.226 	"/>
	<polygon fill="#434652" points="469.304,218.951 431.944,223.353 440.534,268.226 	"/>
	<polygon fill="#C2CAD5" points="415.054,100.687 424.868,157.745 421.373,96.225 	"/>
	<polygon fill="#867E61" points="400.402,155.595 406.419,177.27 424.868,157.745 	"/>
	<polygon fill="#C7CCD8" points="440.733,162.328 424.868,157.745 421.373,96.225 	"/>
	<polygon fill="#665D50" points="406.419,177.27 414.633,196.725 424.868,157.745 	"/>
	<polygon fill="#7E563D" points="386.682,200.132 414.633,196.725 406.419,177.27 	"/>
	<polygon fill="#806A51" points="376.374,183.126 406.419,177.27 386.682,200.132 	"/>
	<polygon fill="#B0ADA9" points="380.169,165.329 406.419,177.27 376.374,183.126 	"/>
	<polygon fill="#584623" points="422.483,209.669 414.633,196.725 405.059,209.132 	"/>
	<polygon fill="#998264" points="434.738,195.277 414.633,196.725 441.873,178.482 	"/>
	<polygon fill="#B8B3AA" points="424.868,157.745 441.873,178.482 414.633,196.725 	"/>
	<polygon fill="#5C4344" points="284.776,184.609 317.663,213.384 302.589,225.394 	"/>
	<polygon fill="#181615" points="268.76,226.152 302.589,225.394 309.87,255.223 	"/>
	<polygon fill="#372B2E" points="284.776,184.609 331.004,210.095 376.374,183.126 	"/>
	<polygon fill="#444144" points="331.454,234.032 341.798,238.02 336.747,245.655 	"/>
	<polygon fill="#413F40" points="318.368,255.049 309.87,255.223 331.454,234.032 	"/>
	<polygon fill="#474249" points="336.747,245.655 318.368,255.049 333.051,260.709 	"/>
	<polygon fill="#4D2F1B" points="348.01,256.703 333.051,260.709 336.747,245.655 	"/>
	<polygon fill="#75686F" points="349.971,243.66 336.747,245.655 348.01,256.703 	"/>
	<polygon fill="#39333D" points="341.798,238.02 349.971,243.66 336.747,245.655 	"/>
	<polygon fill="#6A6465" points="329.901,83.958 314.971,100.814 339.095,115.288 	"/>
	<polygon fill="#515357" points="341.168,74.119 380.169,165.329 339.095,115.288 	"/>
	<polygon fill="#585056" points="298.216,120.418 339.095,115.288 284.776,184.609 	"/>
	<polygon fill="#40373D" points="302.589,225.394 268.76,226.152 284.776,184.609 	"/>
	<polygon fill="#301B1F" points="331.004,210.095 284.776,184.609 317.663,213.384 	"/>
	<polygon fill="#4B3741" points="233.848,259.548 268.76,226.152 261.304,306.638 	"/>
	<polygon fill="#443E46" points="306.446,299.895 261.304,306.638 270.217,334.221 	"/>
	<polygon fill="#263037" points="319.618,349.24 270.217,334.221 279.016,360.609 	"/>
	<polygon fill="#2F273F" points="222.913,380.373 268.772,409.552 279.016,360.609 	"/>
	<polygon fill="#1E1E22" points="335.715,401.439 376.57,410.289 304.103,441.184 	"/>
	<polygon fill="#1A181F" points="340.16,446.078 376.57,410.289 304.103,441.184 	"/>
	<polygon fill="#0F0E14" points="434.888,397.702 376.57,410.289 428.361,456.892 	"/>
	<polygon fill="#2A293B" points="537.666,316.019 434.888,397.702 467.241,395.802 	"/>
	<polygon fill="#2B2937" points="610.842,367.801 537.666,316.019 582.113,388.633 	"/>
	<polygon fill="#131212" points="499.745,445.701 522.77,454.578 582.113,388.633 	"/>
	<polygon fill="#111011" points="518.232,479.275 522.77,454.578 610.842,529.962 	"/>
	<polygon fill="#282C37" points="353.622,285.887 407.443,330.206 339.024,355.572 	"/>
	<polygon fill="#252228" points="333.051,260.709 348.01,256.703 353.622,285.887 	"/>
	<polygon fill="#0F1014" points="309.87,255.223 318.368,255.049 306.446,299.895 	"/>
	<polygon fill="#16141A" points="324.943,294.665 306.446,299.895 318.368,255.049 	"/>
	<polygon fill="#423E46" points="319.618,349.24 339.024,355.572 335.715,401.439 	"/>
	<polygon fill="#13121B" points="372.162,249.725 364.751,272.93 407.443,330.206 	"/>
	<polygon fill="#3B373F" points="349.971,243.66 372.162,249.725 348.01,256.703 	"/>
	<polygon fill="#2C2E40" points="331.454,234.032 318.368,255.049 336.747,245.655 	"/>
	<polygon fill="#322825" points="331.004,210.095 331.454,234.032 341.798,238.02 	"/>
	<polygon fill="#3A2E39" points="358.139,222.473 341.798,238.02 349.971,243.66 	"/>
	<polygon fill="#302223" points="386.682,200.132 358.139,222.473 372.162,249.725 	"/>
	<polygon fill="#161111" points="331.004,210.095 376.374,183.126 358.139,222.473 	"/>
	<polygon fill="#151118" points="403.055,226.757 372.162,249.725 440.534,268.226 	"/>
	<polygon fill="#100E0E" points="405.059,209.132 431.944,223.353 403.055,226.757 	"/>
	<polygon fill="#B8B5AE" points="380.169,165.329 400.402,155.595 406.419,177.27 	"/>
	<polygon fill="#5A4321" points="386.682,200.132 414.633,196.725 405.059,209.132 	"/>
	<polygon fill="#614A2E" points="434.738,195.277 414.633,196.725 422.483,209.669 	"/>
	<polygon fill="#201B2B" points="469.304,218.951 434.738,195.277 431.944,223.353 	"/>
	<polygon fill="#2A2430" points="554.256,280.446 469.304,218.951 537.666,316.019 	"/>
	<polygon fill="#0A090C" points="448.284,306.282 440.534,268.226 537.666,316.019 	"/>
	<polygon fill="#2A202B" points="457.507,136.216 441.873,178.482 469.304,218.951 	"/>
	<polygon fill="#3F3E42" points="528.531,127.952 457.507,136.216 529.716,190.498 	"/>
	<polygon fill="#251F22" points="404.324,129.512 407.158,133.096 380.169,165.329 	"/>
	<polygon fill="#221F37" points="414.097,43.019 415.054,100.687 404.324,129.512 	"/>
	<polygon fill="#424248" points="438.769,111.745 421.373,96.225 414.097,43.019 	"/>
	<polygon fill="#46444E" points="428.342,116.924 438.769,111.745 457.507,136.216 	"/>
	<polygon fill="#181313" points="546.12,92.765 528.531,127.952 610.842,153.807 	"/>
	<polygon fill="#6E5953" points="570.401,53.642 546.12,92.765 610.842,96.537 	"/>
	<polygon fill="#C7B6AA" points="415.054,100.687 400.402,155.595 424.868,157.745 	"/>
	<polygon fill="#D8D8D7" points="440.733,162.328 424.868,157.745 441.873,178.482 	"/>
</g>
</svg>
