<?xml version="1.0" encoding="utf-8"?>
<!-- Generator: Adobe Illustrator 16.0.0, SVG Export Plug-In . SVG Version: 6.00 Build 0)  -->
<!DOCTYPE svg PUBLIC "-//W3C//DTD SVG 1.1 Tiny//EN" "http://www.w3.org/Graphics/SVG/1.1/DTD/svg11-tiny.dtd">
<svg version="1.1" baseProfile="tiny" id="Layer_1" xmlns="http://www.w3.org/2000/svg" xmlns:xlink="http://www.w3.org/1999/xlink"
	 x="0px" y="0px" width="841.891px" height="595.279px" viewBox="0 0 841.891 595.279" xml:space="preserve">
<g>
	<polygon fill="#710B2F" points="494.001,126.614 461.333,138.28 504.001,160.28 	"/>
	<polygon fill="#90063D" points="508.667,141.28 548.001,170.947 524.333,135.614 	"/>
	<polygon fill="#910525" points="523.667,170.947 508.667,177.614 538.333,200.947 	"/>
	<polygon fill="#440405" points="508.667,195.947 493.667,203.614 516.001,225.614 	"/>
	<polygon fill="#F6F8EC" points="471.001,187.947 487.001,200.947 467.333,224.28 	"/>
	<polygon fill="#EDEAE4" points="481.333,217.614 499.333,216.28 510.333,247.28 	"/>
	<polygon fill="#410E1C" points="534.001,208.947 522.977,214.067 548.001,239.28 	"/>
	<polygon fill="#292014" points="526.335,259.614 553.333,277.947 548.001,257.614 	"/>
	<polygon fill="#432239" points="579.667,297.64 553.333,277.947 568.001,275.28 	"/>
	<path fill="none" stroke="#231F20" stroke-miterlimit="10" d="M606.333,319.947"/>
	<polygon fill="#49322E" points="606.333,319.947 579.667,297.64 591.333,297.64 	"/>
	<polygon fill="#220F0F" points="629.001,343.28 606.333,319.947 617.667,325.613 	"/>
	<path fill="none" stroke="#231F20" stroke-miterlimit="10" d="M650.333,359.613"/>
	<polygon fill="#170A0C" points="650.333,359.613 629.001,343.28 636.001,343.28 	"/>
	<polygon fill="#D3CDC5" points="526.335,259.614 510.333,247.28 524.667,239.28 	"/>
	<polygon fill="#3A2342" points="557.667,210.78 577.667,239.28 561.251,231.78 	"/>
	<polygon fill="#4B414D" points="591.667,259.614 577.667,239.28 573.335,252.947 	"/>
	<polygon fill="#715965" points="608.001,284.614 591.667,259.614 587.667,272.114 	"/>
	<polygon fill="#594B4A" points="624.335,306.947 608.001,284.614 603.903,295.045 	"/>
	<polygon fill="#454646" points="639.667,327.947 624.335,306.947 622.001,317.447 	"/>
	<polygon fill="#444941" points="647.001,343.28 639.667,327.947 639.667,334.947 	"/>
	<polygon fill="#403825" points="650.333,359.613 647.001,343.28 639.667,334.947 	"/>
	<polygon fill="#381824" points="516.001,225.614 544.001,244.947 522.977,214.067 	"/>
	<polygon fill="#361E28" points="563.667,265.614 544.001,244.947 557.667,247.28 	"/>
	<polygon fill="#53444D" points="585.669,286.46 563.667,265.614 574.669,265.614 	"/>
	<polygon fill="#5E4B4D" points="600.669,303.28 585.669,286.46 596.001,286.46 	"/>
	<polygon fill="#1C080E" points="617.667,319.947 600.669,303.28 612.335,306.947 	"/>
	<polygon fill="#381F26" points="636.001,343.28 617.667,319.947 639.667,334.947 	"/>
	<polygon fill="#550C22" points="538.333,200.947 534.001,208.947 557.667,210.78 	"/>
	<polygon fill="#840528" points="548.001,170.947 557.667,210.78 557.667,182.28 	"/>
	<polygon fill="#940F4B" points="543.167,145.614 548.001,170.947 553.835,163.114 	"/>
	<polygon fill="#860240" points="557.667,182.28 548.001,170.947 553.835,163.114 	"/>
	<polygon fill="#97254F" points="494.001,126.614 508.667,141.28 524.333,135.614 	"/>
	<polygon fill="#8F8C9A" points="425.335,155.614 440.335,138.947 445.667,158.28 	"/>
	<polygon fill="#5E5A6E" points="467.333,123.947 440.335,138.947 461.333,138.28 	"/>
	<polygon fill="#5E566B" points="493.667,118.614 467.333,123.947 494.001,126.614 	"/>
	<polygon fill="#82738D" points="520.667,123.947 493.667,118.614 524.333,135.614 	"/>
	<polygon fill="#7A2B43" points="543.167,145.614 520.667,123.947 524.333,135.614 	"/>
	<polygon fill="#8C8289" points="461.333,138.28 445.667,158.28 470.335,172.697 	"/>
	<polygon fill="#680320" points="504.001,160.28 470.335,172.697 461.333,138.28 	"/>
	<polygon fill="#6C5E79" points="425.335,155.614 414.001,177.947 432.167,180.28 	"/>
	<polygon fill="#695F75" points="402.667,212.28 414.001,177.947 432.167,180.28 	"/>
	<polygon fill="#4E494D" points="398.501,246.114 402.667,212.28 423.001,216.28 	"/>
	<polygon fill="#615265" points="403.333,288.114 398.501,246.114 418.667,243.28 	"/>
	<polygon fill="#7B7479" points="407.335,323.947 403.333,288.114 420.945,286.46 	"/>
	<polygon fill="#231C0B" points="490.667,257.614 481.333,275.28 460.001,255.28 	"/>
	<polygon fill="#5A4C42" points="526.335,259.614 504.835,255.28 510.333,247.28 	"/>
	<polygon fill="#685D4C" points="490.667,257.614 504.835,255.28 494.285,230.864 	"/>
	<polygon fill="#CDD1D6" points="420.945,286.46 431.001,264.87 449.333,297.28 	"/>
	<polygon fill="#A19AA6" points="396.667,362.28 407.335,323.947 416.667,343.114 	"/>
	<polygon fill="#9D96A1" points="381.333,389.613 396.667,362.28 411.833,369.28 	"/>
	<polygon fill="#5E5755" points="418.667,243.28 423.001,216.28 445.667,224.28 	"/>
	<polygon fill="#514952" points="432.167,180.28 423.001,216.28 447.667,205.864 	"/>
	<polygon fill="#979395" points="445.667,158.28 432.167,180.28 470.335,172.697 	"/>
	<polygon fill="#D3D6CD" points="447.667,205.864 471.001,187.947 470.335,172.697 	"/>
	<polygon fill="#9893AF" points="381.333,389.613 376.667,394.947 390.333,410.613 	"/>
	<polygon fill="#BAB8CB" points="364.333,394.28 376.667,394.947 362,424.947 	"/>
	<polygon fill="#DBE0F8" points="350.333,375.946 364.333,394.28 342.667,412.947 	"/>
	<polygon fill="#45434C" points="475.335,303.28 481.333,275.28 453.667,275.28 	"/>
	<polygon fill="#C5C6C6" points="475.335,336.28 475.335,303.28 451.001,317.447 	"/>
	<polygon fill="#C8C9D5" points="477.001,369.613 475.335,336.28 461.335,352.946 	"/>
	<polygon fill="#A9ADB1" points="470.667,407.28 477.001,369.613 460.001,382.947 	"/>
	<polygon fill="#969288" points="456.333,444.947 470.667,407.28 444.333,410.613 	"/>
	<polygon fill="#97928D" points="439.001,472.613 456.333,444.947 411.833,453.113 	"/>
	<polygon fill="#857A6F" points="421.001,495.613 439.001,472.613 404.001,480.946 	"/>
	<polygon fill="#564C46" points="388.667,517.28 421.001,495.613 380,477.844 	"/>
	<polygon fill="#655A5A" points="362,530.28 388.667,517.28 357.667,475.946 	"/>
	<path fill="none" stroke="#231F20" stroke-miterlimit="10" d="M328,532.613"/>
	<polygon fill="#2C1E16" points="328,532.613 362,530.28 345,505.946 	"/>
	<polygon fill="#584B4C" points="295.667,528.613 328,532.613 319.667,482.28 	"/>
	<polygon fill="#402D25" points="252.667,514.613 295.667,528.613 294.333,497.613 	"/>
	<polygon fill="#110608" points="214.333,493.28 252.667,514.613 263,482.28 	"/>
	<path fill="none" stroke="#231F20" stroke-miterlimit="10" d="M182.333,479.613"/>
	<polygon fill="#0F0806" points="182.333,479.613 214.333,493.28 217.333,462.613 	"/>
	<polygon fill="#483A2C" points="173,475.946 182.333,479.613 205.167,436.613 	"/>
	<polygon fill="#E7E9F7" points="339,336.28 350.333,375.946 312.667,380.946 	"/>
	<polygon fill="#C7BFC7" points="323.333,291.28 339,336.28 290.333,338.28 	"/>
	<polygon fill="#C9BDCD" points="307,255.28 323.333,291.28 281.333,291.28 	"/>
	<polygon fill="#B09C9A" points="288,220.28 307,255.28 269.667,257.614 	"/>
	<polygon fill="#978A9A" points="264,193.613 288,220.28 253,230.864 	"/>
	<polygon fill="#817184" points="235.333,177.947 264,193.613 232.333,207.613 	"/>
	<polygon fill="#907F88" points="196,160.28 235.333,177.947 207.333,180.28 	"/>
	<polygon fill="#8E777D" points="173,155.614 196,160.28 184.5,180.28 	"/>
	<polygon fill="#A48F94" points="173,193.613 201.667,220.28 173,247.114 	"/>
	<polygon fill="#B3A59E" points="173,247.114 199,289.28 173,299.946 	"/>
	<polygon fill="#A38E85" points="173,299.946 205,322.28 173,362.28 	"/>
	<polygon fill="#948781" points="173,362.28 194.667,367.28 173,426.114 	"/>
	<polygon fill="#6D6058" points="193,410.613 173,426.114 173,475.946 	"/>
	<polygon fill="#88042D" points="504.001,160.28 508.667,141.28 494.001,126.614 	"/>
	<polygon fill="#45030A" points="470.335,172.697 486.251,176.405 504.001,160.28 	"/>
	<polygon fill="#32030C" points="471.001,187.947 486.251,176.405 470.335,172.697 	"/>
	<polygon fill="#4B3032" points="487.001,200.947 478.292,182.428 471.001,187.947 	"/>
	<polygon fill="#49091B" points="493.667,203.614 487.001,200.947 501.876,189.28 	"/>
	<polygon fill="#170305" points="508.667,195.947 501.876,189.28 508.667,177.614 	"/>
	<polygon fill="#410104" points="504.001,160.28 486.251,176.405 495.833,179.155 	"/>
	<polygon fill="#230202" points="508.667,177.614 495.833,179.155 501.876,189.28 	"/>
	<polygon fill="#7E052C" points="504.001,160.28 508.667,177.614 495.833,179.155 	"/>
	<polygon fill="#9B120B" points="478.292,182.428 495.833,179.155 486.251,176.405 	"/>
	<polygon fill="#400100" points="481.938,190.184 496.063,193.839 487.001,200.947 	"/>
	<polygon fill="#7B2227" points="487.167,180.772 499.13,184.679 495.833,179.155 	"/>
	<polygon fill="#7A1708" points="481.938,190.184 487.167,180.772 478.292,182.428 	"/>
	<polygon fill="#B54741" points="499.13,184.679 489.718,192.197 501.876,189.28 	"/>
	<polygon fill="#000205" points="484.997,184.679 489.718,192.197 499.13,184.679 	"/>
	<polygon fill="#85031A" points="504.001,160.28 523.667,170.947 508.667,141.28 	"/>
	<polygon fill="#890325" points="548.001,170.947 523.667,170.947 508.667,141.28 	"/>
	<polygon fill="#690323" points="538.333,200.947 548.001,170.947 557.667,210.78 	"/>
	<polygon fill="#50020C" points="508.667,195.947 538.333,200.947 508.667,177.614 	"/>
	<polygon fill="#41030C" points="522.977,214.067 508.667,195.947 523.501,198.447 	"/>
	<polygon fill="#610114" points="534.001,208.947 523.501,198.447 538.333,200.947 	"/>
	<polygon fill="#421E2C" points="561.251,231.78 534.001,208.947 557.667,210.78 	"/>
	<polygon fill="#544244" points="548.001,239.28 561.251,231.78 534.001,208.947 	"/>
	<polygon fill="#63555F" points="544.001,244.947 548.001,239.28 522.977,214.067 	"/>
	<polygon fill="#69575E" points="557.667,247.28 548.001,239.28 544.001,244.947 	"/>
	<polygon fill="#462B2E" points="561.251,231.78 557.667,247.28 548.001,239.28 	"/>
	<polygon fill="#422130" points="577.667,239.28 557.667,247.28 561.251,231.78 	"/>
	<polygon fill="#040104" points="563.667,265.614 573.335,252.947 557.667,247.28 	"/>
	<polygon fill="#270E19" points="574.669,265.614 591.667,259.614 573.335,252.947 	"/>
	<polygon fill="#381921" points="585.669,286.46 587.667,272.114 574.669,265.614 	"/>
	<polygon fill="#553F44" points="608.001,284.614 596.001,286.46 587.667,272.114 	"/>
	<polygon fill="#261016" points="603.903,295.045 600.669,303.28 612.335,306.947 	"/>
	<polygon fill="#382030" points="624.335,306.947 617.667,319.947 622.001,317.447 	"/>
	<polygon fill="#4B3C4B" points="612.335,306.947 624.335,306.947 603.903,295.045 	"/>
	<polygon fill="#361F2E" points="639.667,334.947 622.001,317.447 617.667,319.947 	"/>
	<polygon fill="#190A09" points="617.667,325.613 617.667,319.947 606.333,319.947 	"/>
	<polygon fill="#301311" points="591.333,297.64 600.669,303.28 606.333,319.947 	"/>
	<polygon fill="#42201F" points="568.001,275.28 585.669,286.46 579.667,297.64 	"/>
	<polygon fill="#13050C" points="548.001,257.614 563.667,265.614 553.333,277.947 	"/>
	<polygon fill="#CEC9C2" points="524.667,239.28 544.001,244.947 526.335,259.614 	"/>
	<polygon fill="#0C0104" points="548.001,257.614 544.001,244.947 526.335,259.614 	"/>
	<polygon fill="#FDF9F0" points="499.333,216.28 516.001,225.614 510.333,247.28 	"/>
	<polygon fill="#DDDDD0" points="524.667,239.28 516.001,225.614 510.333,247.28 	"/>
	<polygon fill="#A9A7A6" points="447.667,205.864 467.333,224.28 471.001,187.947 	"/>
	<polygon fill="#4A4445" points="445.667,224.28 467.333,224.28 447.667,205.864 	"/>
	<polygon fill="#98928B" points="418.667,243.28 431.001,264.87 445.667,224.28 	"/>
	<polygon fill="#CFD1CF" points="449.333,297.28 453.667,275.28 431.001,264.87 	"/>
	<polygon fill="#766E75" points="403.333,288.114 420.945,286.46 418.667,243.28 	"/>
	<polygon fill="#C9C6C1" points="460.001,255.28 431.001,264.87 453.667,275.28 	"/>
	<polygon fill="#5F5853" points="467.333,224.28 445.667,224.28 460.001,255.28 	"/>
	<polygon fill="#736858" points="490.667,257.614 467.333,224.28 494.285,230.864 	"/>
	<polygon fill="#C1BEB1" points="481.333,217.614 487.001,200.947 467.333,224.28 	"/>
	<polygon fill="#F4F0EA" points="499.333,216.28 487.001,200.947 481.333,217.614 	"/>
	<polygon fill="#C4A99B" points="493.667,203.614 499.333,216.28 487.001,200.947 	"/>
	<polygon fill="#D2D1CB" points="449.333,297.28 451.001,317.447 475.335,303.28 	"/>
	<polygon fill="#B7B1B1" points="407.335,323.947 451.001,317.447 420.945,286.46 	"/>
	<polygon fill="#989396" points="416.667,343.114 451.001,317.447 407.335,323.947 	"/>
	<polygon fill="#B7B6B8" points="411.833,369.28 435.139,363.28 416.667,343.114 	"/>
	<polygon fill="#A9A5A6" points="390.333,410.613 416.001,402.781 411.833,369.28 	"/>
	<polygon fill="#9D9CA2" points="362,426.114 390.333,410.613 380,444.113 	"/>
	<polygon fill="#AEA9A7" points="444.333,410.613 416.001,402.781 411.833,453.113 	"/>
	<polygon fill="#888681" points="411.833,369.28 437.835,385.114 416.001,402.781 	"/>
	<polygon fill="#BCBBB7" points="444.333,410.613 437.835,385.114 460.001,382.947 	"/>
	<polygon fill="#AAA9A4" points="435.139,363.28 451.001,317.447 416.667,343.114 	"/>
	<polygon fill="#CAC9C6" points="461.335,352.946 435.139,363.28 451.001,317.447 	"/>
	<polygon fill="#BDBBB8" points="437.835,385.114 435.139,363.28 411.833,369.28 	"/>
	<polygon fill="#C2C1BB" points="461.335,352.946 435.139,363.28 460.001,382.947 	"/>
	<polygon fill="#B8B5B7" points="380,444.113 411.833,453.113 390.333,410.613 	"/>
	<polygon fill="#BAB9C0" points="357.667,475.946 380,444.113 362,426.114 	"/>
	<polygon fill="#888276" points="380,477.844 357.667,475.946 388.667,517.28 	"/>
	<polygon fill="#9D9690" points="380,444.113 380,477.844 357.667,475.946 	"/>
	<polygon fill="#9B968F" points="411.833,453.113 380,477.844 380,444.113 	"/>
	<polygon fill="#877F71" points="404.001,480.946 379.333,477.844 421.001,495.613 	"/>
	<polygon fill="#9A9387" points="411.833,453.113 404.001,480.946 439.001,472.613 	"/>
	<polygon fill="#CDCED6" points="342.667,412.947 362,426.114 328,438.28 	"/>
	<polygon fill="#C6C5CC" points="357.667,475.946 328,438.28 362,426.114 	"/>
	<polygon fill="#948D8D" points="319.667,482.28 328,438.28 357.667,475.946 	"/>
	<polygon fill="#908981" points="345,505.946 319.667,482.28 357.667,475.946 	"/>
	<polygon fill="#8D8578" points="294.333,497.613 263,482.28 295.667,462.613 	"/>
	<polygon fill="#504840" points="319.667,482.28 294.333,497.613 295.667,462.613 	"/>
	<polygon fill="#A69A95" points="328,438.28 295.667,462.613 284,424.947 	"/>
	<polygon fill="#E0E1E9" points="312.667,380.946 342.667,412.947 328,438.28 	"/>
	<polygon fill="#C4B4AF" points="284,424.947 254,380.946 312.667,380.946 	"/>
	<polygon fill="#B4AA9E" points="290.333,338.28 254,380.946 312.667,380.946 	"/>
	<polygon fill="#8E8074" points="205,322.28 241.25,346.03 194.667,367.28 	"/>
	<polygon fill="#8D8172" points="228.5,396.78 194.667,367.28 254,380.946 	"/>
	<polygon fill="#564844" points="193,410.613 231.25,422.53 217.333,462.613 	"/>
	<path fill="none" stroke="#231F20" stroke-miterlimit="10" d="M217.333,462.613"/>
	<polygon fill="#A6998F" points="228.5,396.78 231.25,422.53 284,424.947 	"/>
	<polygon fill="#7D6A5F" points="217.333,462.613 231.25,422.53 284,424.947 	"/>
	<polygon fill="#958A80" points="263,482.28 217.333,462.613 284,424.947 	"/>
	<polygon fill="#594D46" points="194.667,367.28 193,410.613 228.5,396.78 	"/>
	<polygon fill="#9C9089" points="199,289.28 250.125,294.78 205,322.28 	"/>
	<polygon fill="#BFB1B9" points="201.667,220.28 204.375,256.155 253,230.864 	"/>
	<polygon fill="#AA9BA2" points="269.667,257.614 253,230.864 204.375,256.155 	"/>
	<polygon fill="#A59BA0" points="281.333,291.28 269.667,257.614 250.125,294.78 	"/>
	<polygon fill="#9D8A84" points="290.333,338.28 249.649,295.07 281.333,291.28 	"/>
	<polygon fill="#B6ABA3" points="241.25,346.03 290.333,338.28 254,380.946 	"/>
	<polygon fill="#968471" points="249.649,295.07 241.25,346.03 205,322.28 	"/>
	<polygon fill="#9F9390" points="204.375,256.155 199,289.28 249.649,295.07 	"/>
	<polygon fill="#D9CCD3" points="173,247.114 204.375,256.155 199,289.28 	"/>
	<polygon fill="#786264" points="207.333,180.28 232.333,207.613 201.667,220.28 	"/>
	<polygon fill="#8A7678" points="253,230.864 232.333,207.613 201.667,220.28 	"/>
	<polygon fill="#927F84" points="184.5,180.28 173,193.613 173,155.614 	"/>
	<polygon fill="#6B4F50" points="207.333,180.28 184.5,180.28 201.667,220.28 	"/>
	<polygon fill="#514655" points="440.335,138.947 461.333,138.28 445.667,158.28 	"/>
	<polygon fill="#5D5A64" points="467.333,123.947 461.333,138.28 494.001,126.614 	"/>
	<polygon fill="#452E42" points="493.667,118.614 494.001,126.614 524.333,135.614 	"/>
	<polygon fill="#7E7083" points="425.335,155.614 445.667,158.28 432.167,180.28 	"/>
	<polygon fill="#6A6270" points="402.667,212.28 432.167,180.28 423.001,216.28 	"/>
	<polygon fill="#7B7480" points="398.501,246.114 423.001,216.28 418.667,243.28 	"/>
	<polygon fill="#433741" points="445.667,224.28 447.667,205.864 423.001,216.28 	"/>
	<polygon fill="#7B707B" points="432.167,180.28 470.335,172.697 447.667,205.864 	"/>
	<polygon fill="#968F83" points="467.333,224.28 481.333,217.614 494.285,230.864 	"/>
	<polygon fill="#665D51" points="431.001,264.87 460.001,255.28 445.667,224.28 	"/>
	<polygon fill="#928D8C" points="420.945,286.46 418.667,243.28 431.001,264.87 	"/>
	<polygon fill="#C8C9C6" points="451.001,317.447 420.945,286.46 449.333,297.28 	"/>
	<polygon fill="#C8C8C6" points="453.667,275.28 449.333,297.28 475.335,303.28 	"/>
	<polygon fill="#4B4444" points="460.001,255.28 453.667,275.28 481.333,275.28 	"/>
	<polygon fill="#4D463F" points="467.333,224.28 460.001,255.28 490.667,257.614 	"/>
	<polygon fill="#6E6153" points="494.285,230.864 504.835,255.28 510.333,247.28 	"/>
	<polygon fill="#DC5F30" points="484.997,184.679 481.938,190.184 489.718,192.197 	"/>
	<polygon fill="#85351A" points="487.167,180.772 484.997,184.679 499.13,184.679 	"/>
	<polygon fill="#B43513" points="501.876,189.28 489.718,192.197 496.063,193.839 	"/>
	<polygon fill="#490E20" points="493.667,203.614 501.876,189.28 508.667,195.947 	"/>
	<polygon fill="#DECBCE" points="516.001,225.614 499.333,216.28 493.667,203.614 	"/>
	<polygon fill="#530C2A" points="522.977,214.067 516.001,225.614 508.667,195.947 	"/>
	<polygon fill="#4C0212" points="523.501,198.447 522.977,214.067 534.001,208.947 	"/>
	<polygon fill="#564545" points="516.001,225.614 524.667,239.28 544.001,244.947 	"/>
	<polygon fill="#2A171E" points="563.667,265.614 548.001,257.614 544.001,244.947 	"/>
	<polygon fill="#2F1219" points="568.001,275.28 563.667,265.614 553.333,277.947 	"/>
	<polygon fill="#17080F" points="573.335,252.947 563.667,265.614 574.669,265.614 	"/>
	<polygon fill="#3F1F23" points="557.667,247.28 573.335,252.947 577.667,239.28 	"/>
	<polygon fill="#40192C" points="587.667,272.114 574.669,265.614 591.667,259.614 	"/>
	<polygon fill="#30131B" points="568.001,275.28 563.667,265.614 585.669,286.46 	"/>
	<polygon fill="#3F1E18" points="579.667,297.64 585.669,286.46 591.333,297.64 	"/>
	<polygon fill="#1E0A0C" points="600.669,303.28 585.669,286.46 591.333,297.64 	"/>
	<polygon fill="#58484D" points="587.667,272.114 585.669,286.46 596.001,286.46 	"/>
	<polygon fill="#320E15" points="608.001,284.614 596.001,286.46 600.669,303.28 	"/>
	<polygon fill="#1A0909" points="617.667,319.947 606.333,319.947 600.669,303.28 	"/>
	<polygon fill="#473342" points="624.335,306.947 612.335,306.947 617.667,319.947 	"/>
	<polygon fill="#1B110C" points="636.001,343.28 629.001,343.28 617.667,325.613 	"/>
	<polygon fill="#2F1733" points="639.667,334.947 636.001,343.28 650.333,359.613 	"/>
	<polygon fill="#281210" points="617.667,319.947 617.667,325.613 636.001,343.28 	"/>
	<polygon fill="#434049" points="622.001,317.447 639.667,327.947 639.667,334.947 	"/>
	<polygon fill="none" points="451.001,317.447 475.335,336.28 461.335,352.946 	"/>
	<polygon fill="#A8A2A7" points="396.667,362.28 416.667,343.114 411.833,369.28 	"/>
	<polygon fill="#938A97" points="381.333,389.613 411.833,369.28 390.333,410.613 	"/>
	<polygon fill="#BDBBBB" points="416.001,402.781 390.333,410.613 411.833,453.113 	"/>
	<polygon fill="#A8A29F" points="437.835,385.114 416.001,402.781 444.333,410.613 	"/>
	<polygon fill="#A9A8A6" points="435.139,363.28 437.835,385.114 460.001,382.947 	"/>
	<polygon fill="#BAB9C1" points="451.001,317.447 475.335,336.28 461.335,352.946 	"/>
	<polygon fill="#CACFD1" points="460.001,382.947 477.001,369.613 461.335,352.946 	"/>
	<polygon fill="#C5C6CB" points="444.333,410.613 470.667,407.28 460.001,382.947 	"/>
	<polygon fill="#888581" points="411.833,453.113 444.333,410.613 456.333,444.947 	"/>
	<polygon fill="#90887E" points="379.333,477.844 411.833,453.113 404.001,480.946 	"/>
	<polygon fill="#4A4339" points="357.667,475.946 345,505.946 362,530.28 	"/>
	<polygon fill="#4F4944" points="319.667,482.28 345,505.946 328,532.613 	"/>
	<polygon fill="#6F6560" points="294.333,497.613 319.667,482.28 295.667,528.613 	"/>
	<polygon fill="#645752" points="263,482.28 294.333,497.613 252.667,514.613 	"/>
	<polygon fill="#3A251A" points="217.333,462.613 263,482.28 214.333,493.28 	"/>
	<polygon fill="#756356" points="205.167,436.614 217.333,462.613 182.333,479.613 	"/>
	<polygon fill="#7B675C" points="193,410.613 205.167,436.614 173,475.946 	"/>
	<polygon fill="#82736C" points="194.667,367.28 193,410.613 173,426.114 	"/>
	<polygon fill="#988C82" points="228.5,396.78 193,410.613 231.25,422.53 	"/>
	<polygon fill="#B29F8E" points="254,380.946 228.5,396.78 284,424.947 	"/>
	<polygon fill="#88776B" points="295.667,462.613 263,482.28 284,424.947 	"/>
	<polygon fill="#CAC7C4" points="328,438.28 295.667,462.613 319.667,482.28 	"/>
	<polygon fill="#C2BEC0" points="312.667,380.946 284,424.947 328,438.28 	"/>
	<polygon fill="#F0F8FF" points="350.333,375.946 312.667,380.946 342.667,412.947 	"/>
	<polygon fill="#CCCCDB" points="364.333,394.28 342.667,412.947 362,426.114 	"/>
	<polygon fill="#BAB9C5" points="376.667,394.947 362,426.114 390.333,410.613 	"/>
	<polygon fill="#C6BAB2" points="339,336.28 290.333,338.28 312.667,380.946 	"/>
	<polygon fill="#A38F83" points="241.25,346.03 249.649,295.07 290.333,338.28 	"/>
	<polygon fill="#6E5A4D" points="194.667,367.28 241.25,346.03 254,380.946 	"/>
	<polygon fill="#9C8981" points="205,322.28 173,362.28 194.667,367.28 	"/>
	<polygon fill="#AC9C91" points="173,299.946 199,289.28 205,322.28 	"/>
	<polygon fill="#908188" points="204.375,256.155 269.667,257.614 249.649,295.07 	"/>
	<polygon fill="#A3999C" points="307,255.28 269.667,257.614 281.333,291.28 	"/>
	<polygon fill="#CBBEB5" points="323.333,291.28 281.333,291.28 290.333,338.28 	"/>
	<polygon fill="#74594D" points="253,230.864 288,220.28 269.667,257.614 	"/>
	<polygon fill="#A19499" points="207.333,180.28 235.333,177.947 232.333,207.613 	"/>
	<polygon fill="#A38C89" points="184.5,180.28 207.333,180.28 196,160.28 	"/>
	<polygon fill="#725B62" points="173,193.613 201.667,220.28 184.5,180.28 	"/>
	<polygon fill="#907D76" points="173,247.114 204.375,256.155 201.667,220.28 	"/>
	<polygon fill="#8E7B71" points="232.333,207.613 264,193.613 253,230.864 	"/>
	<polygon fill="#830A41" points="524.333,135.614 543.167,145.614 548.001,170.947 	"/>
	<polygon fill="#880521" points="523.667,170.947 548.001,170.947 538.333,200.947 	"/>
	<polygon fill="#9B0630" points="504.001,160.28 523.667,170.947 508.667,177.614 	"/>
</g>
</svg>
