<?xml version="1.0" encoding="utf-8"?>
<!-- Generator: Adobe Illustrator 16.0.0, SVG Export Plug-In . SVG Version: 6.00 Build 0)  -->
<!DOCTYPE svg PUBLIC "-//W3C//DTD SVG 1.1 Tiny//EN" "http://www.w3.org/Graphics/SVG/1.1/DTD/svg11-tiny.dtd">
<svg version="1.1" baseProfile="tiny" id="Layer_1" xmlns="http://www.w3.org/2000/svg" xmlns:xlink="http://www.w3.org/1999/xlink"
	 x="0px" y="0px" width="841.891px" height="595.279px" viewBox="0 0 841.891 595.279" xml:space="preserve">
<g>
	<polygon fill="#65A8CF" points="170.445,224.64 147.445,253.64 194.945,267.64 	"/>
	<polygon fill="#0F5555" points="233.945,234.14 194.945,267.64 239.945,282.14 	"/>
	<polygon fill="#448A97" points="151.445,313.64 204.445,327.14 194.945,267.64 	"/>
	<polygon fill="#528B90" points="239.945,282.14 204.445,327.14 242.945,323.14 	"/>
	<polygon fill="#14879A" points="135.445,289.64 147.445,253.64 151.445,313.64 	"/>
	<polygon fill="#3B6B78" points="171.195,346.64 151.445,313.64 204.445,327.14 	"/>
	<polygon fill="#42645F" points="217.445,352.64 204.445,327.14 242.945,323.14 	"/>
	<polygon fill="#8CBAD8" points="209.445,207.64 170.445,224.64 233.945,234.14 	"/>
	<polygon fill="#84B3D3" points="458.445,158.14 435.445,198.14 406.945,164.14 	"/>
	<polygon fill="#074341" points="461.945,242.14 435.445,198.14 430.445,238.64 	"/>
	<polygon fill="#528081" points="451.945,277.14 461.945,242.14 502.445,258.14 	"/>
	<polygon fill="#669EC5" points="420.945,135.14 458.445,158.14 477.195,140.14 	"/>
	<polygon fill="#408DA4" points="491.945,210.64 435.445,198.14 461.945,242.14 	"/>
	<polygon fill="#1395CA" points="458.445,158.14 477.195,140.14 510.945,183.14 	"/>
	<polygon fill="#0788A9" points="491.945,210.64 458.445,158.14 510.945,183.14 	"/>
	<polygon fill="#5395A7" points="519.945,217.14 502.445,258.14 491.945,210.64 	"/>
	<polygon fill="#5ED0E2" points="273.945,253.64 233.945,234.14 239.945,282.14 	"/>
	<polygon fill="#4194A0" points="280.445,301.14 239.945,282.14 242.945,323.14 	"/>
	<polygon fill="#455C5C" points="260.195,330.14 242.945,323.14 280.445,301.14 	"/>
	<polygon fill="#08ACD1" points="244.945,220.89 249.445,204.64 260.195,224.64 	"/>
	<polygon fill="#09AFD5" points="287.112,237.14 316.779,220.14 325.445,251.806 	"/>
	<polygon fill="#11BEE6" points="345.445,210.64 382.112,220.14 368.112,242.14 	"/>
	<polygon fill="#A3EAFF" points="298.112,277.14 325.445,297.39 325.445,251.806 	"/>
	<polygon fill="#A0E4F6" points="386.445,273.14 392.779,251.806 368.112,242.14 	"/>
	<polygon fill="#554621" points="308.445,337.89 294.445,302.64 345.445,317.14 	"/>
	<polygon fill="#7C6959" points="372.112,309.14 404.445,273.14 412.112,304.64 	"/>
	<polygon fill="#5BC4D4" points="354.779,282.14 325.445,251.806 325.445,297.39 	"/>
	<polygon fill="#8CD5F7" points="368.112,242.14 354.779,282.14 386.445,273.14 	"/>
	<polygon fill="#04B9D2" points="318.112,178.14 316.779,220.14 345.445,210.64 	"/>
	<polygon fill="#0BBCE7" points="273.945,193.806 287.112,237.14 316.779,220.14 	"/>
	<polygon fill="#0EC2F2" points="365.004,191.504 345.445,210.64 382.112,220.14 	"/>
	<polygon fill="#42C1D4" points="260.195,224.64 273.945,253.64 287.112,237.14 	"/>
	<polygon fill="#1A848A" points="280.445,301.14 273.945,253.64 298.112,277.14 	"/>
	<polygon fill="#464235" points="260.195,330.14 260.195,349.474 308.445,337.89 	"/>
	<polygon fill="#575D4C" points="239.945,380.89 260.195,349.474 285.945,382.14 	"/>
	<polygon fill="#639EA6" points="246.945,428.39 238.195,406.89 270.195,406.89 	"/>
	<polygon fill="#73B0B7" points="239.945,380.89 238.195,406.89 270.195,406.89 	"/>
	<polygon fill="#2A4442" points="220.945,473.39 246.945,428.39 260.695,441.64 	"/>
	<polygon fill="#8ECBD6" points="187.695,529.89 220.945,473.39 240.82,501.64 	"/>
	<polygon fill="#72C5D7" points="167.445,570.39 187.695,529.89 201.445,540.64 	"/>
	<polygon fill="#5B9498" points="179.445,582.89 167.445,570.39 201.445,540.64 	"/>
	<polygon fill="#2B3C42" points="196.195,577.89 179.445,582.89 201.445,540.64 	"/>
	<polygon fill="#8B8E90" points="301.195,587.172 258.195,524.64 260.695,497.89 	"/>
	<polygon fill="#C2AFA7" points="345.445,587.172 260.695,497.89 301.195,587.172 	"/>
	<polygon fill="#8DDFFB" points="342.695,171.64 365.004,191.504 375.695,181.572 	"/>
	<polygon fill="#4D4B47" points="316.695,371.14 308.445,337.89 346.695,355.64 	"/>
	<polygon fill="#4E5351" points="333.945,386.14 316.695,371.14 346.695,355.64 	"/>
	<polygon fill="#5D8081" points="285.945,428.39 270.195,406.89 310.445,402.14 	"/>
	<polygon fill="#5A8B9A" points="285.945,382.14 310.445,402.14 270.195,406.89 	"/>
	<polygon fill="#17151A" points="201.445,540.64 260.695,497.89 258.195,524.64 	"/>
	<polygon fill="#17302D" points="196.195,577.89 209.195,557.64 201.445,540.64 	"/>
	<polygon fill="#294446" points="258.195,524.64 209.195,557.64 201.445,540.64 	"/>
	<polygon fill="#447682" points="240.82,501.64 231.07,514.39 187.695,529.89 	"/>
	<polygon fill="#121010" points="201.445,540.64 231.07,514.39 260.695,497.89 	"/>
	<polygon fill="#559196" points="260.695,441.64 258.195,472.015 220.945,473.39 	"/>
	<polygon fill="#4D8286" points="240.82,501.64 258.195,472.015 220.945,473.39 	"/>
	<polygon fill="#5B7978" points="260.695,441.64 285.945,428.39 258.195,472.015 	"/>
	<polygon fill="#558E94" points="270.195,406.89 260.695,441.64 246.945,428.39 	"/>
	<polygon fill="#897A77" points="175.445,202.89 170.445,224.64 209.445,207.64 	"/>
	<polygon fill="#4B8BB2" points="138.195,229.89 170.445,224.64 147.445,253.64 	"/>
	<polygon fill="#1681A4" points="121.945,270.64 147.445,253.64 135.445,289.64 	"/>
	<polygon fill="#0C7089" points="131.07,313.015 135.445,289.64 151.445,313.64 	"/>
	<polygon fill="#296167" points="152.07,337.89 151.445,313.64 171.195,346.64 	"/>
	<polygon fill="#2B4C4E" points="195.07,355.89 171.195,346.64 204.445,327.14 	"/>
	<polygon fill="#2A4D4A" points="217.445,352.64 195.07,355.89 204.445,327.14 	"/>
	<polygon fill="#435553" points="260.195,330.14 217.445,352.64 242.945,323.14 	"/>
	<polygon fill="#1D6C7F" points="131.07,313.015 152.07,337.89 151.445,313.64 	"/>
	<polygon fill="#177B8F" points="121.945,270.64 131.07,313.015 135.445,289.64 	"/>
	<polygon fill="#2B7090" points="138.195,229.89 121.945,270.64 147.445,253.64 	"/>
	<polygon fill="#31221A" points="175.445,202.89 155.445,213.765 170.445,224.64 	"/>
	<polygon fill="#231C10" points="138.195,229.89 155.445,213.765 170.445,224.64 	"/>
	<polygon fill="#32302D" points="175.445,202.89 194.945,199.973 209.445,207.64 	"/>
	<polygon fill="#33302D" points="221.112,200.39 194.945,199.973 209.445,207.64 	"/>
	<polygon fill="#545C62" points="244.945,220.89 221.112,200.39 209.445,207.64 	"/>
	<polygon fill="#95DAEB" points="233.945,234.14 244.945,220.89 209.445,207.64 	"/>
	<polygon fill="#7C7B73" points="345.445,317.14 372.112,309.14 373.695,337.89 	"/>
	<polygon fill="#628383" points="304.445,441.64 323.695,428.39 331.695,450.202 	"/>
	<polygon fill="#6EA1A9" points="330.445,463.39 304.445,473.39 322.945,497.89 	"/>
	<polygon fill="#8AC7CB" points="292.445,505.64 320.695,524.64 290.32,529.099 	"/>
	<polygon fill="#355253" points="310.445,402.14 333.945,386.14 346.695,427.14 	"/>
	<polygon fill="#516D6F" points="389.445,352.64 412.112,304.64 421.945,354.515 	"/>
	<polygon fill="#245762" points="425.195,389.64 408.445,378.14 421.945,354.515 	"/>
	<polygon fill="#494E4B" points="378.695,386.14 401.695,423.14 420.945,406.64 	"/>
	<polygon fill="#84AEC6" points="418.445,439.297 440.195,421.64 461.695,446.14 	"/>
	<polygon fill="#C5B6AE" points="427.197,466.39 457.695,461.14 452.195,548.89 	"/>
	<polygon fill="#D7BA99" points="512.195,587.174 457.695,587.172 452.195,548.89 	"/>
	<polygon fill="#F3DFD5" points="457.695,461.14 512.195,587.174 452.195,548.89 	"/>
	<polygon fill="#384144" points="244.945,197.39 270.945,187.39 273.945,193.806 	"/>
	<polygon fill="#35444D" points="335.195,167.14 368.112,161.64 342.695,171.64 	"/>
	<polygon fill="#364348" points="389.195,153.64 420.945,135.14 406.945,164.14 	"/>
	<polygon fill="#2C2B21" points="275.445,171.64 268.945,179.89 291.445,184.39 	"/>
	<polygon fill="#312519" points="321.945,158.14 318.112,178.14 335.195,167.14 	"/>
	<polygon fill="#62C6FF" points="273.945,193.806 291.445,184.39 316.779,220.14 	"/>
	<polygon fill="#53CFEC" points="382.112,220.14 389.195,195.14 365.004,191.504 	"/>
	<polygon fill="#3FA0BE" points="392.779,251.806 382.112,220.14 368.112,242.14 	"/>
	<polygon fill="#4B494C" points="325.445,297.39 294.445,302.64 345.445,317.14 	"/>
	<polygon fill="#353222" points="280.445,301.14 308.445,337.89 260.195,330.14 	"/>
	<polygon fill="#402314" points="354.779,282.14 345.445,317.14 372.112,309.14 	"/>
	<polygon fill="#0B0806" points="346.695,355.64 369.445,368.14 333.945,386.14 	"/>
	<polygon fill="#44595A" points="285.945,382.14 316.695,371.14 310.445,402.14 	"/>
	<polygon fill="#242E25" points="308.445,337.89 285.945,382.14 260.195,349.474 	"/>
	<polygon fill="#6D6B66" points="345.445,317.14 346.695,355.64 373.695,337.89 	"/>
	<polygon fill="#8E887C" points="372.112,309.14 373.695,337.89 389.445,352.64 	"/>
	<polygon fill="#485A5A" points="369.445,368.14 389.445,352.64 373.695,337.89 	"/>
	<polygon fill="#515A60" points="346.695,427.14 358.779,406.89 333.945,386.14 	"/>
	<polygon fill="#63959F" points="304.445,473.39 304.445,441.64 330.445,463.39 	"/>
	<polygon fill="#4C888E" points="292.445,505.64 304.445,473.39 320.695,524.64 	"/>
	<polygon fill="#6E979F" points="318.07,558.332 290.32,529.099 320.695,524.64 	"/>
	<polygon fill="#AFA99C" points="285.945,564.994 282.695,587.174 301.195,587.172 	"/>
	<polygon fill="#75CCDD" points="382.112,220.14 409.195,226.39 392.779,251.806 	"/>
	<polygon fill="#181718" points="420.945,135.14 441.945,128.39 477.195,140.14 	"/>
	<polygon fill="#4293C2" points="505.945,159.64 477.195,140.14 510.945,183.14 	"/>
	<polygon fill="#2698B9" points="491.945,210.64 510.945,183.14 519.945,217.14 	"/>
	<polygon fill="#518998" points="502.445,258.14 514.945,242.14 519.945,217.14 	"/>
	<polygon fill="#3D575E" points="451.945,277.14 480.445,277.14 502.445,258.14 	"/>
	<polygon fill="#4D9BBC" points="505.945,159.64 518.195,184.39 510.945,183.14 	"/>
	<polygon fill="#56A3BD" points="519.945,217.14 518.195,184.39 510.945,183.14 	"/>
	<polygon fill="#30373F" points="441.945,128.39 475.695,135.14 477.195,140.14 	"/>
	<polygon fill="#1D3844" points="505.945,159.64 475.695,135.14 477.195,140.14 	"/>
	<polygon fill="#93D3E7" points="406.945,164.14 398.445,184.39 435.445,198.14 	"/>
	<polygon fill="#45B7CC" points="430.445,238.64 409.195,226.39 435.445,198.14 	"/>
	<polygon fill="#58C6DC" points="389.195,195.14 409.195,226.39 382.112,220.14 	"/>
	<polygon fill="#51CDF2" points="375.695,181.572 389.195,195.14 365.004,191.504 	"/>
	<polygon fill="#5C7776" points="389.195,153.64 368.112,161.64 375.695,181.572 	"/>
	<polygon fill="#63C4ED" points="398.445,184.39 375.695,181.572 389.195,153.64 	"/>
	<polygon fill="#A9F3FF" points="389.195,195.14 398.445,184.39 435.445,198.14 	"/>
	<polygon fill="#6F979A" points="392.779,251.806 404.445,273.14 430.445,238.64 	"/>
	<polygon fill="#265658" points="451.945,277.14 427.197,279.64 430.445,238.64 	"/>
	<polygon fill="#445B59" points="404.445,273.14 427.197,279.64 430.445,238.64 	"/>
	<polygon fill="#5E5F5F" points="372.112,309.14 386.445,273.14 404.445,273.14 	"/>
	<polygon fill="#3F3737" points="369.445,368.14 378.695,386.14 389.445,352.64 	"/>
	<polygon fill="#0B0A0A" points="358.779,406.89 369.445,368.14 333.945,386.14 	"/>
	<polygon fill="#171412" points="377.695,457.515 346.695,427.14 358.779,406.89 	"/>
	<polygon fill="#070605" points="401.695,423.14 358.779,406.89 378.695,386.14 	"/>
	<polygon fill="#303C41" points="413.195,480.64 377.695,457.515 401.695,423.14 	"/>
	<polygon fill="#7BABB8" points="331.695,526.64 348.195,517.369 362.195,560.14 	"/>
	<polygon fill="#6B8B8D" points="338.195,561.64 331.695,526.64 362.195,560.14 	"/>
	<polygon fill="#334646" points="331.07,551.89 338.195,561.64 331.695,526.64 	"/>
	<polygon fill="#749394" points="345.445,587.172 362.195,560.14 338.195,561.64 	"/>
	<polygon fill="#80AFC0" points="366.945,587.172 362.195,560.14 345.445,587.172 	"/>
	<polygon fill="#5E6A5B" points="322.945,497.89 320.695,524.64 304.445,473.39 	"/>
	<polygon fill="#485B5C" points="331.695,526.64 322.945,497.89 345.445,493.89 	"/>
	<polygon fill="#618892" points="348.195,517.369 354.57,497.89 362.195,560.14 	"/>
	<polygon fill="#619CA9" points="345.445,493.89 348.195,517.369 331.695,526.64 	"/>
	<polygon fill="#536E76" points="330.445,463.39 363.695,467.89 345.445,493.89 	"/>
	<polygon fill="#4D5863" points="354.57,497.89 345.445,493.89 363.695,467.89 	"/>
	<polygon fill="#181B1F" points="346.695,427.14 330.445,463.39 363.695,467.89 	"/>
	<polygon fill="#64929C" points="285.945,428.39 292.445,460.14 310.445,402.14 	"/>
	<polygon fill="#465254" points="304.445,473.39 292.445,460.14 304.445,441.64 	"/>
	<polygon fill="#040806" points="363.695,467.89 377.695,457.515 391.945,513.39 	"/>
	<polygon fill="#46474E" points="362.195,560.14 391.945,513.39 363.695,467.89 	"/>
	<polygon fill="#2B3A40" points="401.695,587.174 362.195,560.14 391.945,513.39 	"/>
	<polygon fill="#414242" points="413.195,480.64 391.945,513.39 431.445,536.39 	"/>
	<polygon fill="#4C575F" points="401.695,587.174 431.445,536.39 391.945,513.39 	"/>
	<polygon fill="#575F6B" points="457.695,587.172 431.445,536.39 401.695,587.174 	"/>
	<polygon fill="#40413D" points="427.197,466.39 413.195,480.64 431.445,536.39 	"/>
	<polygon fill="#848D8C" points="452.195,548.89 431.445,536.39 427.197,466.39 	"/>
	<polygon fill="#474C57" points="401.695,423.14 418.445,439.297 413.195,480.64 	"/>
	<polygon fill="#0C0C0D" points="389.445,352.64 408.445,378.14 378.695,386.14 	"/>
	<polygon fill="#638B93" points="440.195,421.64 420.945,406.64 418.445,439.297 	"/>
	<polygon fill="#506B74" points="425.195,389.64 420.945,406.64 444.945,399.89 	"/>
	<polygon fill="#498E9D" points="421.945,354.515 448.945,366.39 425.195,389.64 	"/>
	<polygon fill="#3A4044" points="412.112,304.64 442.945,313.39 421.945,354.515 	"/>
	<polygon fill="#6C8089" points="404.445,273.14 442.945,313.39 412.112,304.64 	"/>
	<polygon fill="#6BB4C6" points="448.945,366.39 435.445,328.077 421.945,354.515 	"/>
	<polygon fill="#6A948F" points="444.945,399.89 486.695,386.14 448.945,366.39 	"/>
	<polygon fill="#4D7073" points="486.695,422.969 444.945,399.89 486.695,386.14 	"/>
	<polygon fill="#AAB0B5" points="418.445,439.297 427.197,466.39 413.195,480.64 	"/>
	<polygon fill="#3D3035" points="457.695,461.14 418.445,439.297 427.197,466.39 	"/>
	<polygon fill="#10050C" points="461.695,446.14 491.695,446.14 457.695,461.14 	"/>
	<polygon fill="#CFB29E" points="484.945,505.015 457.695,461.14 512.195,587.174 	"/>
	<polygon fill="#467478" points="541.195,587.172 484.945,505.015 501.945,484.14 	"/>
	<polygon fill="#D4A087" points="575.695,587.174 542.695,541.64 541.195,587.172 	"/>
	<polygon fill="#5A93A1" points="501.945,484.14 542.695,541.64 541.195,587.172 	"/>
	<polygon fill="#668585" points="457.695,461.14 501.945,484.14 484.945,505.015 	"/>
	<polygon fill="#1D131D" points="491.695,446.14 511.195,463.39 486.695,464.89 	"/>
	<polygon fill="#649FAC" points="501.945,484.14 486.695,464.89 457.695,461.14 	"/>
	<polygon fill="#4E8194" points="491.695,446.14 556.195,459.969 511.195,463.39 	"/>
	<polygon fill="#3B3E45" points="590.195,490.64 556.195,475.39 556.195,459.969 	"/>
	<polygon fill="#75A6B8" points="606.945,472.64 605.945,484.14 556.195,459.969 	"/>
	<polygon fill="#48798E" points="590.195,490.64 605.945,484.14 556.195,459.969 	"/>
	<polygon fill="#8DABBE" points="486.695,422.969 541.195,419.89 486.695,386.14 	"/>
	<polygon fill="#497985" points="532.195,449.89 541.195,419.89 486.695,422.969 	"/>
	<polygon fill="#576E7C" points="491.695,446.14 532.195,449.89 556.195,459.969 	"/>
	<polygon fill="#93C5C8" points="541.195,419.89 575.195,444.39 532.195,449.89 	"/>
	<polygon fill="#8CC1CD" points="556.195,459.969 575.195,444.39 606.945,472.64 	"/>
	<polygon fill="#537584" points="442.945,313.39 463.695,319.515 474.445,347.234 	"/>
	<polygon fill="#6FBDCC" points="448.945,366.39 474.445,347.234 486.695,386.14 	"/>
	<polygon fill="#8BAFBC" points="368.112,161.64 378.653,151.473 389.195,153.64 	"/>
	<polygon fill="#0D0A09" points="387.07,112.473 398.445,113.473 378.653,151.473 	"/>
	<polygon fill="#474443" points="389.195,153.64 398.445,113.473 378.653,151.473 	"/>
	<polygon fill="#878886" points="387.07,112.473 392.779,109.473 398.445,113.473 	"/>
	<polygon fill="#254348" points="432.695,23.473 406.945,77.473 404.445,74.806 	"/>
	<polygon fill="#5D899C" points="398.445,113.473 406.945,77.473 392.779,109.473 	"/>
	<polygon fill="#214248" points="404.445,74.806 392.779,109.473 406.945,77.473 	"/>
	<polygon fill="#57606D" points="221.112,200.39 244.945,197.39 249.445,204.64 	"/>
	<polygon fill="#0C1617" points="196.695,183.14 194.945,178.015 229.162,199.377 	"/>
	<polygon fill="#3E3B35" points="244.945,197.39 229.162,199.377 194.945,178.015 	"/>
	<polygon fill="#5E5958" points="200.445,173.14 194.945,178.015 244.945,197.39 	"/>
	<polygon fill="#164045" points="105.695,142.89 194.945,178.015 200.445,173.14 	"/>
	<polygon fill="#463D33" points="268.945,179.89 270.945,187.39 291.445,184.39 	"/>
	<polygon fill="#41382E" points="275.445,171.64 298.112,171.64 291.445,184.39 	"/>
	<polygon fill="#413230" points="306.278,168.14 318.112,178.14 321.945,158.14 	"/>
	<polygon fill="#897F82" points="298.112,171.64 306.278,168.14 308.695,183.14 	"/>
	<polygon fill="#3AA3CC" points="291.445,184.39 308.695,183.14 316.779,220.14 	"/>
	<polygon fill="#6AD7F2" points="318.112,178.14 308.695,183.14 316.779,220.14 	"/>
	<polygon fill="#88DBFA" points="348.195,251.806 316.779,220.14 345.445,210.64 	"/>
	<polygon fill="#64C9EA" points="354.779,282.14 348.195,251.806 325.445,251.806 	"/>
	<polygon fill="#ABEAF3" points="368.112,242.14 348.195,251.806 354.779,282.14 	"/>
	<polygon fill="#37595E" points="138.195,229.89 127.695,247.14 121.945,270.64 	"/>
	<polygon fill="#2E93B6" points="147.445,253.64 194.945,267.64 151.445,313.64 	"/>
	<polygon fill="#97C0D6" points="170.445,224.64 233.945,234.14 194.945,267.64 	"/>
	<polygon fill="#29494C" points="204.445,327.14 239.945,282.14 194.945,267.64 	"/>
	<polygon fill="#089AAE" points="273.945,253.64 239.945,282.14 280.445,301.14 	"/>
	<polygon fill="#3C2819" points="294.445,302.64 280.445,301.14 308.445,337.89 	"/>
	<polygon fill="#4F645B" points="239.945,380.89 285.945,382.14 270.195,406.89 	"/>
	<polygon fill="#5E8C8E" points="260.695,441.64 270.195,406.89 285.945,428.39 	"/>
	<polygon fill="#243E3F" points="258.195,472.015 279.695,453.89 285.945,428.39 	"/>
	<polygon fill="#13181B" points="292.445,460.14 279.695,453.89 285.945,428.39 	"/>
	<polygon fill="#4E9097" points="187.695,529.89 231.07,514.39 201.445,540.64 	"/>
	<polygon fill="#52717B" points="322.945,497.89 345.445,493.89 330.445,463.39 	"/>
	<polygon fill="#618892" points="345.445,493.89 354.57,497.89 348.195,517.369 	"/>
	<polygon fill="#5B5E68" points="363.695,467.89 354.57,497.89 362.195,560.14 	"/>
	<polygon fill="#414043" points="377.695,457.515 413.195,480.64 391.945,513.39 	"/>
	<polygon fill="#313732" points="346.695,427.14 377.695,457.515 363.695,467.89 	"/>
	<polygon fill="#545A58" points="304.445,441.64 310.445,402.14 292.445,460.14 	"/>
	<polygon fill="#72A1A9" points="331.695,450.202 330.445,463.39 304.445,441.64 	"/>
	<polygon fill="#444D4E" points="346.695,427.14 323.695,428.39 331.695,450.202 	"/>
	<polygon fill="#52524F" points="310.445,402.14 323.695,428.39 304.445,441.64 	"/>
	<polygon fill="#5E7376" points="346.695,427.14 323.695,428.39 310.445,402.14 	"/>
	<polygon fill="#4F4E48" points="316.695,371.14 310.445,402.14 333.945,386.14 	"/>
	<polygon fill="#2A3421" points="285.945,382.14 308.445,337.89 316.695,371.14 	"/>
	<polygon fill="#AFA291" points="345.445,317.14 308.445,337.89 346.695,355.64 	"/>
	<polygon fill="#293029" points="373.695,337.89 346.695,355.64 369.445,368.14 	"/>
	<polygon fill="#110E10" points="378.695,386.14 369.445,368.14 358.779,406.89 	"/>
	<polygon fill="#494743" points="401.695,423.14 358.779,406.89 377.695,457.515 	"/>
	<polygon fill="#344B4E" points="408.445,378.14 378.695,386.14 420.945,406.64 	"/>
	<polygon fill="#5B7471" points="389.445,352.64 421.945,354.515 408.445,378.14 	"/>
	<polygon fill="#28151F" points="221.112,200.39 249.445,204.64 244.945,220.89 	"/>
	<polygon fill="#354141" points="273.945,193.806 249.445,204.64 244.945,197.39 	"/>
	<polygon fill="#4ACDEC" points="260.195,224.64 273.945,193.806 249.445,204.64 	"/>
	<polygon fill="#0E8097" points="233.297,234.043 260.195,224.64 244.945,220.89 	"/>
	<polygon fill="#C6FBFF" points="273.945,253.64 260.195,224.64 233.297,234.043 	"/>
	<polygon fill="#0A4A4E" points="298.112,277.14 287.112,237.14 273.945,253.64 	"/>
	<polygon fill="#4EADC1" points="294.445,302.64 298.112,277.14 280.445,301.14 	"/>
	<polygon fill="#516158" points="325.445,297.39 294.445,302.64 298.112,277.14 	"/>
	<polygon fill="#0E424B" points="287.112,237.14 325.445,251.806 298.112,277.14 	"/>
	<polygon fill="#23C0E8" points="273.945,193.806 287.112,237.14 260.195,224.64 	"/>
	<polygon fill="#225167" points="270.945,187.39 291.445,184.39 273.945,193.806 	"/>
	<polygon fill="#4B3233" points="298.112,171.64 291.445,184.39 308.695,183.14 	"/>
	<polygon fill="#534B4D" points="306.278,168.14 318.112,178.14 308.695,183.14 	"/>
	<polygon fill="#79DCEC" points="335.195,167.14 318.112,178.14 345.445,210.64 	"/>
	<polygon fill="#505E57" points="321.945,158.14 331.779,160.515 335.195,167.14 	"/>
	<polygon fill="#78D4EC" points="342.695,171.64 335.195,167.14 345.445,210.64 	"/>
	<polygon fill="#43CFF0" points="365.004,191.504 345.445,210.64 342.695,171.64 	"/>
	<polygon fill="#74D0EF" points="368.112,161.64 342.695,171.64 375.695,181.572 	"/>
	<polygon fill="#253D4A" points="389.195,153.64 406.945,164.14 398.445,184.39 	"/>
	<polygon fill="#067785" points="375.695,181.572 398.445,184.39 389.195,195.14 	"/>
	<polygon fill="#80DFF7" points="409.195,226.39 435.445,198.14 389.195,195.14 	"/>
	<polygon fill="#169BB0" points="392.779,251.806 430.445,238.64 409.195,226.39 	"/>
	<polygon fill="#100A09" points="354.779,282.14 386.445,273.14 372.112,309.14 	"/>
	<polygon fill="#210C08" points="325.445,297.39 354.779,282.14 345.445,317.14 	"/>
	<polygon fill="#8F827F" points="372.112,309.14 412.112,304.64 389.445,352.64 	"/>
	<polygon fill="#729197" points="392.779,251.806 386.445,273.14 404.445,273.14 	"/>
	<polygon fill="#415153" points="427.197,279.64 451.945,277.14 458.695,282.39 	"/>
	<polygon fill="#415354" points="480.445,277.14 451.945,277.14 458.695,282.39 	"/>
	<polygon fill="#598F90" points="430.445,238.64 461.945,242.14 451.945,277.14 	"/>
	<polygon fill="#59A4B1" points="491.945,210.64 461.945,242.14 502.445,258.14 	"/>
	<polygon fill="#3D788A" points="480.445,277.14 502.445,258.14 494.945,269.14 	"/>
	<polygon fill="#42899B" points="435.445,198.14 458.445,158.14 491.945,210.64 	"/>
	<polygon fill="#88ADD9" points="420.945,135.14 406.945,164.14 458.445,158.14 	"/>
	<polygon fill="#1498AC" points="316.779,220.14 348.195,251.806 325.445,251.806 	"/>
	<polygon fill="#29AAC2" points="345.445,210.64 348.195,251.806 368.112,242.14 	"/>
	<polygon fill="#7C7A76" points="442.945,313.39 435.445,328.077 448.945,366.39 	"/>
	<polygon fill="#444341" points="474.445,347.234 448.945,366.39 442.945,313.39 	"/>
	<polygon fill="#648691" points="425.195,389.64 420.945,406.64 408.445,378.14 	"/>
	<polygon fill="#578887" points="444.945,399.89 425.195,389.64 448.945,366.39 	"/>
	<polygon fill="#565863" points="420.945,406.64 454.695,419.89 444.945,399.89 	"/>
	<polygon fill="#4E6162" points="440.195,421.64 454.695,419.89 420.945,406.64 	"/>
	<polygon fill="#4A5D5C" points="401.695,423.14 420.945,406.64 418.445,439.297 	"/>
	<polygon fill="#5D787C" points="461.695,446.14 418.445,439.297 457.695,461.14 	"/>
	<polygon fill="#0D0A09" points="491.695,446.14 457.695,461.14 486.695,464.89 	"/>
	<polygon fill="#3B5E75" points="511.195,463.39 556.195,475.39 556.195,459.969 	"/>
	<polygon fill="#66868C" points="532.195,449.89 556.195,459.969 575.195,444.39 	"/>
	<polygon fill="#587F8C" points="346.695,427.14 331.695,450.202 330.445,463.39 	"/>
	<polygon fill="#586D6F" points="320.695,524.64 331.695,526.64 322.945,497.89 	"/>
	<polygon fill="#4D4E4D" points="362.195,560.14 401.695,587.174 366.945,587.172 	"/>
	<polygon fill="#5F6F7C" points="431.445,536.39 452.195,548.89 457.695,587.172 	"/>
	<polygon fill="#222937" points="454.695,419.89 459.445,414.14 444.945,399.89 	"/>
	<polygon fill="#444848" points="320.695,524.64 331.07,551.89 331.695,526.64 	"/>
	<polygon fill="#304748" points="279.695,453.89 281.445,473.39 292.445,460.14 	"/>
	<polygon fill="#495A5F" points="304.445,473.39 281.445,473.39 292.445,460.14 	"/>
</g>
</svg>
